<svg version="1.1" viewBox="0.0 0.0 2998.299212598425 202.35433070866142" fill="none" stroke="none" stroke-linecap="square" stroke-miterlimit="10" xmlns:xlink="http://www.w3.org/1999/xlink" xmlns="http://www.w3.org/2000/svg"><clipPath id="p.0"><path d="m0 0l2998.2993 0l0 202.35432l-2998.2993 0l0 -202.35432z" clip-rule="nonzero"/></clipPath><g clip-path="url(#p.0)"><path fill="#000000" fill-opacity="0.0" d="m0 0l2998.2993 0l0 202.35432l-2998.2993 0z" fill-rule="evenodd"/><path fill="#ff9900" d="m43.610237 59.33858l45.543304 0l0 49.889767l-45.543304 0z" fill-rule="evenodd"/><path fill="#00ff00" d="m316.8701 59.33858l45.543304 0l0 49.889767l-45.543304 0z" fill-rule="evenodd"/><path fill="#00ff00" d="m362.4134 59.33858l45.543304 0l0 49.889767l-45.543304 0z" fill-rule="evenodd"/><path fill="#00ff00" d="m407.9567 59.33858l45.543304 0l0 49.889767l-45.543304 0z" fill-rule="evenodd"/><path fill="#4a86e8" d="m596.3609 59.335957l45.543274 0l0 49.889767l-45.543274 0z" fill-rule="evenodd"/><path fill="#4a86e8" d="m641.9042 59.335957l45.543335 0l0 49.889767l-45.543335 0z" fill-rule="evenodd"/><path fill="#4a86e8" d="m687.4475 59.335957l45.543274 0l0 49.889767l-45.543274 0z" fill-rule="evenodd"/><path fill="#4a86e8" d="m732.9908 59.335957l45.543335 0l0 49.889767l-45.543335 0z" fill-rule="evenodd"/><path fill="#000000" fill-opacity="0.0" d="m30.85433 17.322834l71.055115 0l0 42.015747l-71.055115 0z" fill-rule="evenodd"/><path fill="#000000" d="m51.56759 36.539707q-0.09375 0.140625 -0.203125 0.203125q-0.09375 0.0625 -0.25 0.0625q-0.171875 0 -0.359375 -0.09375q-0.1875 -0.09375 -0.4375 -0.203125q-0.25 -0.125 -0.578125 -0.21875q-0.328125 -0.09375 -0.765625 -0.09375q-0.671875 0 -1.0625 0.296875q-0.390625 0.28125 -0.390625 0.75q0 0.3125 0.1875 0.53125q0.203125 0.203125 0.53125 0.359375q0.34375 0.15625 0.75 0.28125q0.421875 0.125 0.859375 0.28125q0.453125 0.140625 0.859375 0.34375q0.421875 0.1875 0.75 0.484375q0.34375 0.28125 0.53125 0.703125q0.203125 0.40625 0.203125 0.984375q0 0.6875 -0.25 1.28125q-0.25 0.578125 -0.734375 1.0q-0.484375 0.421875 -1.203125 0.671875q-0.703125 0.234375 -1.625 0.234375q-0.5 0 -0.96875 -0.09375q-0.46875 -0.09375 -0.90625 -0.25q-0.4375 -0.15625 -0.8125 -0.375q-0.359375 -0.21875 -0.640625 -0.46875l0.53125 -0.875q0.109375 -0.15625 0.25 -0.234375q0.140625 -0.09375 0.34375 -0.09375q0.21875 0 0.40625 0.125q0.203125 0.125 0.453125 0.265625q0.25 0.140625 0.578125 0.265625q0.34375 0.109375 0.875 0.109375q0.40625 0 0.703125 -0.09375q0.296875 -0.09375 0.484375 -0.25q0.1875 -0.171875 0.265625 -0.375q0.09375 -0.203125 0.09375 -0.4375q0 -0.328125 -0.203125 -0.546875q-0.1875 -0.21875 -0.53125 -0.375q-0.328125 -0.15625 -0.75 -0.28125q-0.421875 -0.125 -0.875 -0.265625q-0.4375 -0.15625 -0.859375 -0.359375q-0.421875 -0.203125 -0.75 -0.5q-0.328125 -0.3125 -0.53125 -0.765625q-0.203125 -0.453125 -0.203125 -1.078125q0 -0.59375 0.234375 -1.125q0.234375 -0.53125 0.6875 -0.921875q0.453125 -0.40625 1.125 -0.640625q0.671875 -0.234375 1.5625 -0.234375q0.984375 0 1.796875 0.328125q0.8125 0.328125 1.359375 0.859375l-0.53125 0.828125zm4.9340363 -1.875l0 9.578125l-2.3125 0l0 -9.578125l2.3125 0zm0.34375 -2.78125q0 0.296875 -0.125 0.5625q-0.125 0.265625 -0.328125 0.46875q-0.1875 0.1875 -0.46875 0.3125q-0.265625 0.109375 -0.578125 0.109375q-0.296875 0 -0.5625 -0.109375q-0.265625 -0.125 -0.46875 -0.3125q-0.1875 -0.203125 -0.3125 -0.46875q-0.109375 -0.265625 -0.109375 -0.5625q0 -0.3125 0.109375 -0.578125q0.125 -0.265625 0.3125 -0.453125q0.203125 -0.203125 0.46875 -0.3125q0.265625 -0.125 0.5625 -0.125q0.3125 0 0.578125 0.125q0.28125 0.109375 0.46875 0.3125q0.203125 0.1875 0.328125 0.453125q0.125 0.265625 0.125 0.578125zm5.571472 2.625q0.609375 0 1.140625 0.125q0.546875 0.125 1.0 0.359375l2.75 0l0 0.859375q0 0.21875 -0.109375 0.34375q-0.109375 0.125 -0.375 0.171875l-0.859375 0.15625q0.09375 0.234375 0.140625 0.515625q0.046875 0.265625 0.046875 0.5625q0 0.703125 -0.28125 1.28125q-0.28125 0.578125 -0.78125 0.984375q-0.5 0.390625 -1.1875 0.609375q-0.6875 0.21875 -1.484375 0.21875q-0.546875 0 -1.0625 -0.09375q-0.4375 0.265625 -0.4375 0.59375q0 0.296875 0.265625 0.4375q0.265625 0.125 0.6875 0.1875q0.4375 0.046875 0.984375 0.0625q0.5625 0.015625 1.140625 0.0625q0.578125 0.046875 1.125 0.171875q0.546875 0.109375 0.984375 0.359375q0.4375 0.25 0.703125 0.6875q0.265625 0.4375 0.265625 1.109375q0 0.640625 -0.3125 1.234375q-0.3125 0.59375 -0.90625 1.0625q-0.59375 0.46875 -1.453125 0.75q-0.859375 0.296875 -1.953125 0.296875q-1.09375 0 -1.90625 -0.21875q-0.796875 -0.203125 -1.328125 -0.5625q-0.515625 -0.34375 -0.78125 -0.8125q-0.265625 -0.453125 -0.265625 -0.9375q0 -0.671875 0.40625 -1.125q0.421875 -0.46875 1.140625 -0.734375q-0.34375 -0.203125 -0.5625 -0.515625q-0.21875 -0.328125 -0.21875 -0.859375q0 -0.21875 0.078125 -0.4375q0.078125 -0.234375 0.21875 -0.453125q0.15625 -0.21875 0.390625 -0.421875q0.234375 -0.203125 0.546875 -0.359375q-0.71875 -0.390625 -1.140625 -1.046875q-0.40625 -0.65625 -0.40625 -1.53125q0 -0.703125 0.28125 -1.28125q0.28125 -0.578125 0.78125 -0.984375q0.515625 -0.40625 1.203125 -0.609375q0.703125 -0.21875 1.53125 -0.21875zm2.53125 10.15625q0 -0.265625 -0.171875 -0.4375q-0.171875 -0.1875 -0.46875 -0.28125q-0.28125 -0.109375 -0.671875 -0.15625q-0.390625 -0.046875 -0.828125 -0.0625q-0.421875 -0.03125 -0.890625 -0.046875q-0.453125 -0.03125 -0.890625 -0.078125q-0.390625 0.21875 -0.625 0.515625q-0.234375 0.28125 -0.234375 0.671875q0 0.25 0.125 0.46875q0.125 0.21875 0.390625 0.375q0.28125 0.15625 0.71875 0.234375q0.4375 0.09375 1.078125 0.09375q0.640625 0 1.109375 -0.09375q0.46875 -0.09375 0.765625 -0.265625q0.3125 -0.171875 0.453125 -0.421875q0.140625 -0.234375 0.140625 -0.515625zm-2.53125 -5.4375q0.421875 0 0.734375 -0.109375q0.328125 -0.125 0.53125 -0.328125q0.21875 -0.203125 0.3125 -0.484375q0.109375 -0.296875 0.109375 -0.640625q0 -0.71875 -0.421875 -1.125q-0.421875 -0.421875 -1.265625 -0.421875q-0.859375 0 -1.28125 0.421875q-0.421875 0.40625 -0.421875 1.125q0 0.328125 0.109375 0.625q0.109375 0.28125 0.3125 0.5q0.21875 0.203125 0.53125 0.328125q0.328125 0.109375 0.75 0.109375zm6.3421173 5.015625l0 -9.578125l1.40625 0q0.453125 0 0.59375 0.421875l0.15625 0.765625q0.28125 -0.296875 0.59375 -0.53125q0.328125 -0.25 0.6875 -0.421875q0.359375 -0.1875 0.765625 -0.28125q0.421875 -0.09375 0.90625 -0.09375q0.78125 0 1.390625 0.265625q0.609375 0.265625 1.015625 0.75q0.40625 0.46875 0.609375 1.140625q0.21875 0.671875 0.21875 1.46875l0 6.09375l-2.3125 0l0 -6.09375q0 -0.875 -0.40625 -1.34375q-0.40625 -0.484375 -1.21875 -0.484375q-0.59375 0 -1.125 0.265625q-0.515625 0.265625 -0.984375 0.734375l0 6.921875l-2.296875 0zm14.559204 -9.71875q0.90625 0 1.65625 0.296875q0.765625 0.28125 1.3125 0.84375q0.5625 0.546875 0.859375 1.359375q0.3125 0.796875 0.3125 1.84375q0 0.25 -0.03125 0.421875q-0.015625 0.171875 -0.078125 0.28125q-0.0625 0.09375 -0.171875 0.140625q-0.09375 0.03125 -0.25 0.03125l-5.921875 0q0.109375 1.484375 0.796875 2.171875q0.6875 0.6875 1.828125 0.6875q0.5625 0 0.96875 -0.125q0.40625 -0.140625 0.703125 -0.296875q0.3125 -0.15625 0.53125 -0.28125q0.234375 -0.140625 0.453125 -0.140625q0.140625 0 0.234375 0.0625q0.109375 0.046875 0.1875 0.15625l0.671875 0.84375q-0.390625 0.4375 -0.875 0.75q-0.46875 0.296875 -0.984375 0.484375q-0.515625 0.171875 -1.0625 0.25q-0.53125 0.078125 -1.03125 0.078125q-1.0 0 -1.859375 -0.328125q-0.859375 -0.328125 -1.5 -0.96875q-0.625 -0.65625 -0.984375 -1.609375q-0.359375 -0.96875 -0.359375 -2.21875q0 -0.984375 0.3125 -1.84375q0.3125 -0.875 0.90625 -1.5q0.59375 -0.640625 1.4375 -1.015625q0.859375 -0.375 1.9375 -0.375zm0.046875 1.65625q-1.015625 0 -1.578125 0.5625q-0.5625 0.5625 -0.734375 1.609375l4.328125 0q0 -0.4375 -0.125 -0.828125q-0.109375 -0.40625 -0.359375 -0.703125q-0.25 -0.296875 -0.640625 -0.46875q-0.375 -0.171875 -0.890625 -0.171875z" fill-rule="nonzero"/><path fill="#000000" fill-opacity="0.0" d="m89.15536 17.325459l502.9291 0l0 42.015747l-502.9291 0z" fill-rule="evenodd"/><path fill="#000000" d="m307.61356 34.526707q0.90625 0 1.65625 0.296875q0.765625 0.28125 1.3125 0.84375q0.5625 0.546875 0.859375 1.359375q0.3125 0.796875 0.3125 1.84375q0 0.25 -0.03125 0.421875q-0.015625 0.171875 -0.078125 0.28125q-0.0625 0.09375 -0.171875 0.140625q-0.09375 0.03125 -0.25 0.03125l-5.921875 0q0.109375 1.484375 0.796875 2.171875q0.6875 0.6875 1.828125 0.6875q0.5625 0 0.96875 -0.125q0.40625 -0.140625 0.703125 -0.296875q0.3125 -0.15625 0.53125 -0.28125q0.234375 -0.140625 0.453125 -0.140625q0.140625 0 0.234375 0.0625q0.109375 0.046875 0.1875 0.15625l0.671875 0.84375q-0.390625 0.4375 -0.875 0.75q-0.46875 0.296875 -0.984375 0.484375q-0.515625 0.171875 -1.0625 0.25q-0.53125 0.078125 -1.03125 0.078125q-1.0 0 -1.859375 -0.328125q-0.859375 -0.328125 -1.5 -0.96875q-0.625 -0.65625 -0.984375 -1.609375q-0.359375 -0.96875 -0.359375 -2.21875q0 -0.984375 0.3125 -1.84375q0.3125 -0.875 0.90625 -1.5q0.59375 -0.640625 1.4375 -1.015625q0.859375 -0.375 1.9375 -0.375zm0.046875 1.65625q-1.015625 0 -1.578125 0.5625q-0.5625 0.5625 -0.734375 1.609375l4.328125 0q0 -0.4375 -0.125 -0.828125q-0.109375 -0.40625 -0.359375 -0.703125q-0.25 -0.296875 -0.640625 -0.46875q-0.375 -0.171875 -0.890625 -0.171875zm7.6773987 3.125l-3.140625 -4.640625l2.21875 0q0.25 0 0.359375 0.078125q0.125 0.0625 0.21875 0.234375l2.015625 3.1875q0.046875 -0.15625 0.109375 -0.3125q0.078125 -0.15625 0.171875 -0.3125l1.625 -2.515625q0.109375 -0.1875 0.21875 -0.265625q0.125 -0.09375 0.3125 -0.09375l2.109375 0l-3.15625 4.546875l3.28125 5.03125l-2.21875 0q-0.25 0 -0.40625 -0.125q-0.140625 -0.140625 -0.25 -0.296875l-2.03125 -3.34375q-0.09375 0.34375 -0.234375 0.5625l-1.796875 2.78125q-0.09375 0.15625 -0.25 0.296875q-0.140625 0.125 -0.375 0.125l-2.0625 0l3.28125 -4.9375zm7.8087463 8.0625l0 -12.703125l1.40625 0q0.21875 0 0.375 0.109375q0.171875 0.109375 0.21875 0.3125l0.1875 0.890625q0.578125 -0.65625 1.328125 -1.0625q0.75 -0.421875 1.75 -0.421875q0.78125 0 1.421875 0.328125q0.65625 0.328125 1.125 0.953125q0.484375 0.609375 0.734375 1.53125q0.25 0.90625 0.25 2.078125q0 1.078125 -0.296875 2.0q-0.28125 0.90625 -0.8125 1.578125q-0.53125 0.671875 -1.296875 1.046875q-0.765625 0.375 -1.703125 0.375q-0.8125 0 -1.375 -0.25q-0.5625 -0.25 -1.015625 -0.6875l0 3.921875l-2.296875 0zm4.46875 -11.046875q-0.71875 0 -1.234375 0.296875q-0.5 0.296875 -0.9375 0.859375l0 4.28125q0.390625 0.484375 0.84375 0.6875q0.46875 0.1875 1.0 0.1875q0.53125 0 0.953125 -0.1875q0.421875 -0.203125 0.71875 -0.609375q0.296875 -0.40625 0.453125 -1.015625q0.15625 -0.609375 0.15625 -1.4375q0 -0.84375 -0.140625 -1.421875q-0.125 -0.578125 -0.375 -0.9375q-0.25 -0.375 -0.609375 -0.53125q-0.359375 -0.171875 -0.828125 -0.171875zm10.159485 -1.796875q1.078125 0 1.953125 0.34375q0.875 0.34375 1.484375 0.984375q0.609375 0.625 0.9375 1.546875q0.34375 0.90625 0.34375 2.046875q0 1.125 -0.34375 2.046875q-0.328125 0.90625 -0.9375 1.5625q-0.609375 0.640625 -1.484375 0.984375q-0.875 0.34375 -1.953125 0.34375q-1.0625 0 -1.953125 -0.34375q-0.875 -0.34375 -1.5 -0.984375q-0.609375 -0.65625 -0.953125 -1.5625q-0.34375 -0.921875 -0.34375 -2.046875q0 -1.140625 0.34375 -2.046875q0.34375 -0.921875 0.953125 -1.546875q0.625 -0.640625 1.5 -0.984375q0.890625 -0.34375 1.953125 -0.34375zm0 8.09375q1.203125 0 1.765625 -0.796875q0.578125 -0.8125 0.578125 -2.359375q0 -1.546875 -0.578125 -2.359375q-0.5625 -0.8125 -1.765625 -0.8125q-1.203125 0 -1.78125 0.8125q-0.578125 0.8125 -0.578125 2.359375q0 1.53125 0.578125 2.34375q0.578125 0.8125 1.78125 0.8125zm12.199829 -6.078125q-0.09375 0.140625 -0.203125 0.203125q-0.09375 0.0625 -0.25 0.0625q-0.171875 0 -0.359375 -0.09375q-0.1875 -0.09375 -0.4375 -0.203125q-0.25 -0.125 -0.578125 -0.21875q-0.328125 -0.09375 -0.765625 -0.09375q-0.671875 0 -1.0625 0.296875q-0.390625 0.28125 -0.390625 0.75q0 0.3125 0.1875 0.53125q0.203125 0.203125 0.53125 0.359375q0.34375 0.15625 0.75 0.28125q0.421875 0.125 0.859375 0.28125q0.453125 0.140625 0.859375 0.34375q0.421875 0.1875 0.75 0.484375q0.34375 0.28125 0.53125 0.703125q0.203125 0.40625 0.203125 0.984375q0 0.6875 -0.25 1.28125q-0.25 0.578125 -0.734375 1.0q-0.484375 0.421875 -1.203125 0.671875q-0.703125 0.234375 -1.625 0.234375q-0.5 0 -0.96875 -0.09375q-0.46875 -0.09375 -0.90625 -0.25q-0.4375 -0.15625 -0.8125 -0.375q-0.359375 -0.21875 -0.640625 -0.46875l0.53125 -0.875q0.109375 -0.15625 0.25 -0.234375q0.140625 -0.09375 0.34375 -0.09375q0.21875 0 0.40625 0.125q0.203125 0.125 0.453125 0.265625q0.25 0.140625 0.578125 0.265625q0.34375 0.109375 0.875 0.109375q0.40625 0 0.703125 -0.09375q0.296875 -0.09375 0.484375 -0.25q0.1875 -0.171875 0.265625 -0.375q0.09375 -0.203125 0.09375 -0.4375q0 -0.328125 -0.203125 -0.546875q-0.1875 -0.21875 -0.53125 -0.375q-0.328125 -0.15625 -0.75 -0.28125q-0.421875 -0.125 -0.875 -0.265625q-0.4375 -0.15625 -0.859375 -0.359375q-0.421875 -0.203125 -0.75 -0.5q-0.328125 -0.3125 -0.53125 -0.765625q-0.203125 -0.453125 -0.203125 -1.078125q0 -0.59375 0.234375 -1.125q0.234375 -0.53125 0.6875 -0.921875q0.453125 -0.40625 1.125 -0.640625q0.671875 -0.234375 1.5625 -0.234375q0.984375 0 1.796875 0.328125q0.8125 0.328125 1.359375 0.859375l-0.53125 0.828125zm9.9809265 7.703125l-1.03125 0q-0.328125 0 -0.515625 -0.09375q-0.1875 -0.109375 -0.28125 -0.40625l-0.203125 -0.671875q-0.375 0.328125 -0.71875 0.578125q-0.34375 0.234375 -0.71875 0.40625q-0.375 0.171875 -0.796875 0.25q-0.421875 0.09375 -0.9375 0.09375q-0.609375 0 -1.125 -0.15625q-0.5 -0.171875 -0.875 -0.5q-0.359375 -0.328125 -0.578125 -0.8125q-0.203125 -0.484375 -0.203125 -1.125q0 -0.546875 0.28125 -1.078125q0.296875 -0.53125 0.953125 -0.953125q0.671875 -0.421875 1.765625 -0.703125q1.09375 -0.28125 2.734375 -0.3125l0 -0.5625q0 -0.953125 -0.40625 -1.40625q-0.40625 -0.46875 -1.1875 -0.46875q-0.546875 0 -0.921875 0.125q-0.375 0.125 -0.65625 0.296875q-0.265625 0.15625 -0.5 0.296875q-0.234375 0.125 -0.515625 0.125q-0.234375 0 -0.40625 -0.125q-0.171875 -0.125 -0.265625 -0.296875l-0.421875 -0.734375q1.65625 -1.515625 3.984375 -1.515625q0.84375 0 1.5 0.28125q0.65625 0.265625 1.109375 0.765625q0.453125 0.484375 0.6875 1.171875q0.25 0.671875 0.25 1.484375l0 6.046875zm-4.484375 -1.4375q0.359375 0 0.65625 -0.0625q0.296875 -0.0625 0.5625 -0.1875q0.265625 -0.140625 0.515625 -0.328125q0.25 -0.1875 0.5 -0.453125l0 -1.609375q-1.015625 0.03125 -1.6875 0.171875q-0.671875 0.125 -1.09375 0.328125q-0.40625 0.1875 -0.578125 0.453125q-0.171875 0.25 -0.171875 0.5625q0 0.609375 0.359375 0.875q0.359375 0.25 0.9375 0.25zm6.750946 1.4375l0 -9.578125l1.40625 0q0.453125 0 0.59375 0.421875l0.15625 0.765625q0.28125 -0.296875 0.59375 -0.53125q0.328125 -0.25 0.6875 -0.421875q0.359375 -0.1875 0.765625 -0.28125q0.421875 -0.09375 0.90625 -0.09375q0.78125 0 1.390625 0.265625q0.609375 0.265625 1.015625 0.75q0.40625 0.46875 0.609375 1.140625q0.21875 0.671875 0.21875 1.46875l0 6.09375l-2.3125 0l0 -6.09375q0 -0.875 -0.40625 -1.34375q-0.40625 -0.484375 -1.21875 -0.484375q-0.59375 0 -1.125 0.265625q-0.515625 0.265625 -0.984375 0.734375l0 6.921875l-2.296875 0zm13.746704 0.15625q-1.234375 0 -1.90625 -0.703125q-0.671875 -0.71875 -0.671875 -1.953125l0 -5.34375l-0.96875 0q-0.1875 0 -0.328125 -0.125q-0.140625 -0.125 -0.140625 -0.359375l0 -0.921875l1.546875 -0.25l0.484375 -2.609375q0.03125 -0.1875 0.171875 -0.28125q0.140625 -0.109375 0.34375 -0.109375l1.1875 0l0 3.015625l2.515625 0l0 1.640625l-2.515625 0l0 5.1875q0 0.453125 0.21875 0.703125q0.234375 0.25 0.609375 0.25q0.203125 0 0.34375 -0.046875q0.15625 -0.0625 0.265625 -0.109375q0.109375 -0.0625 0.1875 -0.109375q0.078125 -0.0625 0.171875 -0.0625q0.09375 0 0.15625 0.0625q0.078125 0.046875 0.140625 0.15625l0.703125 1.109375q-0.515625 0.421875 -1.171875 0.640625q-0.640625 0.21875 -1.34375 0.21875z" fill-rule="nonzero"/><path fill="#000000" fill-opacity="0.0" d="m596.3609 17.321522l2368.7559 0l0 42.015747l-2368.7559 0z" fill-rule="evenodd"/><path fill="#000000" d="m1744.656 44.24152l0 -9.578125l1.40625 0q0.453125 0 0.59375 0.421875l0.140625 0.71875q0.25 -0.28125 0.515625 -0.515625q0.28125 -0.234375 0.59375 -0.40625q0.3125 -0.171875 0.671875 -0.265625q0.359375 -0.09375 0.796875 -0.09375q0.90625 0 1.484375 0.5q0.578125 0.484375 0.875 1.296875q0.21875 -0.484375 0.546875 -0.8125q0.34375 -0.34375 0.75 -0.5625q0.40625 -0.21875 0.84375 -0.3125q0.453125 -0.109375 0.921875 -0.109375q0.78125 0 1.390625 0.25q0.625 0.234375 1.046875 0.703125q0.421875 0.46875 0.640625 1.140625q0.21875 0.671875 0.21875 1.53125l0 6.09375l-2.296875 0l0 -6.09375q0 -0.90625 -0.40625 -1.359375q-0.40625 -0.46875 -1.171875 -0.46875q-0.359375 0 -0.671875 0.125q-0.296875 0.109375 -0.53125 0.34375q-0.21875 0.21875 -0.359375 0.578125q-0.125 0.34375 -0.125 0.78125l0 6.09375l-2.3125 0l0 -6.09375q0 -0.953125 -0.390625 -1.390625q-0.375 -0.4375 -1.140625 -0.4375q-0.484375 0 -0.921875 0.25q-0.4375 0.234375 -0.8125 0.671875l0 7.0l-2.296875 0zm23.208618 0l-1.03125 0q-0.328125 0 -0.515625 -0.09375q-0.1875 -0.109375 -0.28125 -0.40625l-0.203125 -0.671875q-0.375 0.328125 -0.71875 0.578125q-0.34375 0.234375 -0.71875 0.40625q-0.375 0.171875 -0.796875 0.25q-0.421875 0.09375 -0.9375 0.09375q-0.609375 0 -1.125 -0.15625q-0.5 -0.171875 -0.875 -0.5q-0.359375 -0.328125 -0.578125 -0.8125q-0.203125 -0.484375 -0.203125 -1.125q0 -0.546875 0.28125 -1.078125q0.296875 -0.53125 0.953125 -0.953125q0.671875 -0.421875 1.765625 -0.703125q1.09375 -0.28125 2.734375 -0.3125l0 -0.5625q0 -0.953125 -0.40625 -1.40625q-0.40625 -0.46875 -1.1875 -0.46875q-0.546875 0 -0.921875 0.125q-0.375 0.125 -0.65625 0.296875q-0.265625 0.15625 -0.5 0.296875q-0.234375 0.125 -0.515625 0.125q-0.234375 0 -0.40625 -0.125q-0.171875 -0.125 -0.265625 -0.296875l-0.421875 -0.734375q1.65625 -1.515625 3.984375 -1.515625q0.84375 0 1.5 0.28125q0.65625 0.265625 1.109375 0.765625q0.453125 0.484375 0.6875 1.171875q0.25 0.671875 0.25 1.484375l0 6.046875zm-4.484375 -1.4375q0.359375 0 0.65625 -0.0625q0.296875 -0.0625 0.5625 -0.1875q0.265625 -0.140625 0.515625 -0.328125q0.25 -0.1875 0.5 -0.453125l0 -1.609375q-1.015625 0.03125 -1.6875 0.171875q-0.671875 0.125 -1.09375 0.328125q-0.40625 0.1875 -0.578125 0.453125q-0.171875 0.25 -0.171875 0.5625q0 0.609375 0.359375 0.875q0.359375 0.25 0.9375 0.25zm6.7508545 1.4375l0 -9.578125l1.40625 0q0.453125 0 0.59375 0.421875l0.15625 0.765625q0.28125 -0.296875 0.59375 -0.53125q0.328125 -0.25 0.6875 -0.421875q0.359375 -0.1875 0.765625 -0.28125q0.421875 -0.09375 0.90625 -0.09375q0.78125 0 1.390625 0.265625q0.609375 0.265625 1.015625 0.75q0.40625 0.46875 0.609375 1.140625q0.21875 0.671875 0.21875 1.46875l0 6.09375l-2.3125 0l0 -6.09375q0 -0.875 -0.40625 -1.34375q-0.40625 -0.484375 -1.21875 -0.484375q-0.59375 0 -1.125 0.265625q-0.515625 0.265625 -0.984375 0.734375l0 6.921875l-2.296875 0zm13.746704 0.15625q-1.234375 0 -1.90625 -0.703125q-0.671875 -0.71875 -0.671875 -1.953125l0 -5.34375l-0.96875 0q-0.1875 0 -0.328125 -0.125q-0.140625 -0.125 -0.140625 -0.359375l0 -0.921875l1.546875 -0.25l0.484375 -2.609375q0.03125 -0.1875 0.171875 -0.28125q0.140625 -0.109375 0.34375 -0.109375l1.1875 0l0 3.015625l2.515625 0l0 1.640625l-2.515625 0l0 5.1875q0 0.453125 0.21875 0.703125q0.234375 0.25 0.609375 0.25q0.203125 0 0.34375 -0.046875q0.15625 -0.0625 0.265625 -0.109375q0.109375 -0.0625 0.1875 -0.109375q0.078125 -0.0625 0.171875 -0.0625q0.09375 0 0.15625 0.0625q0.078125 0.046875 0.140625 0.15625l0.703125 1.109375q-0.515625 0.421875 -1.171875 0.640625q-0.640625 0.21875 -1.34375 0.21875zm6.5324707 -9.734375l0 9.578125l-2.3125 0l0 -9.578125l2.3125 0zm0.34375 -2.78125q0 0.296875 -0.125 0.5625q-0.125 0.265625 -0.328125 0.46875q-0.1875 0.1875 -0.46875 0.3125q-0.265625 0.109375 -0.578125 0.109375q-0.296875 0 -0.5625 -0.109375q-0.265625 -0.125 -0.46875 -0.3125q-0.1875 -0.203125 -0.3125 -0.46875q-0.109375 -0.265625 -0.109375 -0.5625q0 -0.3125 0.109375 -0.578125q0.125 -0.265625 0.3125 -0.453125q0.203125 -0.203125 0.46875 -0.3125q0.265625 -0.125 0.5625 -0.125q0.3125 0 0.578125 0.125q0.28125 0.109375 0.46875 0.3125q0.203125 0.1875 0.328125 0.453125q0.125 0.265625 0.125 0.578125zm7.930908 4.65625q-0.09375 0.140625 -0.203125 0.203125q-0.09375 0.0625 -0.25 0.0625q-0.171875 0 -0.359375 -0.09375q-0.1875 -0.09375 -0.4375 -0.203125q-0.25 -0.125 -0.578125 -0.21875q-0.328125 -0.09375 -0.765625 -0.09375q-0.671875 0 -1.0625 0.296875q-0.390625 0.28125 -0.390625 0.75q0 0.3125 0.1875 0.53125q0.203125 0.203125 0.53125 0.359375q0.34375 0.15625 0.75 0.28125q0.421875 0.125 0.859375 0.28125q0.453125 0.140625 0.859375 0.34375q0.421875 0.1875 0.75 0.484375q0.34375 0.28125 0.53125 0.703125q0.203125 0.40625 0.203125 0.984375q0 0.6875 -0.25 1.28125q-0.25 0.578125 -0.734375 1.0q-0.484375 0.421875 -1.203125 0.671875q-0.703125 0.234375 -1.625 0.234375q-0.5 0 -0.96875 -0.09375q-0.46875 -0.09375 -0.90625 -0.25q-0.4375 -0.15625 -0.8125 -0.375q-0.359375 -0.21875 -0.640625 -0.46875l0.53125 -0.875q0.109375 -0.15625 0.25 -0.234375q0.140625 -0.09375 0.34375 -0.09375q0.21875 0 0.40625 0.125q0.203125 0.125 0.453125 0.265625q0.25 0.140625 0.578125 0.265625q0.34375 0.109375 0.875 0.109375q0.40625 0 0.703125 -0.09375q0.296875 -0.09375 0.484375 -0.25q0.1875 -0.171875 0.265625 -0.375q0.09375 -0.203125 0.09375 -0.4375q0 -0.328125 -0.203125 -0.546875q-0.1875 -0.21875 -0.53125 -0.375q-0.328125 -0.15625 -0.75 -0.28125q-0.421875 -0.125 -0.875 -0.265625q-0.4375 -0.15625 -0.859375 -0.359375q-0.421875 -0.203125 -0.75 -0.5q-0.328125 -0.3125 -0.53125 -0.765625q-0.203125 -0.453125 -0.203125 -1.078125q0 -0.59375 0.234375 -1.125q0.234375 -0.53125 0.6875 -0.921875q0.453125 -0.40625 1.125 -0.640625q0.671875 -0.234375 1.5625 -0.234375q0.984375 0 1.796875 0.328125q0.8125 0.328125 1.359375 0.859375l-0.53125 0.828125zm8.15271 0q-0.09375 0.140625 -0.203125 0.203125q-0.09375 0.0625 -0.25 0.0625q-0.171875 0 -0.359375 -0.09375q-0.1875 -0.09375 -0.4375 -0.203125q-0.25 -0.125 -0.578125 -0.21875q-0.328125 -0.09375 -0.765625 -0.09375q-0.671875 0 -1.0625 0.296875q-0.390625 0.28125 -0.390625 0.75q0 0.3125 0.1875 0.53125q0.203125 0.203125 0.53125 0.359375q0.34375 0.15625 0.75 0.28125q0.421875 0.125 0.859375 0.28125q0.453125 0.140625 0.859375 0.34375q0.421875 0.1875 0.75 0.484375q0.34375 0.28125 0.53125 0.703125q0.203125 0.40625 0.203125 0.984375q0 0.6875 -0.25 1.28125q-0.25 0.578125 -0.734375 1.0q-0.484375 0.421875 -1.203125 0.671875q-0.703125 0.234375 -1.625 0.234375q-0.5 0 -0.96875 -0.09375q-0.46875 -0.09375 -0.90625 -0.25q-0.4375 -0.15625 -0.8125 -0.375q-0.359375 -0.21875 -0.640625 -0.46875l0.53125 -0.875q0.109375 -0.15625 0.25 -0.234375q0.140625 -0.09375 0.34375 -0.09375q0.21875 0 0.40625 0.125q0.203125 0.125 0.453125 0.265625q0.25 0.140625 0.578125 0.265625q0.34375 0.109375 0.875 0.109375q0.40625 0 0.703125 -0.09375q0.296875 -0.09375 0.484375 -0.25q0.1875 -0.171875 0.265625 -0.375q0.09375 -0.203125 0.09375 -0.4375q0 -0.328125 -0.203125 -0.546875q-0.1875 -0.21875 -0.53125 -0.375q-0.328125 -0.15625 -0.75 -0.28125q-0.421875 -0.125 -0.875 -0.265625q-0.4375 -0.15625 -0.859375 -0.359375q-0.421875 -0.203125 -0.75 -0.5q-0.328125 -0.3125 -0.53125 -0.765625q-0.203125 -0.453125 -0.203125 -1.078125q0 -0.59375 0.234375 -1.125q0.234375 -0.53125 0.6875 -0.921875q0.453125 -0.40625 1.125 -0.640625q0.671875 -0.234375 1.5625 -0.234375q0.984375 0 1.796875 0.328125q0.8125 0.328125 1.359375 0.859375l-0.53125 0.828125zm6.434082 -2.015625q0.90625 0 1.65625 0.296875q0.765625 0.28125 1.3125 0.84375q0.5625 0.546875 0.859375 1.359375q0.3125 0.796875 0.3125 1.84375q0 0.25 -0.03125 0.421875q-0.015625 0.171875 -0.078125 0.28125q-0.0625 0.09375 -0.171875 0.140625q-0.09375 0.03125 -0.25 0.03125l-5.921875 0q0.109375 1.484375 0.796875 2.171875q0.6875 0.6875 1.828125 0.6875q0.5625 0 0.96875 -0.125q0.40625 -0.140625 0.703125 -0.296875q0.3125 -0.15625 0.53125 -0.28125q0.234375 -0.140625 0.453125 -0.140625q0.140625 0 0.234375 0.0625q0.109375 0.046875 0.1875 0.15625l0.671875 0.84375q-0.390625 0.4375 -0.875 0.75q-0.46875 0.296875 -0.984375 0.484375q-0.515625 0.171875 -1.0625 0.25q-0.53125 0.078125 -1.03125 0.078125q-1.0 0 -1.859375 -0.328125q-0.859375 -0.328125 -1.5 -0.96875q-0.625 -0.65625 -0.984375 -1.609375q-0.359375 -0.96875 -0.359375 -2.21875q0 -0.984375 0.3125 -1.84375q0.3125 -0.875 0.90625 -1.5q0.59375 -0.640625 1.4375 -1.015625q0.859375 -0.375 1.9375 -0.375zm0.046875 1.65625q-1.015625 0 -1.578125 0.5625q-0.5625 0.5625 -0.734375 1.609375l4.328125 0q0 -0.4375 -0.125 -0.828125q-0.109375 -0.40625 -0.359375 -0.703125q-0.25 -0.296875 -0.640625 -0.46875q-0.375 -0.171875 -0.890625 -0.171875z" fill-rule="nonzero"/><path fill="#4a86e8" d="m778.5341 59.335957l45.543335 0l0 49.889767l-45.543335 0z" fill-rule="evenodd"/><path fill="#4a86e8" d="m824.07745 59.335957l45.543274 0l0 49.889767l-45.543274 0z" fill-rule="evenodd"/><path fill="#4a86e8" d="m869.6207 59.335957l45.543335 0l0 49.889767l-45.543335 0z" fill-rule="evenodd"/><path fill="#4a86e8" d="m915.16406 59.335957l45.543274 0l0 49.889767l-45.543274 0z" fill-rule="evenodd"/><path fill="#4a86e8" d="m960.70734 59.335957l45.543335 0l0 49.889767l-45.543335 0z" fill-rule="evenodd"/><path fill="#4a86e8" d="m1006.2507 59.335957l45.543274 0l0 49.889767l-45.543274 0z" fill-rule="evenodd"/><path fill="#4a86e8" d="m1051.794 59.335957l45.543335 0l0 49.889767l-45.543335 0z" fill-rule="evenodd"/><path fill="#4a86e8" d="m1097.3373 59.335957l45.543335 0l0 49.889767l-45.543335 0z" fill-rule="evenodd"/><path fill="#4a86e8" d="m1142.8806 59.335957l45.543213 0l0 49.889767l-45.543213 0z" fill-rule="evenodd"/><path fill="#4a86e8" d="m1188.4238 59.335957l45.543335 0l0 49.889767l-45.543335 0z" fill-rule="evenodd"/><path fill="#4a86e8" d="m1233.9672 59.335957l45.543335 0l0 49.889767l-45.543335 0z" fill-rule="evenodd"/><path fill="#4a86e8" d="m1279.5105 59.335957l45.543335 0l0 49.889767l-45.543335 0z" fill-rule="evenodd"/><path fill="#4a86e8" d="m1325.0538 59.335957l45.543335 0l0 49.889767l-45.543335 0z" fill-rule="evenodd"/><path fill="#4a86e8" d="m1370.5972 59.335957l45.543213 0l0 49.889767l-45.543213 0z" fill-rule="evenodd"/><path fill="#4a86e8" d="m1416.1404 59.335957l45.543335 0l0 49.889767l-45.543335 0z" fill-rule="evenodd"/><path fill="#4a86e8" d="m1461.6837 59.335957l45.543335 0l0 49.889767l-45.543335 0z" fill-rule="evenodd"/><path fill="#4a86e8" d="m1507.227 59.335957l45.543335 0l0 49.889767l-45.543335 0z" fill-rule="evenodd"/><path fill="#4a86e8" d="m1552.7704 59.335957l45.543213 0l0 49.889767l-45.543213 0z" fill-rule="evenodd"/><path fill="#4a86e8" d="m1598.3136 59.335957l45.543335 0l0 49.889767l-45.543335 0z" fill-rule="evenodd"/><path fill="#00ff00" d="m180.24016 59.33858l45.543304 0l0 49.889767l-45.543304 0z" fill-rule="evenodd"/><path fill="#00ff00" d="m225.78346 59.33858l45.54332 0l0 49.889767l-45.54332 0z" fill-rule="evenodd"/><path fill="#00ff00" d="m271.32678 59.33858l45.543304 0l0 49.889767l-45.543304 0z" fill-rule="evenodd"/><path fill="#00ff00" d="m134.69685 59.33858l45.543304 0l0 49.889767l-45.543304 0z" fill-rule="evenodd"/><path fill="#00ff00" d="m89.15354 59.33858l45.543312 0l0 49.889767l-45.543312 0z" fill-rule="evenodd"/><path fill="#000000" fill-opacity="0.0" d="m2965.1194 108.22179l0 0c0 4.1306915 -1.6408691 8.092201 -4.5617676 11.013046c-2.9208984 2.920845 -6.882324 4.5617523 -11.012939 4.5617523l-1153.2284 0c-8.601685 0 -15.574829 6.9730835 -15.574829 15.574799l0 0c0 -8.601715 -6.9730225 -15.574799 -15.574829 -15.574799l-1153.2283 0c-8.601685 0 -15.574768 -6.973076 -15.574768 -15.574799z" fill-rule="evenodd"/><path fill="#000000" fill-opacity="0.0" d="m2965.1194 108.22179l0 0c0 4.1306915 -1.6408691 8.092201 -4.5617676 11.013046c-2.9208984 2.920845 -6.882324 4.5617523 -11.012939 4.5617523l-1153.2284 0c-8.601685 0 -15.574829 6.9730835 -15.574829 15.574799l0 0c0 -8.601715 -6.9730225 -15.574799 -15.574829 -15.574799l-1153.2283 0c-8.601685 0 -15.574768 -6.973076 -15.574768 -15.574799" fill-rule="evenodd"/><path stroke="#000000" stroke-width="1.0" stroke-linejoin="round" stroke-linecap="butt" d="m2965.1194 108.22179l0 0c0 4.1306915 -1.6408691 8.092201 -4.5617676 11.013046c-2.9208984 2.920845 -6.882324 4.5617523 -11.012939 4.5617523l-1153.2284 0c-8.601685 0 -15.574829 6.9730835 -15.574829 15.574799l0 0c0 -8.601715 -6.9730225 -15.574799 -15.574829 -15.574799l-1153.2283 0c-8.601685 0 -15.574768 -6.973076 -15.574768 -15.574799" fill-rule="evenodd"/><path fill="#000000" fill-opacity="0.0" d="m596.3609 108.22441l0 0c0 4.1306915 -1.6409302 8.092209 -4.5617676 11.013046c-2.9208374 2.920845 -6.882324 4.5617523 -11.013062 4.5617523l-222.33069 0c-8.601715 0 -15.574799 6.9730835 -15.574799 15.574799l0 0c0 -8.601715 -6.9730835 -15.574799 -15.574799 -15.574799l-222.33072 0c-8.60173 0 -15.574806 -6.973076 -15.574806 -15.574799z" fill-rule="evenodd"/><path fill="#000000" fill-opacity="0.0" d="m596.3609 108.22441l0 0c0 4.1306915 -1.6409302 8.092209 -4.5617676 11.013046c-2.9208374 2.920845 -6.882324 4.5617523 -11.013062 4.5617523l-222.33069 0c-8.601715 0 -15.574799 6.9730835 -15.574799 15.574799l0 0c0 -8.601715 -6.9730835 -15.574799 -15.574799 -15.574799l-222.33072 0c-8.60173 0 -15.574806 -6.973076 -15.574806 -15.574799" fill-rule="evenodd"/><path stroke="#000000" stroke-width="1.0" stroke-linejoin="round" stroke-linecap="butt" d="m596.3609 108.22441l0 0c0 4.1306915 -1.6409302 8.092209 -4.5617676 11.013046c-2.9208374 2.920845 -6.882324 4.5617523 -11.013062 4.5617523l-222.33069 0c-8.601715 0 -15.574799 6.9730835 -15.574799 15.574799l0 0c0 -8.601715 -6.9730835 -15.574799 -15.574799 -15.574799l-222.33072 0c-8.60173 0 -15.574806 -6.973076 -15.574806 -15.574799" fill-rule="evenodd"/><path fill="#000000" fill-opacity="0.0" d="m592.4554 139.36876l2368.7559 0l0 42.015762l-2368.7559 0z" fill-rule="evenodd"/><path fill="#000000" d="m1757.8997 153.77313q0 0.5 -0.3125 0.8125q-0.3125 0.296875 -1.03125 0.296875l-3.71875 0l-0.484375 2.828125q0.921875 -0.1875 1.671875 -0.1875q1.0625 0 1.859375 0.3125q0.8125 0.3125 1.359375 0.875q0.5625 0.5625 0.84375 1.3125q0.28125 0.75 0.28125 1.625q0 1.0625 -0.390625 1.953125q-0.375 0.890625 -1.046875 1.515625q-0.671875 0.625 -1.59375 0.984375q-0.90625 0.34375 -1.984375 0.34375q-0.640625 0 -1.21875 -0.140625q-0.5625 -0.125 -1.0625 -0.34375q-0.5 -0.21875 -0.921875 -0.5q-0.421875 -0.296875 -0.765625 -0.609375l0.71875 -0.984375q0.21875 -0.3125 0.59375 -0.3125q0.234375 0 0.46875 0.15625q0.234375 0.140625 0.546875 0.328125q0.328125 0.171875 0.75 0.328125q0.421875 0.140625 1.015625 0.140625q0.625 0 1.109375 -0.203125q0.5 -0.203125 0.8125 -0.5625q0.328125 -0.375 0.484375 -0.890625q0.171875 -0.515625 0.171875 -1.109375q0 -1.09375 -0.640625 -1.71875q-0.640625 -0.625 -1.890625 -0.625q-0.96875 0 -1.96875 0.359375l-1.421875 -0.40625l1.109375 -6.546875l6.65625 0l0 0.96875zm7.2113037 -1.125q0.9375 0 1.703125 0.28125q0.78125 0.265625 1.328125 0.78125q0.5625 0.5 0.859375 1.21875q0.3125 0.703125 0.3125 1.5625q0 0.75 -0.21875 1.390625q-0.21875 0.625 -0.59375 1.203125q-0.359375 0.578125 -0.859375 1.125q-0.484375 0.53125 -1.03125 1.09375l-3.046875 3.109375q0.453125 -0.125 0.875 -0.1875q0.4375 -0.078125 0.828125 -0.078125l3.453125 0q0.375 0 0.59375 0.21875q0.21875 0.203125 0.21875 0.546875l0 1.375l-9.25 0l0 -0.765625q0 -0.234375 0.09375 -0.484375q0.109375 -0.25 0.3125 -0.46875l4.09375 -4.109375q0.515625 -0.515625 0.921875 -0.984375q0.40625 -0.484375 0.671875 -0.953125q0.28125 -0.46875 0.421875 -0.9375q0.15625 -0.484375 0.15625 -1.015625q0 -0.484375 -0.140625 -0.84375q-0.140625 -0.375 -0.40625 -0.625q-0.25 -0.265625 -0.609375 -0.390625q-0.359375 -0.125 -0.8125 -0.125q-0.828125 0 -1.375 0.421875q-0.53125 0.421875 -0.734375 1.125q-0.109375 0.359375 -0.3125 0.515625q-0.203125 0.15625 -0.53125 0.15625q-0.140625 0 -0.296875 -0.03125l-1.21875 -0.21875q0.140625 -0.96875 0.53125 -1.6875q0.40625 -0.734375 1.0 -1.21875q0.609375 -0.5 1.390625 -0.75q0.78125 -0.25 1.671875 -0.25zm10.077515 13.640625l0 -13.859375l2.296875 0l0 5.46875q0.5625 -0.609375 1.28125 -0.96875q0.71875 -0.359375 1.6875 -0.359375q0.78125 0 1.421875 0.328125q0.65625 0.3125 1.125 0.9375q0.46875 0.609375 0.71875 1.515625q0.265625 0.90625 0.265625 2.078125q0 1.078125 -0.296875 2.0q-0.28125 0.90625 -0.828125 1.578125q-0.53125 0.671875 -1.296875 1.046875q-0.75 0.375 -1.6875 0.375q-0.4375 0 -0.8125 -0.09375q-0.359375 -0.078125 -0.65625 -0.234375q-0.296875 -0.171875 -0.5625 -0.390625q-0.25 -0.234375 -0.484375 -0.515625l-0.09375 0.640625q-0.0625 0.25 -0.203125 0.359375q-0.125 0.09375 -0.359375 0.09375l-1.515625 0zm4.46875 -7.921875q-0.71875 0 -1.234375 0.296875q-0.5 0.296875 -0.9375 0.859375l0 4.28125q0.390625 0.484375 0.84375 0.6875q0.46875 0.1875 1.015625 0.1875q0.515625 0 0.9375 -0.1875q0.421875 -0.203125 0.71875 -0.609375q0.296875 -0.40625 0.453125 -1.015625q0.15625 -0.609375 0.15625 -1.4375q0 -0.84375 -0.140625 -1.421875q-0.125 -0.578125 -0.390625 -0.9375q-0.25 -0.375 -0.609375 -0.53125q-0.359375 -0.171875 -0.8125 -0.171875zm8.587158 -1.65625l0 9.578125l-2.3125 0l0 -9.578125l2.3125 0zm0.34375 -2.78125q0 0.296875 -0.125 0.5625q-0.125 0.265625 -0.328125 0.46875q-0.1875 0.1875 -0.46875 0.3125q-0.265625 0.109375 -0.578125 0.109375q-0.296875 0 -0.5625 -0.109375q-0.265625 -0.125 -0.46875 -0.3125q-0.1875 -0.203125 -0.3125 -0.46875q-0.109375 -0.265625 -0.109375 -0.5625q0 -0.3125 0.109375 -0.578125q0.125 -0.265625 0.3125 -0.453125q0.203125 -0.203125 0.46875 -0.3125q0.265625 -0.125 0.5625 -0.125q0.3125 0 0.578125 0.125q0.28125 0.109375 0.46875 0.3125q0.203125 0.1875 0.328125 0.453125q0.125 0.265625 0.125 0.578125zm5.399658 12.515625q-1.234375 0 -1.90625 -0.703125q-0.671875 -0.71875 -0.671875 -1.953125l0 -5.34375l-0.96875 0q-0.1875 0 -0.328125 -0.125q-0.140625 -0.125 -0.140625 -0.359375l0 -0.921875l1.546875 -0.25l0.484375 -2.609375q0.03125 -0.1875 0.171875 -0.28125q0.140625 -0.109375 0.34375 -0.109375l1.1875 0l0 3.015625l2.515625 0l0 1.640625l-2.515625 0l0 5.1875q0 0.453125 0.21875 0.703125q0.234375 0.25 0.609375 0.25q0.203125 0 0.34375 -0.046875q0.15625 -0.0625 0.265625 -0.109375q0.109375 -0.0625 0.1875 -0.109375q0.078125 -0.0625 0.171875 -0.0625q0.09375 0 0.15625 0.0625q0.078125 0.046875 0.140625 0.15625l0.703125 1.109375q-0.515625 0.421875 -1.171875 0.640625q-0.640625 0.21875 -1.34375 0.21875zm9.751221 -7.859375q-0.09375 0.140625 -0.203125 0.203125q-0.09375 0.0625 -0.25 0.0625q-0.171875 0 -0.359375 -0.09375q-0.1875 -0.09375 -0.4375 -0.203125q-0.25 -0.125 -0.578125 -0.21875q-0.328125 -0.09375 -0.765625 -0.09375q-0.671875 0 -1.0625 0.296875q-0.390625 0.28125 -0.390625 0.75q0 0.3125 0.1875 0.53125q0.203125 0.203125 0.53125 0.359375q0.34375 0.15625 0.75 0.28125q0.421875 0.125 0.859375 0.28125q0.453125 0.140625 0.859375 0.34375q0.421875 0.1875 0.75 0.484375q0.34375 0.28125 0.53125 0.703125q0.203125 0.40625 0.203125 0.984375q0 0.6875 -0.25 1.28125q-0.25 0.578125 -0.734375 1.0q-0.484375 0.421875 -1.203125 0.671875q-0.703125 0.234375 -1.625 0.234375q-0.5 0 -0.96875 -0.09375q-0.46875 -0.09375 -0.90625 -0.25q-0.4375 -0.15625 -0.8125 -0.375q-0.359375 -0.21875 -0.640625 -0.46875l0.53125 -0.875q0.109375 -0.15625 0.25 -0.234375q0.140625 -0.09375 0.34375 -0.09375q0.21875 0 0.40625 0.125q0.203125 0.125 0.453125 0.265625q0.25 0.140625 0.578125 0.265625q0.34375 0.109375 0.875 0.109375q0.40625 0 0.703125 -0.09375q0.296875 -0.09375 0.484375 -0.25q0.1875 -0.171875 0.265625 -0.375q0.09375 -0.203125 0.09375 -0.4375q0 -0.328125 -0.203125 -0.546875q-0.1875 -0.21875 -0.53125 -0.375q-0.328125 -0.15625 -0.75 -0.28125q-0.421875 -0.125 -0.875 -0.265625q-0.4375 -0.15625 -0.859375 -0.359375q-0.421875 -0.203125 -0.75 -0.5q-0.328125 -0.3125 -0.53125 -0.765625q-0.203125 -0.453125 -0.203125 -1.078125q0 -0.59375 0.234375 -1.125q0.234375 -0.53125 0.6875 -0.921875q0.453125 -0.40625 1.125 -0.640625q0.671875 -0.234375 1.5625 -0.234375q0.984375 0 1.796875 0.328125q0.8125 0.328125 1.359375 0.859375l-0.53125 0.828125z" fill-rule="nonzero"/><path fill="#000000" fill-opacity="0.0" d="m88.81759 139.37138l506.9606 0l0 42.015762l-506.9606 0z" fill-rule="evenodd"/><path fill="#000000" d="m316.66122 164.57263l2.734375 0l0 -7.875q0 -0.453125 0.015625 -0.953125l-1.9375 1.625q-0.125 0.09375 -0.25 0.140625q-0.125 0.03125 -0.25 0.03125q-0.171875 0 -0.328125 -0.078125q-0.15625 -0.078125 -0.234375 -0.1875l-0.71875 -1.0l4.109375 -3.484375l1.890625 0l0 11.78125l2.421875 0l0 1.71875l-7.453125 0l0 -1.71875zm10.820648 0l2.734375 0l0 -7.875q0 -0.453125 0.015625 -0.953125l-1.9375 1.625q-0.125 0.09375 -0.25 0.140625q-0.125 0.03125 -0.25 0.03125q-0.171875 0 -0.328125 -0.078125q-0.15625 -0.078125 -0.234375 -0.1875l-0.71875 -1.0l4.109375 -3.484375l1.890625 0l0 11.78125l2.421875 0l0 1.71875l-7.453125 0l0 -1.71875zm13.171295 1.71875l0 -13.859375l2.296875 0l0 5.46875q0.5625 -0.609375 1.28125 -0.96875q0.71875 -0.359375 1.6875 -0.359375q0.78125 0 1.421875 0.328125q0.65625 0.3125 1.125 0.9375q0.46875 0.609375 0.71875 1.515625q0.265625 0.90625 0.265625 2.078125q0 1.078125 -0.296875 2.0q-0.28125 0.90625 -0.828125 1.578125q-0.53125 0.671875 -1.296875 1.046875q-0.75 0.375 -1.6875 0.375q-0.4375 0 -0.8125 -0.09375q-0.359375 -0.078125 -0.65625 -0.234375q-0.296875 -0.171875 -0.5625 -0.390625q-0.25 -0.234375 -0.484375 -0.515625l-0.09375 0.640625q-0.0625 0.25 -0.203125 0.359375q-0.125 0.09375 -0.359375 0.09375l-1.515625 0zm4.46875 -7.921875q-0.71875 0 -1.234375 0.296875q-0.5 0.296875 -0.9375 0.859375l0 4.28125q0.390625 0.484375 0.84375 0.6875q0.46875 0.1875 1.015625 0.1875q0.515625 0 0.9375 -0.1875q0.421875 -0.203125 0.71875 -0.609375q0.296875 -0.40625 0.453125 -1.015625q0.15625 -0.609375 0.15625 -1.4375q0 -0.84375 -0.140625 -1.421875q-0.125 -0.578125 -0.390625 -0.9375q-0.25 -0.375 -0.609375 -0.53125q-0.359375 -0.171875 -0.8125 -0.171875zm8.587189 -1.65625l0 9.578125l-2.3125 0l0 -9.578125l2.3125 0zm0.34375 -2.78125q0 0.296875 -0.125 0.5625q-0.125 0.265625 -0.328125 0.46875q-0.1875 0.1875 -0.46875 0.3125q-0.265625 0.109375 -0.578125 0.109375q-0.296875 0 -0.5625 -0.109375q-0.265625 -0.125 -0.46875 -0.3125q-0.1875 -0.203125 -0.3125 -0.46875q-0.109375 -0.265625 -0.109375 -0.5625q0 -0.3125 0.109375 -0.578125q0.125 -0.265625 0.3125 -0.453125q0.203125 -0.203125 0.46875 -0.3125q0.265625 -0.125 0.5625 -0.125q0.3125 0 0.578125 0.125q0.28125 0.109375 0.46875 0.3125q0.203125 0.1875 0.328125 0.453125q0.125 0.265625 0.125 0.578125zm5.399597 12.515625q-1.234375 0 -1.90625 -0.703125q-0.671875 -0.71875 -0.671875 -1.953125l0 -5.34375l-0.96875 0q-0.1875 0 -0.328125 -0.125q-0.140625 -0.125 -0.140625 -0.359375l0 -0.921875l1.546875 -0.25l0.484375 -2.609375q0.03125 -0.1875 0.171875 -0.28125q0.140625 -0.109375 0.34375 -0.109375l1.1875 0l0 3.015625l2.515625 0l0 1.640625l-2.515625 0l0 5.1875q0 0.453125 0.21875 0.703125q0.234375 0.25 0.609375 0.25q0.203125 0 0.34375 -0.046875q0.15625 -0.0625 0.265625 -0.109375q0.109375 -0.0625 0.1875 -0.109375q0.078125 -0.0625 0.171875 -0.0625q0.09375 0 0.15625 0.0625q0.078125 0.046875 0.140625 0.15625l0.703125 1.109375q-0.515625 0.421875 -1.171875 0.640625q-0.640625 0.21875 -1.34375 0.21875zm9.751221 -7.859375q-0.09375 0.140625 -0.203125 0.203125q-0.09375 0.0625 -0.25 0.0625q-0.171875 0 -0.359375 -0.09375q-0.1875 -0.09375 -0.4375 -0.203125q-0.25 -0.125 -0.578125 -0.21875q-0.328125 -0.09375 -0.765625 -0.09375q-0.671875 0 -1.0625 0.296875q-0.390625 0.28125 -0.390625 0.75q0 0.3125 0.1875 0.53125q0.203125 0.203125 0.53125 0.359375q0.34375 0.15625 0.75 0.28125q0.421875 0.125 0.859375 0.28125q0.453125 0.140625 0.859375 0.34375q0.421875 0.1875 0.75 0.484375q0.34375 0.28125 0.53125 0.703125q0.203125 0.40625 0.203125 0.984375q0 0.6875 -0.25 1.28125q-0.25 0.578125 -0.734375 1.0q-0.484375 0.421875 -1.203125 0.671875q-0.703125 0.234375 -1.625 0.234375q-0.5 0 -0.96875 -0.09375q-0.46875 -0.09375 -0.90625 -0.25q-0.4375 -0.15625 -0.8125 -0.375q-0.359375 -0.21875 -0.640625 -0.46875l0.53125 -0.875q0.109375 -0.15625 0.25 -0.234375q0.140625 -0.09375 0.34375 -0.09375q0.21875 0 0.40625 0.125q0.203125 0.125 0.453125 0.265625q0.25 0.140625 0.578125 0.265625q0.34375 0.109375 0.875 0.109375q0.40625 0 0.703125 -0.09375q0.296875 -0.09375 0.484375 -0.25q0.1875 -0.171875 0.265625 -0.375q0.09375 -0.203125 0.09375 -0.4375q0 -0.328125 -0.203125 -0.546875q-0.1875 -0.21875 -0.53125 -0.375q-0.328125 -0.15625 -0.75 -0.28125q-0.421875 -0.125 -0.875 -0.265625q-0.4375 -0.15625 -0.859375 -0.359375q-0.421875 -0.203125 -0.75 -0.5q-0.328125 -0.3125 -0.53125 -0.765625q-0.203125 -0.453125 -0.203125 -1.078125q0 -0.59375 0.234375 -1.125q0.234375 -0.53125 0.6875 -0.921875q0.453125 -0.40625 1.125 -0.640625q0.671875 -0.234375 1.5625 -0.234375q0.984375 0 1.796875 0.328125q0.8125 0.328125 1.359375 0.859375l-0.53125 0.828125z" fill-rule="nonzero"/><path fill="#000000" fill-opacity="0.0" d="m30.85433 139.37007l71.055115 0l0 42.015762l-71.055115 0z" fill-rule="evenodd"/><path fill="#000000" d="m50.231926 164.57132l2.734375 0l0 -7.875q0 -0.453125 0.015625 -0.953125l-1.9375 1.625q-0.125 0.09375 -0.25 0.140625q-0.125 0.03125 -0.25 0.03125q-0.171875 0 -0.328125 -0.078125q-0.15625 -0.078125 -0.234375 -0.1875l-0.71875 -1.0l4.109375 -3.484375l1.890625 0l0 11.78125l2.421875 0l0 1.71875l-7.453125 0l0 -1.71875zm13.171295 1.71875l0 -13.859375l2.296875 0l0 5.46875q0.5625 -0.609375 1.28125 -0.96875q0.71875 -0.359375 1.6875 -0.359375q0.78125 0 1.421875 0.328125q0.65625 0.3125 1.125 0.9375q0.46875 0.609375 0.71875 1.515625q0.265625 0.90625 0.265625 2.078125q0 1.078125 -0.296875 2.0q-0.28125 0.90625 -0.828125 1.578125q-0.53125 0.671875 -1.296875 1.046875q-0.75 0.375 -1.6875 0.375q-0.4375 0 -0.8125 -0.09375q-0.359375 -0.078125 -0.65625 -0.234375q-0.296875 -0.171875 -0.5625 -0.390625q-0.25 -0.234375 -0.484375 -0.515625l-0.09375 0.640625q-0.0625 0.25 -0.203125 0.359375q-0.125 0.09375 -0.359375 0.09375l-1.515625 0zm4.46875 -7.921875q-0.71875 0 -1.234375 0.296875q-0.5 0.296875 -0.9375 0.859375l0 4.28125q0.390625 0.484375 0.84375 0.6875q0.46875 0.1875 1.015625 0.1875q0.515625 0 0.9375 -0.1875q0.421875 -0.203125 0.71875 -0.609375q0.296875 -0.40625 0.453125 -1.015625q0.15625 -0.609375 0.15625 -1.4375q0 -0.84375 -0.140625 -1.421875q-0.125 -0.578125 -0.390625 -0.9375q-0.25 -0.375 -0.609375 -0.53125q-0.359375 -0.171875 -0.8125 -0.171875zm8.587189 -1.65625l0 9.578125l-2.3125 0l0 -9.578125l2.3125 0zm0.34375 -2.78125q0 0.296875 -0.125 0.5625q-0.125 0.265625 -0.328125 0.46875q-0.1875 0.1875 -0.46875 0.3125q-0.265625 0.109375 -0.578125 0.109375q-0.296875 0 -0.5625 -0.109375q-0.265625 -0.125 -0.46875 -0.3125q-0.1875 -0.203125 -0.3125 -0.46875q-0.109375 -0.265625 -0.109375 -0.5625q0 -0.3125 0.109375 -0.578125q0.125 -0.265625 0.3125 -0.453125q0.203125 -0.203125 0.46875 -0.3125q0.265625 -0.125 0.5625 -0.125q0.3125 0 0.578125 0.125q0.28125 0.109375 0.46875 0.3125q0.203125 0.1875 0.328125 0.453125q0.125 0.265625 0.125 0.578125zm5.399597 12.515625q-1.234375 0 -1.90625 -0.703125q-0.671875 -0.71875 -0.671875 -1.953125l0 -5.34375l-0.96875 0q-0.1875 0 -0.328125 -0.125q-0.140625 -0.125 -0.140625 -0.359375l0 -0.921875l1.546875 -0.25l0.484375 -2.609375q0.03125 -0.1875 0.171875 -0.28125q0.140625 -0.109375 0.34375 -0.109375l1.1875 0l0 3.015625l2.515625 0l0 1.640625l-2.515625 0l0 5.1875q0 0.453125 0.21875 0.703125q0.234375 0.25 0.609375 0.25q0.203125 0 0.34375 -0.046875q0.15625 -0.0625 0.265625 -0.109375q0.109375 -0.0625 0.1875 -0.109375q0.078125 -0.0625 0.171875 -0.0625q0.09375 0 0.15625 0.0625q0.078125 0.046875 0.140625 0.15625l0.703125 1.109375q-0.515625 0.421875 -1.171875 0.640625q-0.640625 0.21875 -1.34375 0.21875z" fill-rule="nonzero"/><path fill="#000000" fill-opacity="0.0" d="m87.63123 109.22966l0 0c0 8.32341 -4.9248657 15.070862 -11.0 15.070862l0 0l0 0c-6.0751343 0 -11.0 6.747467 -11.0 15.070862l0 0c0 -8.323395 -4.9248657 -15.070862 -11.0 -15.070862l0 0c-6.0751305 0 -11.0 -6.747452 -11.0 -15.070862z" fill-rule="evenodd"/><path fill="#000000" fill-opacity="0.0" d="m87.63123 109.22966l0 0c0 8.32341 -4.9248657 15.070862 -11.0 15.070862l0 0l0 0c-6.0751343 0 -11.0 6.747467 -11.0 15.070862l0 0c0 -8.323395 -4.9248657 -15.070862 -11.0 -15.070862l0 0c-6.0751305 0 -11.0 -6.747452 -11.0 -15.070862" fill-rule="evenodd"/><path stroke="#000000" stroke-width="1.0" stroke-linejoin="round" stroke-linecap="butt" d="m87.63123 109.22966l0 0c0 8.32341 -4.9248657 15.070862 -11.0 15.070862l0 0l0 0c-6.0751343 0 -11.0 6.747467 -11.0 15.070862l0 0c0 -8.323395 -4.9248657 -15.070862 -11.0 -15.070862l0 0c-6.0751305 0 -11.0 -6.747452 -11.0 -15.070862" fill-rule="evenodd"/><path fill="#4a86e8" d="m1643.3583 59.335957l45.543335 0l0 49.889767l-45.543335 0z" fill-rule="evenodd"/><path fill="#4a86e8" d="m1688.9016 59.335957l45.543213 0l0 49.889767l-45.543213 0z" fill-rule="evenodd"/><path fill="#4a86e8" d="m1734.4448 59.335957l45.543335 0l0 49.889767l-45.543335 0z" fill-rule="evenodd"/><path fill="#4a86e8" d="m1779.9882 59.335957l45.543335 0l0 49.889767l-45.543335 0z" fill-rule="evenodd"/><path fill="#4a86e8" d="m1825.5315 59.335957l45.543335 0l0 49.889767l-45.543335 0z" fill-rule="evenodd"/><path fill="#4a86e8" d="m1871.0748 59.335957l45.543335 0l0 49.889767l-45.543335 0z" fill-rule="evenodd"/><path fill="#4a86e8" d="m1916.6182 59.335957l45.543213 0l0 49.889767l-45.543213 0z" fill-rule="evenodd"/><path fill="#4a86e8" d="m1962.1614 59.335957l45.543335 0l0 49.889767l-45.543335 0z" fill-rule="evenodd"/><path fill="#4a86e8" d="m2007.7047 59.335957l45.543335 0l0 49.889767l-45.543335 0z" fill-rule="evenodd"/><path fill="#4a86e8" d="m2053.248 59.335957l45.543213 0l0 49.889767l-45.543213 0z" fill-rule="evenodd"/><path fill="#4a86e8" d="m2098.7913 59.335957l45.543457 0l0 49.889767l-45.543457 0z" fill-rule="evenodd"/><path fill="#4a86e8" d="m2144.3347 59.335957l45.543213 0l0 49.889767l-45.543213 0z" fill-rule="evenodd"/><path fill="#4a86e8" d="m2189.878 59.335957l45.543213 0l0 49.889767l-45.543213 0z" fill-rule="evenodd"/><path fill="#4a86e8" d="m2235.4211 59.335957l45.543457 0l0 49.889767l-45.543457 0z" fill-rule="evenodd"/><path fill="#4a86e8" d="m2280.9646 59.335957l45.543213 0l0 49.889767l-45.543213 0z" fill-rule="evenodd"/><path fill="#4a86e8" d="m2326.5078 59.335957l45.543457 0l0 49.889767l-45.543457 0z" fill-rule="evenodd"/><path fill="#4a86e8" d="m2372.0513 59.335957l45.543213 0l0 49.889767l-45.543213 0z" fill-rule="evenodd"/><path fill="#4a86e8" d="m2417.5945 59.335957l45.543213 0l0 49.889767l-45.543213 0z" fill-rule="evenodd"/><path fill="#4a86e8" d="m2463.1377 59.335957l45.543457 0l0 49.889767l-45.543457 0z" fill-rule="evenodd"/><path fill="#4a86e8" d="m2508.6812 59.335957l45.543213 0l0 49.889767l-45.543213 0z" fill-rule="evenodd"/><path fill="#4a86e8" d="m2554.2244 59.335957l45.543457 0l0 49.889767l-45.543457 0z" fill-rule="evenodd"/><path fill="#4a86e8" d="m2599.7678 59.335957l45.543213 0l0 49.889767l-45.543213 0z" fill-rule="evenodd"/><path fill="#4a86e8" d="m2645.311 59.335957l45.543213 0l0 49.889767l-45.543213 0z" fill-rule="evenodd"/><path fill="#4a86e8" d="m2690.8542 59.335957l45.543457 0l0 49.889767l-45.543457 0z" fill-rule="evenodd"/><path fill="#4a86e8" d="m2736.3977 59.335957l45.543213 0l0 49.889767l-45.543213 0z" fill-rule="evenodd"/><path fill="#4a86e8" d="m2781.941 59.335957l45.543213 0l0 49.889767l-45.543213 0z" fill-rule="evenodd"/><path fill="#4a86e8" d="m2827.4841 59.335957l45.543457 0l0 49.889767l-45.543457 0z" fill-rule="evenodd"/><path fill="#4a86e8" d="m2873.0276 59.335957l45.543213 0l0 49.889767l-45.543213 0z" fill-rule="evenodd"/><path fill="#4a86e8" d="m2918.5708 59.335957l45.543457 0l0 49.889767l-45.543457 0z" fill-rule="evenodd"/><path fill="#00ff00" d="m455.45276 59.33858l45.543304 0l0 49.889767l-45.543304 0z" fill-rule="evenodd"/><path fill="#00ff00" d="m500.99606 59.33858l45.543304 0l0 49.889767l-45.543304 0z" fill-rule="evenodd"/><path fill="#00ff00" d="m546.53937 59.33858l45.543335 0l0 49.889767l-45.543335 0z" fill-rule="evenodd"/></g></svg>