<svg version="1.1" viewBox="0.0 0.0 1520.0 202.0" fill="none" stroke="none" stroke-linecap="square" stroke-miterlimit="10" xmlns:xlink="http://www.w3.org/1999/xlink" xmlns="http://www.w3.org/2000/svg"><clipPath id="p.0"><path d="m0 0l1520.0 0l0 202.0l-1520.0 0l0 -202.0z" clip-rule="nonzero"/></clipPath><g clip-path="url(#p.0)"><path fill="#000000" fill-opacity="0.0" d="m0 0l1520.0 0l0 202.0l-1520.0 0z" fill-rule="evenodd"/><path fill="#ff9900" d="m29.63517 64.63123l45.543304 0l0 49.889763l-45.543304 0z" fill-rule="evenodd"/><path fill="#00ff00" d="m302.89502 64.63123l45.543304 0l0 49.889763l-45.543304 0z" fill-rule="evenodd"/><path fill="#00ff00" d="m348.43832 64.63123l45.543304 0l0 49.889763l-45.543304 0z" fill-rule="evenodd"/><path fill="#00ff00" d="m393.98163 64.63123l45.543304 0l0 49.889763l-45.543304 0z" fill-rule="evenodd"/><path fill="#4a86e8" d="m439.52493 64.63123l45.543304 0l0 49.889763l-45.543304 0z" fill-rule="evenodd"/><path fill="#4a86e8" d="m485.06824 64.63123l45.543335 0l0 49.889763l-45.543335 0z" fill-rule="evenodd"/><path fill="#4a86e8" d="m530.6116 64.63123l45.543274 0l0 49.889763l-45.543274 0z" fill-rule="evenodd"/><path fill="#4a86e8" d="m576.15485 64.63123l45.543335 0l0 49.889763l-45.543335 0z" fill-rule="evenodd"/><path fill="#000000" fill-opacity="0.0" d="m16.879265 22.615486l71.055115 0l0 42.015747l-71.055115 0z" fill-rule="evenodd"/><path fill="#000000" d="m37.592525 41.83236q-0.09375 0.140625 -0.203125 0.203125q-0.09375 0.0625 -0.25 0.0625q-0.171875 0 -0.359375 -0.09375q-0.1875 -0.09375 -0.4375 -0.203125q-0.25 -0.125 -0.578125 -0.21875q-0.328125 -0.09375 -0.765625 -0.09375q-0.671875 0 -1.0625 0.296875q-0.390625 0.28125 -0.390625 0.75q0 0.3125 0.1875 0.53125q0.203125 0.203125 0.53125 0.359375q0.34375 0.15625 0.75 0.28125q0.421875 0.125 0.859375 0.28125q0.453125 0.140625 0.859375 0.34375q0.421875 0.1875 0.75 0.484375q0.34375 0.28125 0.53125 0.703125q0.203125 0.40625 0.203125 0.984375q0 0.6875 -0.25 1.28125q-0.25 0.578125 -0.734375 1.0q-0.484375 0.421875 -1.203125 0.671875q-0.703125 0.234375 -1.625 0.234375q-0.5 0 -0.96875 -0.09375q-0.46875 -0.09375 -0.90625 -0.25q-0.4375 -0.15625 -0.8125019 -0.375q-0.359375 -0.21875 -0.640625 -0.46875l0.53125 -0.875q0.109375 -0.15625 0.25 -0.234375q0.140625 -0.09375 0.3437519 -0.09375q0.21875 0 0.40625 0.125q0.203125 0.125 0.453125 0.265625q0.25 0.140625 0.578125 0.265625q0.34375 0.109375 0.875 0.109375q0.40625 0 0.703125 -0.09375q0.296875 -0.09375 0.484375 -0.25q0.1875 -0.171875 0.265625 -0.375q0.09375 -0.203125 0.09375 -0.4375q0 -0.328125 -0.203125 -0.546875q-0.1875 -0.21875 -0.53125 -0.375q-0.328125 -0.15625 -0.75 -0.28125q-0.421875 -0.125 -0.875 -0.265625q-0.4375 -0.15625 -0.859375 -0.359375q-0.421875 -0.203125 -0.75 -0.5q-0.3281269 -0.3125 -0.5312519 -0.765625q-0.203125 -0.453125 -0.203125 -1.078125q0 -0.59375 0.234375 -1.125q0.234375 -0.53125 0.6875019 -0.921875q0.453125 -0.40625 1.125 -0.640625q0.671875 -0.234375 1.5625 -0.234375q0.984375 0 1.796875 0.328125q0.8125 0.328125 1.359375 0.859375l-0.53125 0.828125zm4.9340363 -1.875l0 9.578125l-2.3125 0l0 -9.578125l2.3125 0zm0.34375 -2.78125q0 0.296875 -0.125 0.5625q-0.125 0.265625 -0.328125 0.46875q-0.1875 0.1875 -0.46875 0.3125q-0.265625 0.109375 -0.578125 0.109375q-0.296875 0 -0.5625 -0.109375q-0.265625 -0.125 -0.46875 -0.3125q-0.1875 -0.203125 -0.3125 -0.46875q-0.109375 -0.265625 -0.109375 -0.5625q0 -0.3125 0.109375 -0.578125q0.125 -0.265625 0.3125 -0.453125q0.203125 -0.203125 0.46875 -0.3125q0.265625 -0.125 0.5625 -0.125q0.3125 0 0.578125 0.125q0.28125 0.109375 0.46875 0.3125q0.203125 0.1875 0.328125 0.453125q0.125 0.265625 0.125 0.578125zm5.571472 2.625q0.6093712 0 1.1406212 0.125q0.546875 0.125 1.0 0.359375l2.75 0l0 0.859375q0 0.21875 -0.109375 0.34375q-0.109375 0.125 -0.375 0.171875l-0.859375 0.15625q0.09375 0.234375 0.140625 0.515625q0.046875 0.265625 0.046875 0.5625q0 0.703125 -0.28125 1.28125q-0.28125 0.578125 -0.78125 0.984375q-0.5 0.390625 -1.1875 0.609375q-0.6875 0.21875 -1.4843712 0.21875q-0.546875 0 -1.0625 -0.09375q-0.4375 0.265625 -0.4375 0.59375q0 0.296875 0.265625 0.4375q0.265625 0.125 0.6875 0.1875q0.4375 0.046875 0.9843712 0.0625q0.5625 0.015625 1.140625 0.0625q0.578125 0.046875 1.125 0.171875q0.546875 0.109375 0.984375 0.359375q0.4375 0.25 0.703125 0.6875q0.265625 0.4375 0.265625 1.109375q0 0.640625 -0.3125 1.234375q-0.3125 0.59375 -0.90625 1.0625q-0.59375 0.46875 -1.453125 0.75q-0.859375 0.296875 -1.9531212 0.296875q-1.09375 0 -1.90625 -0.21875q-0.796875 -0.203125 -1.328125 -0.5625q-0.515625 -0.34375 -0.78125 -0.8125q-0.265625 -0.453125 -0.265625 -0.9375q0 -0.671875 0.40625 -1.125q0.421875 -0.46875 1.140625 -0.734375q-0.34375 -0.203125 -0.5625 -0.515625q-0.21875 -0.328125 -0.21875 -0.859375q0 -0.21875 0.078125 -0.4375q0.078125 -0.234375 0.21875 -0.453125q0.15625 -0.21875 0.390625 -0.421875q0.234375 -0.203125 0.546875 -0.359375q-0.71875 -0.390625 -1.140625 -1.046875q-0.40625 -0.65625 -0.40625 -1.53125q0 -0.703125 0.28125 -1.28125q0.28125 -0.578125 0.78125 -0.984375q0.515625 -0.40625 1.203125 -0.609375q0.703125 -0.21875 1.53125 -0.21875zm2.5312462 10.15625q0 -0.265625 -0.171875 -0.4375q-0.171875 -0.1875 -0.46875 -0.28125q-0.28125 -0.109375 -0.671875 -0.15625q-0.390625 -0.046875 -0.8281212 -0.0625q-0.421875 -0.03125 -0.890625 -0.046875q-0.453125 -0.03125 -0.890625 -0.078125q-0.390625 0.21875 -0.625 0.515625q-0.234375 0.28125 -0.234375 0.671875q0 0.25 0.125 0.46875q0.125 0.21875 0.390625 0.375q0.28125 0.15625 0.71875 0.234375q0.4375 0.09375 1.078125 0.09375q0.6406212 0 1.1093712 -0.09375q0.46875 -0.09375 0.765625 -0.265625q0.3125 -0.171875 0.453125 -0.421875q0.140625 -0.234375 0.140625 -0.515625zm-2.5312462 -5.4375q0.421875 0 0.7343712 -0.109375q0.328125 -0.125 0.53125 -0.328125q0.21875 -0.203125 0.3125 -0.484375q0.109375 -0.296875 0.109375 -0.640625q0 -0.71875 -0.421875 -1.125q-0.421875 -0.421875 -1.2656212 -0.421875q-0.859375 0 -1.28125 0.421875q-0.421875 0.40625 -0.421875 1.125q0 0.328125 0.109375 0.625q0.109375 0.28125 0.3125 0.5q0.21875 0.203125 0.53125 0.328125q0.328125 0.109375 0.75 0.109375zm6.3421135 5.015625l0 -9.578125l1.40625 0q0.453125 0 0.59375 0.421875l0.15625 0.765625q0.28125 -0.296875 0.59375 -0.53125q0.328125 -0.25 0.6875 -0.421875q0.359375 -0.1875 0.765625 -0.28125q0.421875 -0.09375 0.90625 -0.09375q0.78125 0 1.390625 0.265625q0.609375 0.265625 1.015625 0.75q0.40625 0.46875 0.609375 1.140625q0.21875 0.671875 0.21875 1.46875l0 6.09375l-2.3125 0l0 -6.09375q0 -0.875 -0.40625 -1.34375q-0.40625 -0.484375 -1.21875 -0.484375q-0.59375 0 -1.125 0.265625q-0.515625 0.265625 -0.984375 0.734375l0 6.921875l-2.296875 0zm14.559204 -9.71875q0.90625 0 1.65625 0.296875q0.765625 0.28125 1.3125 0.84375q0.5625 0.546875 0.859375 1.359375q0.3125 0.796875 0.3125 1.84375q0 0.25 -0.03125 0.421875q-0.015625 0.171875 -0.078125 0.28125q-0.0625 0.09375 -0.171875 0.140625q-0.09375 0.03125 -0.25 0.03125l-5.921875 0q0.109375 1.484375 0.796875 2.171875q0.6875 0.6875 1.828125 0.6875q0.5625 0 0.96875 -0.125q0.40625 -0.140625 0.703125 -0.296875q0.3125 -0.15625 0.53125 -0.28125q0.234375 -0.140625 0.453125 -0.140625q0.140625 0 0.234375 0.0625q0.109375 0.046875 0.1875 0.15625l0.671875 0.84375q-0.390625 0.4375 -0.875 0.75q-0.46875 0.296875 -0.984375 0.484375q-0.515625 0.171875 -1.0625 0.25q-0.53125 0.078125 -1.03125 0.078125q-1.0 0 -1.859375 -0.328125q-0.859375 -0.328125 -1.5 -0.96875q-0.625 -0.65625 -0.984375 -1.609375q-0.359375 -0.96875 -0.359375 -2.21875q0 -0.984375 0.3125 -1.84375q0.3125 -0.875 0.90625 -1.5q0.59375 -0.640625 1.4375 -1.015625q0.859375 -0.375 1.9375 -0.375zm0.046875 1.65625q-1.015625 0 -1.578125 0.5625q-0.5625 0.5625 -0.734375 1.609375l4.328125 0q0 -0.4375 -0.125 -0.828125q-0.109375 -0.40625 -0.359375 -0.703125q-0.25 -0.296875 -0.640625 -0.46875q-0.375 -0.171875 -0.890625 -0.171875z" fill-rule="nonzero"/><path fill="#000000" fill-opacity="0.0" d="m75.178474 22.616798l364.34647 0l0 42.015747l-364.34647 0z" fill-rule="evenodd"/><path fill="#000000" d="m224.34535 39.818047q0.90625 0 1.65625 0.296875q0.765625 0.28125 1.3125 0.84375q0.5625 0.546875 0.859375 1.359375q0.3125 0.796875 0.3125 1.84375q0 0.25 -0.03125 0.421875q-0.015625 0.171875 -0.078125 0.28125q-0.0625 0.09375 -0.171875 0.140625q-0.09375 0.03125 -0.25 0.03125l-5.921875 0q0.109375 1.484375 0.796875 2.171875q0.6875 0.6875 1.828125 0.6875q0.5625 0 0.96875 -0.125q0.40625 -0.140625 0.703125 -0.296875q0.3125 -0.15625 0.53125 -0.28125q0.234375 -0.140625 0.453125 -0.140625q0.140625 0 0.234375 0.0625q0.109375 0.046875 0.1875 0.15625l0.671875 0.84375q-0.390625 0.4375 -0.875 0.75q-0.46875 0.296875 -0.984375 0.484375q-0.515625 0.171875 -1.0625 0.25q-0.53125 0.078125 -1.03125 0.078125q-1.0 0 -1.859375 -0.328125q-0.859375 -0.328125 -1.5 -0.96875q-0.625 -0.65625 -0.984375 -1.609375q-0.359375 -0.96875 -0.359375 -2.21875q0 -0.984375 0.3125 -1.84375q0.3125 -0.875 0.90625 -1.5q0.59375 -0.640625 1.4375 -1.015625q0.859375 -0.375 1.9375 -0.375zm0.046875 1.65625q-1.015625 0 -1.578125 0.5625q-0.5625 0.5625 -0.734375 1.609375l4.328125 0q0 -0.4375 -0.125 -0.828125q-0.109375 -0.40625 -0.359375 -0.703125q-0.25 -0.296875 -0.640625 -0.46875q-0.375 -0.171875 -0.890625 -0.171875zm7.6773987 3.125l-3.140625 -4.640625l2.21875 0q0.25 0 0.359375 0.078125q0.125 0.0625 0.21875 0.234375l2.015625 3.1875q0.046875 -0.15625 0.109375 -0.3125q0.078125 -0.15625 0.171875 -0.3125l1.625 -2.515625q0.109375 -0.1875 0.21875 -0.265625q0.125 -0.09375 0.3125 -0.09375l2.109375 0l-3.15625 4.546875l3.28125 5.03125l-2.21875 0q-0.25 0 -0.40625 -0.125q-0.140625 -0.140625 -0.25 -0.296875l-2.03125 -3.34375q-0.09375 0.34375 -0.234375 0.5625l-1.796875 2.78125q-0.09375 0.15625 -0.25 0.296875q-0.140625 0.125 -0.375 0.125l-2.0625 0l3.28125 -4.9375zm7.8087463 8.0625l0 -12.703125l1.40625 0q0.21875 0 0.375 0.109375q0.171875 0.109375 0.21875 0.3125l0.1875 0.890625q0.578125 -0.65625 1.328125 -1.0625q0.75 -0.421875 1.75 -0.421875q0.78125 0 1.421875 0.328125q0.65625 0.328125 1.125 0.953125q0.484375 0.609375 0.734375 1.53125q0.25 0.90625 0.25 2.078125q0 1.078125 -0.296875 2.0q-0.28125 0.90625 -0.8125 1.578125q-0.53125 0.671875 -1.296875 1.046875q-0.765625 0.375 -1.703125 0.375q-0.8125 0 -1.375 -0.25q-0.5625 -0.25 -1.015625 -0.6875l0 3.921875l-2.296875 0zm4.46875 -11.046875q-0.71875 0 -1.234375 0.296875q-0.5 0.296875 -0.9375 0.859375l0 4.28125q0.390625 0.484375 0.84375 0.6875q0.46875 0.1875 1.0 0.1875q0.53125 0 0.953125 -0.1875q0.421875 -0.203125 0.71875 -0.609375q0.296875 -0.40625 0.453125 -1.015625q0.15625 -0.609375 0.15625 -1.4375q0 -0.84375 -0.140625 -1.421875q-0.125 -0.578125 -0.375 -0.9375q-0.25 -0.375 -0.609375 -0.53125q-0.359375 -0.171875 -0.828125 -0.171875zm10.159485 -1.796875q1.078125 0 1.9531097 0.34375q0.875 0.34375 1.484375 0.984375q0.609375 0.625 0.9375 1.546875q0.34375 0.90625 0.34375 2.046875q0 1.125 -0.34375 2.046875q-0.328125 0.90625 -0.9375 1.5625q-0.609375 0.640625 -1.484375 0.984375q-0.87498474 0.34375 -1.9531097 0.34375q-1.0625 0 -1.953125 -0.34375q-0.875 -0.34375 -1.5 -0.984375q-0.609375 -0.65625 -0.953125 -1.5625q-0.34375 -0.921875 -0.34375 -2.046875q0 -1.140625 0.34375 -2.046875q0.34375 -0.921875 0.953125 -1.546875q0.625 -0.640625 1.5 -0.984375q0.890625 -0.34375 1.953125 -0.34375zm0 8.09375q1.203125 0 1.7656097 -0.796875q0.578125 -0.8125 0.578125 -2.359375q0 -1.546875 -0.578125 -2.359375q-0.56248474 -0.8125 -1.7656097 -0.8125q-1.203125 0 -1.78125 0.8125q-0.578125 0.8125 -0.578125 2.359375q0 1.53125 0.578125 2.34375q0.578125 0.8125 1.78125 0.8125zm12.199814 -6.078125q-0.09375 0.140625 -0.203125 0.203125q-0.09375 0.0625 -0.25 0.0625q-0.171875 0 -0.359375 -0.09375q-0.1875 -0.09375 -0.4375 -0.203125q-0.25 -0.125 -0.578125 -0.21875q-0.328125 -0.09375 -0.765625 -0.09375q-0.671875 0 -1.0625 0.296875q-0.390625 0.28125 -0.390625 0.75q0 0.3125 0.1875 0.53125q0.203125 0.203125 0.53125 0.359375q0.34375 0.15625 0.75 0.28125q0.421875 0.125 0.859375 0.28125q0.453125 0.140625 0.859375 0.34375q0.421875 0.1875 0.75 0.484375q0.34375 0.28125 0.53125 0.703125q0.203125 0.40625 0.203125 0.984375q0 0.6875 -0.25 1.28125q-0.25 0.578125 -0.734375 1.0q-0.484375 0.421875 -1.203125 0.671875q-0.703125 0.234375 -1.625 0.234375q-0.5 0 -0.96875 -0.09375q-0.46875 -0.09375 -0.90625 -0.25q-0.4375 -0.15625 -0.8125 -0.375q-0.359375 -0.21875 -0.640625 -0.46875l0.53125 -0.875q0.109375 -0.15625 0.25 -0.234375q0.140625 -0.09375 0.34375 -0.09375q0.21875 0 0.40625 0.125q0.203125 0.125 0.453125 0.265625q0.25 0.140625 0.578125 0.265625q0.34375 0.109375 0.875 0.109375q0.40625 0 0.703125 -0.09375q0.296875 -0.09375 0.484375 -0.25q0.1875 -0.171875 0.265625 -0.375q0.09375 -0.203125 0.09375 -0.4375q0 -0.328125 -0.203125 -0.546875q-0.1875 -0.21875 -0.53125 -0.375q-0.328125 -0.15625 -0.75 -0.28125q-0.421875 -0.125 -0.875 -0.265625q-0.4375 -0.15625 -0.859375 -0.359375q-0.421875 -0.203125 -0.75 -0.5q-0.328125 -0.3125 -0.53125 -0.765625q-0.203125 -0.453125 -0.203125 -1.078125q0 -0.59375 0.234375 -1.125q0.234375 -0.53125 0.6875 -0.921875q0.453125 -0.40625 1.125 -0.640625q0.671875 -0.234375 1.5625 -0.234375q0.984375 0 1.796875 0.328125q0.8125 0.328125 1.359375 0.859375l-0.53125 0.828125zm9.9809265 7.703125l-1.03125 0q-0.328125 0 -0.515625 -0.09375q-0.1875 -0.109375 -0.28125 -0.40625l-0.203125 -0.671875q-0.375 0.328125 -0.71875 0.578125q-0.34375 0.234375 -0.71875 0.40625q-0.375 0.171875 -0.796875 0.25q-0.421875 0.09375 -0.9375 0.09375q-0.609375 0 -1.125 -0.15625q-0.5 -0.171875 -0.875 -0.5q-0.359375 -0.328125 -0.578125 -0.8125q-0.203125 -0.484375 -0.203125 -1.125q0 -0.546875 0.28125 -1.078125q0.296875 -0.53125 0.953125 -0.953125q0.671875 -0.421875 1.765625 -0.703125q1.09375 -0.28125 2.734375 -0.3125l0 -0.5625q0 -0.953125 -0.40625 -1.40625q-0.40625 -0.46875 -1.1875 -0.46875q-0.546875 0 -0.921875 0.125q-0.375 0.125 -0.65625 0.296875q-0.265625 0.15625 -0.5 0.296875q-0.234375 0.125 -0.515625 0.125q-0.234375 0 -0.40625 -0.125q-0.171875 -0.125 -0.265625 -0.296875l-0.421875 -0.734375q1.65625 -1.515625 3.984375 -1.515625q0.84375 0 1.5 0.28125q0.65625 0.265625 1.109375 0.765625q0.453125 0.484375 0.6875 1.171875q0.25 0.671875 0.25 1.484375l0 6.046875zm-4.484375 -1.4375q0.359375 0 0.65625 -0.0625q0.296875 -0.0625 0.5625 -0.1875q0.265625 -0.140625 0.515625 -0.328125q0.25 -0.1875 0.5 -0.453125l0 -1.609375q-1.015625 0.03125 -1.6875 0.171875q-0.671875 0.125 -1.09375 0.328125q-0.40625 0.1875 -0.578125 0.453125q-0.171875 0.25 -0.171875 0.5625q0 0.609375 0.359375 0.875q0.359375 0.25 0.9375 0.25zm6.7509155 1.4375l0 -9.578125l1.40625 0q0.453125 0 0.59375 0.421875l0.15625 0.765625q0.28125 -0.296875 0.59375 -0.53125q0.328125 -0.25 0.6875 -0.421875q0.359375 -0.1875 0.765625 -0.28125q0.421875 -0.09375 0.90625 -0.09375q0.78125 0 1.390625 0.265625q0.609375 0.265625 1.015625 0.75q0.40625 0.46875 0.609375 1.140625q0.21875 0.671875 0.21875 1.46875l0 6.09375l-2.3125 0l0 -6.09375q0 -0.875 -0.40625 -1.34375q-0.40625 -0.484375 -1.21875 -0.484375q-0.59375 0 -1.125 0.265625q-0.515625 0.265625 -0.984375 0.734375l0 6.921875l-2.296875 0zm13.746704 0.15625q-1.234375 0 -1.90625 -0.703125q-0.671875 -0.71875 -0.671875 -1.953125l0 -5.34375l-0.96875 0q-0.1875 0 -0.328125 -0.125q-0.140625 -0.125 -0.140625 -0.359375l0 -0.921875l1.546875 -0.25l0.484375 -2.609375q0.03125 -0.1875 0.171875 -0.28125q0.140625 -0.109375 0.34375 -0.109375l1.1875 0l0 3.015625l2.515625 0l0 1.640625l-2.515625 0l0 5.1875q0 0.453125 0.21875 0.703125q0.234375 0.25 0.609375 0.25q0.203125 0 0.34375 -0.046875q0.15625 -0.0625 0.265625 -0.109375q0.109375 -0.0625 0.1875 -0.109375q0.078125 -0.0625 0.171875 -0.0625q0.09375 0 0.15625 0.0625q0.078125 0.046875 0.140625 0.15625l0.703125 1.109375q-0.515625 0.421875 -1.171875 0.640625q-0.640625 0.21875 -1.34375 0.21875z" fill-rule="nonzero"/><path fill="#000000" fill-opacity="0.0" d="m439.52493 22.616798l1047.4961 0l0 42.015747l-1047.4961 0z" fill-rule="evenodd"/><path fill="#000000" d="m927.1902 49.536797l0 -9.578125l1.40625 0q0.453125 0 0.59375 0.421875l0.140625 0.71875q0.25 -0.28125 0.515625 -0.515625q0.28125 -0.234375 0.59375 -0.40625q0.3125 -0.171875 0.671875 -0.265625q0.359375 -0.09375 0.796875 -0.09375q0.90625 0 1.484375 0.5q0.578125 0.484375 0.875 1.296875q0.21875 -0.484375 0.546875 -0.8125q0.34375 -0.34375 0.75 -0.5625q0.40625 -0.21875 0.84375 -0.3125q0.453125 -0.109375 0.921875 -0.109375q0.78125 0 1.390625 0.25q0.625 0.234375 1.046875 0.703125q0.421875 0.46875 0.640625 1.140625q0.21875 0.671875 0.21875 1.53125l0 6.09375l-2.296875 0l0 -6.09375q0 -0.90625 -0.40625 -1.359375q-0.40625 -0.46875 -1.171875 -0.46875q-0.359375 0 -0.671875 0.125q-0.296875 0.109375 -0.53125 0.34375q-0.21875 0.21875 -0.359375 0.578125q-0.125 0.34375 -0.125 0.78125l0 6.09375l-2.3125 0l0 -6.09375q0 -0.953125 -0.390625 -1.390625q-0.375 -0.4375 -1.140625 -0.4375q-0.484375 0 -0.921875 0.25q-0.4375 0.234375 -0.8125 0.671875l0 7.0l-2.296875 0zm23.208557 0l-1.03125 0q-0.328125 0 -0.515625 -0.09375q-0.1875 -0.109375 -0.28125 -0.40625l-0.203125 -0.671875q-0.375 0.328125 -0.71875 0.578125q-0.34375 0.234375 -0.71875 0.40625q-0.375 0.171875 -0.796875 0.25q-0.421875 0.09375 -0.9375 0.09375q-0.609375 0 -1.125 -0.15625q-0.5 -0.171875 -0.875 -0.5q-0.359375 -0.328125 -0.578125 -0.8125q-0.203125 -0.484375 -0.203125 -1.125q0 -0.546875 0.28125 -1.078125q0.296875 -0.53125 0.953125 -0.953125q0.671875 -0.421875 1.765625 -0.703125q1.09375 -0.28125 2.734375 -0.3125l0 -0.5625q0 -0.953125 -0.40625 -1.40625q-0.40625 -0.46875 -1.1875 -0.46875q-0.546875 0 -0.921875 0.125q-0.375 0.125 -0.65625 0.296875q-0.265625 0.15625 -0.5 0.296875q-0.234375 0.125 -0.515625 0.125q-0.234375 0 -0.40625 -0.125q-0.171875 -0.125 -0.265625 -0.296875l-0.421875 -0.734375q1.65625 -1.515625 3.984375 -1.515625q0.84375 0 1.5 0.28125q0.65625 0.265625 1.109375 0.765625q0.453125 0.484375 0.6875 1.171875q0.25 0.671875 0.25 1.484375l0 6.046875zm-4.484375 -1.4375q0.359375 0 0.65625 -0.0625q0.296875 -0.0625 0.5625 -0.1875q0.265625 -0.140625 0.515625 -0.328125q0.25 -0.1875 0.5 -0.453125l0 -1.609375q-1.015625 0.03125 -1.6875 0.171875q-0.671875 0.125 -1.09375 0.328125q-0.40625 0.1875 -0.578125 0.453125q-0.171875 0.25 -0.171875 0.5625q0 0.609375 0.359375 0.875q0.359375 0.25 0.9375 0.25zm6.7509766 1.4375l0 -9.578125l1.40625 0q0.453125 0 0.59375 0.421875l0.15625 0.765625q0.28125 -0.296875 0.59375 -0.53125q0.328125 -0.25 0.6875 -0.421875q0.359375 -0.1875 0.765625 -0.28125q0.421875 -0.09375 0.90625 -0.09375q0.78125 0 1.390625 0.265625q0.609375 0.265625 1.015625 0.75q0.40625 0.46875 0.609375 1.140625q0.21875 0.671875 0.21875 1.46875l0 6.09375l-2.3125 0l0 -6.09375q0 -0.875 -0.40625 -1.34375q-0.40625 -0.484375 -1.21875 -0.484375q-0.59375 0 -1.125 0.265625q-0.515625 0.265625 -0.984375 0.734375l0 6.921875l-2.296875 0zm13.746704 0.15625q-1.234375 0 -1.90625 -0.703125q-0.671875 -0.71875 -0.671875 -1.953125l0 -5.34375l-0.96875 0q-0.1875 0 -0.328125 -0.125q-0.140625 -0.125 -0.140625 -0.359375l0 -0.921875l1.546875 -0.25l0.484375 -2.609375q0.03125 -0.1875 0.171875 -0.28125q0.140625 -0.109375 0.34375 -0.109375l1.1875 0l0 3.015625l2.515625 0l0 1.640625l-2.515625 0l0 5.1875q0 0.453125 0.21875 0.703125q0.234375 0.25 0.609375 0.25q0.203125 0 0.34375 -0.046875q0.15625 -0.0625 0.265625 -0.109375q0.109375 -0.0625 0.1875 -0.109375q0.078125 -0.0625 0.171875 -0.0625q0.09375 0 0.15625 0.0625q0.078125 0.046875 0.140625 0.15625l0.703125 1.109375q-0.515625 0.421875 -1.171875 0.640625q-0.640625 0.21875 -1.34375 0.21875zm6.5324707 -9.734375l0 9.578125l-2.3125 0l0 -9.578125l2.3125 0zm0.34375 -2.78125q0 0.296875 -0.125 0.5625q-0.125 0.265625 -0.328125 0.46875q-0.1875 0.1875 -0.46875 0.3125q-0.265625 0.109375 -0.578125 0.109375q-0.296875 0 -0.5625 -0.109375q-0.265625 -0.125 -0.46875 -0.3125q-0.1875 -0.203125 -0.3125 -0.46875q-0.109375 -0.265625 -0.109375 -0.5625q0 -0.3125 0.109375 -0.578125q0.125 -0.265625 0.3125 -0.453125q0.203125 -0.203125 0.46875 -0.3125q0.265625 -0.125 0.5625 -0.125q0.3125 0 0.578125 0.125q0.28125 0.109375 0.46875 0.3125q0.203125 0.1875 0.328125 0.453125q0.125 0.265625 0.125 0.578125zm7.930786 4.65625q-0.09375 0.140625 -0.203125 0.203125q-0.09375 0.0625 -0.25 0.0625q-0.171875 0 -0.359375 -0.09375q-0.1875 -0.09375 -0.4375 -0.203125q-0.25 -0.125 -0.578125 -0.21875q-0.328125 -0.09375 -0.765625 -0.09375q-0.671875 0 -1.0625 0.296875q-0.390625 0.28125 -0.390625 0.75q0 0.3125 0.1875 0.53125q0.203125 0.203125 0.53125 0.359375q0.34375 0.15625 0.75 0.28125q0.421875 0.125 0.859375 0.28125q0.453125 0.140625 0.859375 0.34375q0.421875 0.1875 0.75 0.484375q0.34375 0.28125 0.53125 0.703125q0.203125 0.40625 0.203125 0.984375q0 0.6875 -0.25 1.28125q-0.25 0.578125 -0.734375 1.0q-0.484375 0.421875 -1.203125 0.671875q-0.703125 0.234375 -1.625 0.234375q-0.5 0 -0.96875 -0.09375q-0.46875 -0.09375 -0.90625 -0.25q-0.4375 -0.15625 -0.8125 -0.375q-0.359375 -0.21875 -0.640625 -0.46875l0.53125 -0.875q0.109375 -0.15625 0.25 -0.234375q0.140625 -0.09375 0.34375 -0.09375q0.21875 0 0.40625 0.125q0.203125 0.125 0.453125 0.265625q0.25 0.140625 0.578125 0.265625q0.34375 0.109375 0.875 0.109375q0.40625 0 0.703125 -0.09375q0.296875 -0.09375 0.484375 -0.25q0.1875 -0.171875 0.265625 -0.375q0.09375 -0.203125 0.09375 -0.4375q0 -0.328125 -0.203125 -0.546875q-0.1875 -0.21875 -0.53125 -0.375q-0.328125 -0.15625 -0.75 -0.28125q-0.421875 -0.125 -0.875 -0.265625q-0.4375 -0.15625 -0.859375 -0.359375q-0.421875 -0.203125 -0.75 -0.5q-0.328125 -0.3125 -0.53125 -0.765625q-0.203125 -0.453125 -0.203125 -1.078125q0 -0.59375 0.234375 -1.125q0.234375 -0.53125 0.6875 -0.921875q0.453125 -0.40625 1.125 -0.640625q0.671875 -0.234375 1.5625 -0.234375q0.984375 0 1.796875 0.328125q0.8125 0.328125 1.359375 0.859375l-0.53125 0.828125zm8.152832 0q-0.09375 0.140625 -0.203125 0.203125q-0.09375 0.0625 -0.25 0.0625q-0.171875 0 -0.359375 -0.09375q-0.1875 -0.09375 -0.4375 -0.203125q-0.25 -0.125 -0.578125 -0.21875q-0.328125 -0.09375 -0.765625 -0.09375q-0.671875 0 -1.0625 0.296875q-0.390625 0.28125 -0.390625 0.75q0 0.3125 0.1875 0.53125q0.203125 0.203125 0.53125 0.359375q0.34375 0.15625 0.75 0.28125q0.421875 0.125 0.859375 0.28125q0.453125 0.140625 0.859375 0.34375q0.421875 0.1875 0.75 0.484375q0.34375 0.28125 0.53125 0.703125q0.203125 0.40625 0.203125 0.984375q0 0.6875 -0.25 1.28125q-0.25 0.578125 -0.734375 1.0q-0.484375 0.421875 -1.203125 0.671875q-0.703125 0.234375 -1.625 0.234375q-0.5 0 -0.96875 -0.09375q-0.46875 -0.09375 -0.90625 -0.25q-0.4375 -0.15625 -0.8125 -0.375q-0.359375 -0.21875 -0.640625 -0.46875l0.53125 -0.875q0.109375 -0.15625 0.25 -0.234375q0.140625 -0.09375 0.34375 -0.09375q0.21875 0 0.40625 0.125q0.203125 0.125 0.453125 0.265625q0.25 0.140625 0.578125 0.265625q0.34375 0.109375 0.875 0.109375q0.40625 0 0.703125 -0.09375q0.296875 -0.09375 0.484375 -0.25q0.1875 -0.171875 0.265625 -0.375q0.09375 -0.203125 0.09375 -0.4375q0 -0.328125 -0.203125 -0.546875q-0.1875 -0.21875 -0.53125 -0.375q-0.328125 -0.15625 -0.75 -0.28125q-0.421875 -0.125 -0.875 -0.265625q-0.4375 -0.15625 -0.859375 -0.359375q-0.421875 -0.203125 -0.75 -0.5q-0.328125 -0.3125 -0.53125 -0.765625q-0.203125 -0.453125 -0.203125 -1.078125q0 -0.59375 0.234375 -1.125q0.234375 -0.53125 0.6875 -0.921875q0.453125 -0.40625 1.125 -0.640625q0.671875 -0.234375 1.5625 -0.234375q0.984375 0 1.796875 0.328125q0.8125 0.328125 1.359375 0.859375l-0.53125 0.828125zm6.434021 -2.015625q0.90625 0 1.65625 0.296875q0.765625 0.28125 1.3125 0.84375q0.5625 0.546875 0.859375 1.359375q0.3125 0.796875 0.3125 1.84375q0 0.25 -0.03125 0.421875q-0.015625 0.171875 -0.078125 0.28125q-0.0625 0.09375 -0.171875 0.140625q-0.09375 0.03125 -0.25 0.03125l-5.921875 0q0.109375 1.484375 0.796875 2.171875q0.6875 0.6875 1.828125 0.6875q0.5625 0 0.96875 -0.125q0.40625 -0.140625 0.703125 -0.296875q0.3125 -0.15625 0.53125 -0.28125q0.234375 -0.140625 0.453125 -0.140625q0.140625 0 0.234375 0.0625q0.109375 0.046875 0.1875 0.15625l0.671875 0.84375q-0.390625 0.4375 -0.875 0.75q-0.46875 0.296875 -0.984375 0.484375q-0.515625 0.171875 -1.0625 0.25q-0.53125 0.078125 -1.03125 0.078125q-1.0 0 -1.859375 -0.328125q-0.859375 -0.328125 -1.5 -0.96875q-0.625 -0.65625 -0.984375 -1.609375q-0.359375 -0.96875 -0.359375 -2.21875q0 -0.984375 0.3125 -1.84375q0.3125 -0.875 0.90625 -1.5q0.59375 -0.640625 1.4375 -1.015625q0.859375 -0.375 1.9375 -0.375zm0.046875 1.65625q-1.015625 0 -1.578125 0.5625q-0.5625 0.5625 -0.734375 1.609375l4.328125 0q0 -0.4375 -0.125 -0.828125q-0.109375 -0.40625 -0.359375 -0.703125q-0.25 -0.296875 -0.640625 -0.46875q-0.375 -0.171875 -0.890625 -0.171875z" fill-rule="nonzero"/><path fill="#4a86e8" d="m621.6982 64.63123l45.543274 0l0 49.889763l-45.543274 0z" fill-rule="evenodd"/><path fill="#4a86e8" d="m667.24146 64.63123l45.543335 0l0 49.889763l-45.543335 0z" fill-rule="evenodd"/><path fill="#4a86e8" d="m712.7848 64.63123l45.543274 0l0 49.889763l-45.543274 0z" fill-rule="evenodd"/><path fill="#4a86e8" d="m758.32806 64.63123l45.543335 0l0 49.889763l-45.543335 0z" fill-rule="evenodd"/><path fill="#4a86e8" d="m803.8714 64.63123l45.543274 0l0 49.889763l-45.543274 0z" fill-rule="evenodd"/><path fill="#4a86e8" d="m849.4147 64.63123l45.543335 0l0 49.889763l-45.543335 0z" fill-rule="evenodd"/><path fill="#4a86e8" d="m894.958 64.63123l45.543335 0l0 49.889763l-45.543335 0z" fill-rule="evenodd"/><path fill="#4a86e8" d="m940.50134 64.63123l45.543274 0l0 49.889763l-45.543274 0z" fill-rule="evenodd"/><path fill="#4a86e8" d="m986.0446 64.63123l45.543274 0l0 49.889763l-45.543274 0z" fill-rule="evenodd"/><path fill="#4a86e8" d="m1031.5879 64.63123l45.543335 0l0 49.889763l-45.543335 0z" fill-rule="evenodd"/><path fill="#4a86e8" d="m1077.1312 64.63123l45.543335 0l0 49.889763l-45.543335 0z" fill-rule="evenodd"/><path fill="#4a86e8" d="m1122.6746 64.63123l45.543335 0l0 49.889763l-45.543335 0z" fill-rule="evenodd"/><path fill="#4a86e8" d="m1168.2179 64.63123l45.543213 0l0 49.889763l-45.543213 0z" fill-rule="evenodd"/><path fill="#4a86e8" d="m1213.7611 64.63123l45.543335 0l0 49.889763l-45.543335 0z" fill-rule="evenodd"/><path fill="#4a86e8" d="m1259.3044 64.63123l45.543335 0l0 49.889763l-45.543335 0z" fill-rule="evenodd"/><path fill="#4a86e8" d="m1304.8478 64.63123l45.543335 0l0 49.889763l-45.543335 0z" fill-rule="evenodd"/><path fill="#4a86e8" d="m1350.3911 64.63123l45.543213 0l0 49.889763l-45.543213 0z" fill-rule="evenodd"/><path fill="#4a86e8" d="m1395.9343 64.63123l45.543335 0l0 49.889763l-45.543335 0z" fill-rule="evenodd"/><path fill="#4a86e8" d="m1441.4777 64.63123l45.543335 0l0 49.889763l-45.543335 0z" fill-rule="evenodd"/><path fill="#00ff00" d="m166.26509 64.63123l45.543304 0l0 49.889763l-45.543304 0z" fill-rule="evenodd"/><path fill="#00ff00" d="m211.8084 64.63123l45.54332 0l0 49.889763l-45.54332 0z" fill-rule="evenodd"/><path fill="#00ff00" d="m257.3517 64.63123l45.543304 0l0 49.889763l-45.543304 0z" fill-rule="evenodd"/><path fill="#00ff00" d="m120.72179 64.63123l45.543304 0l0 49.889763l-45.543304 0z" fill-rule="evenodd"/><path fill="#00ff00" d="m75.178474 64.63123l45.543312 0l0 49.889763l-45.543312 0z" fill-rule="evenodd"/><path fill="#000000" fill-opacity="0.0" d="m1486.5197 114.52231l0 0c0 3.9970398 -1.5877686 7.8303757 -4.4140625 10.656715c-2.826416 2.826332 -6.65979 4.4141464 -10.656738 4.4141464l-493.35437 0c-8.323425 0 -15.070862 6.747467 -15.070862 15.070877l0 0c0 -8.32341 -6.7474365 -15.070877 -15.070862 -15.070877l-493.35434 0c-8.323395 0 -15.070862 -6.747452 -15.070862 -15.070862z" fill-rule="evenodd"/><path fill="#000000" fill-opacity="0.0" d="m1486.5197 114.52231l0 0c0 3.9970398 -1.5877686 7.8303757 -4.4140625 10.656715c-2.826416 2.826332 -6.65979 4.4141464 -10.656738 4.4141464l-493.35437 0c-8.323425 0 -15.070862 6.747467 -15.070862 15.070877l0 0c0 -8.32341 -6.7474365 -15.070877 -15.070862 -15.070877l-493.35434 0c-8.323395 0 -15.070862 -6.747452 -15.070862 -15.070862" fill-rule="evenodd"/><path stroke="#000000" stroke-width="1.0" stroke-linejoin="round" stroke-linecap="butt" d="m1486.5197 114.52231l0 0c0 3.9970398 -1.5877686 7.8303757 -4.4140625 10.656715c-2.826416 2.826332 -6.65979 4.4141464 -10.656738 4.4141464l-493.35437 0c-8.323425 0 -15.070862 6.747467 -15.070862 15.070877l0 0c0 -8.32341 -6.7474365 -15.070877 -15.070862 -15.070877l-493.35434 0c-8.323395 0 -15.070862 -6.747452 -15.070862 -15.070862" fill-rule="evenodd"/><path fill="#000000" fill-opacity="0.0" d="m438.59055 114.52231l0 0c0 3.9970398 -1.5877991 7.8303757 -4.414154 10.656715c-2.8263245 2.826332 -6.659668 4.4141464 -10.656708 4.4141464l-151.43307 0c-8.323395 0 -15.070862 6.747467 -15.070862 15.070877l0 0c0 -8.32341 -6.747452 -15.070877 -15.070862 -15.070877l-151.43307 0c-8.32341 0 -15.070862 -6.747452 -15.070862 -15.070862z" fill-rule="evenodd"/><path fill="#000000" fill-opacity="0.0" d="m438.59055 114.52231l0 0c0 3.9970398 -1.5877991 7.8303757 -4.414154 10.656715c-2.8263245 2.826332 -6.659668 4.4141464 -10.656708 4.4141464l-151.43307 0c-8.323395 0 -15.070862 6.747467 -15.070862 15.070877l0 0c0 -8.32341 -6.747452 -15.070877 -15.070862 -15.070877l-151.43307 0c-8.32341 0 -15.070862 -6.747452 -15.070862 -15.070862" fill-rule="evenodd"/><path stroke="#000000" stroke-width="1.0" stroke-linejoin="round" stroke-linecap="butt" d="m438.59055 114.52231l0 0c0 3.9970398 -1.5877991 7.8303757 -4.414154 10.656715c-2.8263245 2.826332 -6.659668 4.4141464 -10.656708 4.4141464l-151.43307 0c-8.323395 0 -15.070862 6.747467 -15.070862 15.070877l0 0c0 -8.32341 -6.747452 -15.070877 -15.070862 -15.070877l-151.43307 0c-8.32341 0 -15.070862 -6.747452 -15.070862 -15.070862" fill-rule="evenodd"/><path fill="#000000" fill-opacity="0.0" d="m435.61942 144.66405l1051.4016 0l0 42.015747l-1051.4016 0z" fill-rule="evenodd"/><path fill="#000000" d="m938.77734 157.94342q0.9375 0 1.703125 0.28125q0.78125 0.265625 1.328125 0.78125q0.5625 0.5 0.859375 1.21875q0.3125 0.703125 0.3125 1.5625q0 0.75 -0.21875 1.390625q-0.21875 0.625 -0.59375 1.203125q-0.359375 0.578125 -0.859375 1.125q-0.484375 0.53125 -1.03125 1.09375l-3.046875 3.109375q0.453125 -0.125 0.875 -0.1875q0.4375 -0.078125 0.828125 -0.078125l3.453125 0q0.375 0 0.59375 0.21875q0.21875 0.203125 0.21875 0.546875l0 1.375l-9.25 0l0 -0.765625q0 -0.234375 0.09375 -0.484375q0.109375 -0.25 0.3125 -0.46875l4.09375 -4.109375q0.515625 -0.515625 0.921875 -0.984375q0.40625 -0.484375 0.671875 -0.953125q0.28125 -0.46875 0.421875 -0.9375q0.15625 -0.484375 0.15625 -1.015625q0 -0.484375 -0.140625 -0.84375q-0.140625 -0.375 -0.40625 -0.625q-0.25 -0.265625 -0.609375 -0.390625q-0.359375 -0.125 -0.8125 -0.125q-0.828125 0 -1.375 0.421875q-0.53125 0.421875 -0.734375 1.125q-0.109375 0.359375 -0.3125 0.515625q-0.203125 0.15625 -0.53125 0.15625q-0.140625 0 -0.296875 -0.03125l-1.21875 -0.21875q0.140625 -0.96875 0.53125 -1.6875q0.40625 -0.734375 1.0 -1.21875q0.609375 -0.5 1.390625 -0.75q0.78125 -0.25 1.671875 -0.25zm11.039368 0q0.9375 0 1.6875 0.265625q0.75 0.265625 1.28125 0.75q0.53125 0.46875 0.8125 1.109375q0.28125 0.625 0.28125 1.359375q0 0.640625 -0.140625 1.140625q-0.140625 0.484375 -0.421875 0.84375q-0.265625 0.359375 -0.671875 0.625q-0.390625 0.25 -0.890625 0.40625q1.203125 0.390625 1.796875 1.171875q0.609375 0.78125 0.609375 1.96875q0 1.0 -0.375 1.78125q-0.375 0.765625 -1.015625 1.296875q-0.625 0.53125 -1.46875 0.8125q-0.828125 0.265625 -1.765625 0.265625q-1.015625 0 -1.78125 -0.234375q-0.75 -0.234375 -1.3125 -0.6875q-0.546875 -0.46875 -0.9375 -1.125q-0.390625 -0.671875 -0.671875 -1.53125l1.015625 -0.421875q0.265625 -0.109375 0.53125 -0.109375q0.234375 0 0.421875 0.109375q0.203125 0.09375 0.296875 0.296875q0.171875 0.3125 0.375 0.640625q0.203125 0.3125 0.484375 0.5625q0.28125 0.25 0.65625 0.40625q0.375 0.140625 0.890625 0.140625q0.59375 0 1.03125 -0.1875q0.4375 -0.1875 0.734375 -0.5q0.296875 -0.3125 0.4375 -0.6875q0.140625 -0.375 0.140625 -0.75q0 -0.484375 -0.109375 -0.875q-0.09375 -0.40625 -0.421875 -0.6875q-0.328125 -0.28125 -0.9375 -0.4375q-0.609375 -0.15625 -1.640625 -0.15625l0 -1.640625q0.859375 -0.015625 1.40625 -0.15625q0.5625 -0.15625 0.890625 -0.421875q0.34375 -0.265625 0.46875 -0.640625q0.140625 -0.375 0.140625 -0.8125q0 -0.96875 -0.53125 -1.453125q-0.515625 -0.5 -1.421875 -0.5q-0.828125 0 -1.375 0.4375q-0.53125 0.4375 -0.75 1.109375q-0.109375 0.359375 -0.3125 0.515625q-0.1875 0.15625 -0.5 0.15625q-0.15625 0 -0.328125 -0.03125l-1.203125 -0.21875q0.140625 -0.96875 0.53125 -1.6875q0.40625 -0.734375 1.0 -1.21875q0.609375 -0.5 1.390625 -0.75q0.78125 -0.25 1.671875 -0.25zm9.858826 13.640625l0 -13.859375l2.296875 0l0 5.46875q0.5625 -0.609375 1.28125 -0.96875q0.71875 -0.359375 1.6875 -0.359375q0.78125 0 1.421875 0.328125q0.65625 0.3125 1.125 0.9375q0.46875 0.609375 0.71875 1.515625q0.265625 0.90625 0.265625 2.078125q0 1.078125 -0.296875 2.0q-0.28125 0.90625 -0.828125 1.578125q-0.53125 0.671875 -1.296875 1.046875q-0.75 0.375 -1.6875 0.375q-0.4375 0 -0.8125 -0.09375q-0.359375 -0.078125 -0.65625 -0.234375q-0.296875 -0.171875 -0.5625 -0.390625q-0.25 -0.234375 -0.484375 -0.515625l-0.09375 0.640625q-0.0625 0.25 -0.203125 0.359375q-0.125 0.09375 -0.359375 0.09375l-1.515625 0zm4.46875 -7.921875q-0.71875 0 -1.234375 0.296875q-0.5 0.296875 -0.9375 0.859375l0 4.28125q0.390625 0.484375 0.84375 0.6875q0.46875 0.1875 1.015625 0.1875q0.515625 0 0.9375 -0.1875q0.421875 -0.203125 0.71875 -0.609375q0.296875 -0.40625 0.453125 -1.015625q0.15625 -0.609375 0.15625 -1.4375q0 -0.84375 -0.140625 -1.421875q-0.125 -0.578125 -0.390625 -0.9375q-0.25 -0.375 -0.609375 -0.53125q-0.359375 -0.171875 -0.8125 -0.171875zm8.587158 -1.65625l0 9.578125l-2.3125 0l0 -9.578125l2.3125 0zm0.34375 -2.78125q0 0.296875 -0.125 0.5625q-0.125 0.265625 -0.328125 0.46875q-0.1875 0.1875 -0.46875 0.3125q-0.265625 0.109375 -0.578125 0.109375q-0.296875 0 -0.5625 -0.109375q-0.265625 -0.125 -0.46875 -0.3125q-0.1875 -0.203125 -0.3125 -0.46875q-0.109375 -0.265625 -0.109375 -0.5625q0 -0.3125 0.109375 -0.578125q0.125 -0.265625 0.3125 -0.453125q0.203125 -0.203125 0.46875 -0.3125q0.265625 -0.125 0.5625 -0.125q0.3125 0 0.578125 0.125q0.28125 0.109375 0.46875 0.3125q0.203125 0.1875 0.328125 0.453125q0.125 0.265625 0.125 0.578125zm5.399597 12.515625q-1.234375 0 -1.90625 -0.703125q-0.671875 -0.71875 -0.671875 -1.953125l0 -5.34375l-0.96875 0q-0.1875 0 -0.328125 -0.125q-0.140625 -0.125 -0.140625 -0.359375l0 -0.921875l1.546875 -0.25l0.484375 -2.609375q0.03125 -0.1875 0.171875 -0.28125q0.140625 -0.109375 0.34375 -0.109375l1.1875 0l0 3.015625l2.515625 0l0 1.640625l-2.515625 0l0 5.1875q0 0.453125 0.21875 0.703125q0.234375 0.25 0.609375 0.25q0.203125 0 0.34375 -0.046875q0.15625 -0.0625 0.265625 -0.109375q0.109375 -0.0625 0.1875 -0.109375q0.078125 -0.0625 0.171875 -0.0625q0.09375 0 0.15625 0.0625q0.078125 0.046875 0.140625 0.15625l0.703125 1.109375q-0.515625 0.421875 -1.171875 0.640625q-0.640625 0.21875 -1.34375 0.21875zm9.751221 -7.859375q-0.09375 0.140625 -0.203125 0.203125q-0.09375 0.0625 -0.25 0.0625q-0.171875 0 -0.359375 -0.09375q-0.1875 -0.09375 -0.4375 -0.203125q-0.25 -0.125 -0.578125 -0.21875q-0.328125 -0.09375 -0.765625 -0.09375q-0.671875 0 -1.0625 0.296875q-0.390625 0.28125 -0.390625 0.75q0 0.3125 0.1875 0.53125q0.203125 0.203125 0.53125 0.359375q0.34375 0.15625 0.75 0.28125q0.421875 0.125 0.859375 0.28125q0.453125 0.140625 0.859375 0.34375q0.421875 0.1875 0.75 0.484375q0.34375 0.28125 0.53125 0.703125q0.203125 0.40625 0.203125 0.984375q0 0.6875 -0.25 1.28125q-0.25 0.578125 -0.734375 1.0q-0.484375 0.421875 -1.203125 0.671875q-0.703125 0.234375 -1.625 0.234375q-0.5 0 -0.96875 -0.09375q-0.46875 -0.09375 -0.90625 -0.25q-0.4375 -0.15625 -0.8125 -0.375q-0.359375 -0.21875 -0.640625 -0.46875l0.53125 -0.875q0.109375 -0.15625 0.25 -0.234375q0.140625 -0.09375 0.34375 -0.09375q0.21875 0 0.40625 0.125q0.203125 0.125 0.453125 0.265625q0.25 0.140625 0.578125 0.265625q0.34375 0.109375 0.875 0.109375q0.40625 0 0.703125 -0.09375q0.296875 -0.09375 0.484375 -0.25q0.1875 -0.171875 0.265625 -0.375q0.09375 -0.203125 0.09375 -0.4375q0 -0.328125 -0.203125 -0.546875q-0.1875 -0.21875 -0.53125 -0.375q-0.328125 -0.15625 -0.75 -0.28125q-0.421875 -0.125 -0.875 -0.265625q-0.4375 -0.15625 -0.859375 -0.359375q-0.421875 -0.203125 -0.75 -0.5q-0.328125 -0.3125 -0.53125 -0.765625q-0.203125 -0.453125 -0.203125 -1.078125q0 -0.59375 0.234375 -1.125q0.234375 -0.53125 0.6875 -0.921875q0.453125 -0.40625 1.125 -0.640625q0.671875 -0.234375 1.5625 -0.234375q0.984375 0 1.796875 0.328125q0.8125 0.328125 1.359375 0.859375l-0.53125 0.828125z" fill-rule="nonzero"/><path fill="#000000" fill-opacity="0.0" d="m74.84252 144.66405l364.34644 0l0 42.015747l-364.34644 0z" fill-rule="evenodd"/><path fill="#000000" d="m239.68001 171.7403q-1.046875 0 -1.90625 -0.28125q-0.859375 -0.28125 -1.484375 -0.796875q-0.609375 -0.515625 -0.953125 -1.234375q-0.328125 -0.734375 -0.328125 -1.625q0 -1.203125 0.578125 -2.015625q0.59375 -0.828125 1.828125 -1.234375q-0.984375 -0.40625 -1.484375 -1.15625q-0.484375 -0.765625 -0.484375 -1.828125q0 -0.765625 0.3125 -1.421875q0.3125 -0.671875 0.875 -1.15625q0.5625 -0.5 1.34375 -0.765625q0.78125 -0.28125 1.703125 -0.28125q0.9375 0 1.71875 0.28125q0.78125 0.265625 1.328125 0.765625q0.5625 0.484375 0.875 1.15625q0.3125 0.65625 0.3125 1.421875q0 1.0625 -0.5 1.828125q-0.484375 0.75 -1.46875 1.15625q1.25 0.40625 1.828125 1.234375q0.59375 0.8125 0.59375 2.015625q0 0.890625 -0.34375 1.625q-0.34375 0.71875 -0.953125 1.234375q-0.609375 0.515625 -1.484375 0.796875q-0.859375 0.28125 -1.90625 0.28125zm0 -1.8125q0.578125 0 1.0 -0.15625q0.4375 -0.171875 0.71875 -0.453125q0.296875 -0.296875 0.4375 -0.6875q0.15625 -0.40625 0.15625 -0.875q0 -1.109375 -0.609375 -1.671875q-0.609375 -0.578125 -1.703125 -0.578125q-1.078125 0 -1.703125 0.578125q-0.609375 0.5625 -0.609375 1.671875q0 0.46875 0.140625 0.875q0.15625 0.390625 0.453125 0.6875q0.296875 0.28125 0.71875 0.453125q0.4375 0.15625 1.0 0.15625zm0 -6.21875q0.5625 0 0.9375 -0.171875q0.390625 -0.1875 0.625 -0.484375q0.234375 -0.296875 0.328125 -0.671875q0.09375 -0.375 0.09375 -0.78125q0 -0.375 -0.125 -0.71875q-0.109375 -0.34375 -0.359375 -0.609375q-0.234375 -0.265625 -0.609375 -0.421875q-0.375 -0.171875 -0.890625 -0.171875q-0.515625 0 -0.890625 0.171875q-0.359375 0.15625 -0.609375 0.421875q-0.25 0.265625 -0.375 0.609375q-0.109375 0.34375 -0.109375 0.71875q0 0.40625 0.09375 0.78125q0.109375 0.375 0.328125 0.671875q0.234375 0.296875 0.609375 0.484375q0.390625 0.171875 0.953125 0.171875zm10.28067 7.875l0 -13.859375l2.296875 0l0 5.46875q0.5625 -0.609375 1.28125 -0.96875q0.71875 -0.359375 1.6875 -0.359375q0.78126526 0 1.4218903 0.328125q0.65625 0.3125 1.125 0.9375q0.46875 0.609375 0.71875 1.515625q0.265625 0.90625 0.265625 2.078125q0 1.078125 -0.296875 2.0q-0.28125 0.90625 -0.828125 1.578125q-0.53125 0.671875 -1.296875 1.046875q-0.75001526 0.375 -1.6875153 0.375q-0.4375 0 -0.8125 -0.09375q-0.359375 -0.078125 -0.65625 -0.234375q-0.296875 -0.171875 -0.5625 -0.390625q-0.25 -0.234375 -0.484375 -0.515625l-0.09375 0.640625q-0.0625 0.25 -0.203125 0.359375q-0.125 0.09375 -0.359375 0.09375l-1.515625 0zm4.46875 -7.921875q-0.71875 0 -1.234375 0.296875q-0.5 0.296875 -0.9375 0.859375l0 4.28125q0.390625 0.484375 0.84375 0.6875q0.46875 0.1875 1.015625 0.1875q0.515625 0 0.9375 -0.1875q0.421875 -0.203125 0.71875 -0.609375q0.29689026 -0.40625 0.45314026 -1.015625q0.15625 -0.609375 0.15625 -1.4375q0 -0.84375 -0.140625 -1.421875q-0.125 -0.578125 -0.39064026 -0.9375q-0.25 -0.375 -0.609375 -0.53125q-0.359375 -0.171875 -0.8125 -0.171875zm8.587204 -1.65625l0 9.578125l-2.3125 0l0 -9.578125l2.3125 0zm0.34375 -2.78125q0 0.296875 -0.125 0.5625q-0.125 0.265625 -0.328125 0.46875q-0.1875 0.1875 -0.46875 0.3125q-0.265625 0.109375 -0.578125 0.109375q-0.296875 0 -0.5625 -0.109375q-0.265625 -0.125 -0.46875 -0.3125q-0.1875 -0.203125 -0.3125 -0.46875q-0.109375 -0.265625 -0.109375 -0.5625q0 -0.3125 0.109375 -0.578125q0.125 -0.265625 0.3125 -0.453125q0.203125 -0.203125 0.46875 -0.3125q0.265625 -0.125 0.5625 -0.125q0.3125 0 0.578125 0.125q0.28125 0.109375 0.46875 0.3125q0.203125 0.1875 0.328125 0.453125q0.125 0.265625 0.125 0.578125zm5.399597 12.515625q-1.234375 0 -1.90625 -0.703125q-0.671875 -0.71875 -0.671875 -1.953125l0 -5.34375l-0.96875 0q-0.1875 0 -0.328125 -0.125q-0.140625 -0.125 -0.140625 -0.359375l0 -0.921875l1.546875 -0.25l0.484375 -2.609375q0.03125 -0.1875 0.171875 -0.28125q0.140625 -0.109375 0.34375 -0.109375l1.1875 0l0 3.015625l2.515625 0l0 1.640625l-2.515625 0l0 5.1875q0 0.453125 0.21875 0.703125q0.234375 0.25 0.609375 0.25q0.203125 0 0.34375 -0.046875q0.15625 -0.0625 0.265625 -0.109375q0.109375 -0.0625 0.1875 -0.109375q0.078125 -0.0625 0.171875 -0.0625q0.09375 0 0.15625 0.0625q0.078125 0.046875 0.140625 0.15625l0.703125 1.109375q-0.515625 0.421875 -1.171875 0.640625q-0.640625 0.21875 -1.34375 0.21875zm9.751221 -7.859375q-0.09375 0.140625 -0.203125 0.203125q-0.09375 0.0625 -0.25 0.0625q-0.171875 0 -0.359375 -0.09375q-0.1875 -0.09375 -0.4375 -0.203125q-0.25 -0.125 -0.578125 -0.21875q-0.328125 -0.09375 -0.765625 -0.09375q-0.671875 0 -1.0625 0.296875q-0.390625 0.28125 -0.390625 0.75q0 0.3125 0.1875 0.53125q0.203125 0.203125 0.53125 0.359375q0.34375 0.15625 0.75 0.28125q0.421875 0.125 0.859375 0.28125q0.453125 0.140625 0.859375 0.34375q0.421875 0.1875 0.75 0.484375q0.34375 0.28125 0.53125 0.703125q0.203125 0.40625 0.203125 0.984375q0 0.6875 -0.25 1.28125q-0.25 0.578125 -0.734375 1.0q-0.484375 0.421875 -1.203125 0.671875q-0.703125 0.234375 -1.625 0.234375q-0.5 0 -0.96875 -0.09375q-0.46875 -0.09375 -0.90625 -0.25q-0.4375 -0.15625 -0.8125 -0.375q-0.359375 -0.21875 -0.640625 -0.46875l0.53125 -0.875q0.109375 -0.15625 0.25 -0.234375q0.140625 -0.09375 0.34375 -0.09375q0.21875 0 0.40625 0.125q0.203125 0.125 0.453125 0.265625q0.25 0.140625 0.578125 0.265625q0.34375 0.109375 0.875 0.109375q0.40625 0 0.703125 -0.09375q0.296875 -0.09375 0.484375 -0.25q0.1875 -0.171875 0.265625 -0.375q0.09375 -0.203125 0.09375 -0.4375q0 -0.328125 -0.203125 -0.546875q-0.1875 -0.21875 -0.53125 -0.375q-0.328125 -0.15625 -0.75 -0.28125q-0.421875 -0.125 -0.875 -0.265625q-0.4375 -0.15625 -0.859375 -0.359375q-0.421875 -0.203125 -0.75 -0.5q-0.328125 -0.3125 -0.53125 -0.765625q-0.203125 -0.453125 -0.203125 -1.078125q0 -0.59375 0.234375 -1.125q0.234375 -0.53125 0.6875 -0.921875q0.453125 -0.40625 1.125 -0.640625q0.671875 -0.234375 1.5625 -0.234375q0.984375 0 1.796875 0.328125q0.8125 0.328125 1.359375 0.859375l-0.53125 0.828125z" fill-rule="nonzero"/><path fill="#000000" fill-opacity="0.0" d="m16.879265 144.66273l71.055115 0l0 42.015747l-71.055115 0z" fill-rule="evenodd"/><path fill="#000000" d="m36.256863 169.86398l2.734375 0l0 -7.875q0 -0.453125 0.015625 -0.953125l-1.9375 1.625q-0.125 0.09375 -0.25 0.140625q-0.125 0.03125 -0.25 0.03125q-0.171875 0 -0.328125 -0.078125q-0.15625 -0.078125 -0.234375 -0.1875l-0.71875 -1.0l4.109375 -3.484375l1.890625 0l0 11.78125l2.421875 0l0 1.71875l-7.453125 0l0 -1.71875zm13.171291 1.71875l0 -13.859375l2.296875 0l0 5.46875q0.5625 -0.609375 1.28125 -0.96875q0.71875 -0.359375 1.6875 -0.359375q0.78125 0 1.421875 0.328125q0.65625 0.3125 1.125 0.9375q0.46875 0.609375 0.71875 1.515625q0.265625 0.90625 0.265625 2.078125q0 1.078125 -0.296875 2.0q-0.28125 0.90625 -0.828125 1.578125q-0.53125 0.671875 -1.296875 1.046875q-0.75 0.375 -1.6875 0.375q-0.4375 0 -0.8125 -0.09375q-0.359375 -0.078125 -0.65625 -0.234375q-0.296875 -0.171875 -0.5625 -0.390625q-0.25 -0.234375 -0.484375 -0.515625l-0.09375 0.640625q-0.0625 0.25 -0.203125 0.359375q-0.125 0.09375 -0.359375 0.09375l-1.515625 0zm4.46875 -7.921875q-0.71875 0 -1.234375 0.296875q-0.5 0.296875 -0.9375 0.859375l0 4.28125q0.390625 0.484375 0.84375 0.6875q0.46875 0.1875 1.015625 0.1875q0.515625 0 0.9375 -0.1875q0.421875 -0.203125 0.71875 -0.609375q0.296875 -0.40625 0.453125 -1.015625q0.15625 -0.609375 0.15625 -1.4375q0 -0.84375 -0.140625 -1.421875q-0.125 -0.578125 -0.390625 -0.9375q-0.25 -0.375 -0.609375 -0.53125q-0.359375 -0.171875 -0.8125 -0.171875zm8.587189 -1.65625l0 9.578125l-2.3125 0l0 -9.578125l2.3125 0zm0.34375 -2.78125q0 0.296875 -0.125 0.5625q-0.125 0.265625 -0.328125 0.46875q-0.1875 0.1875 -0.46875 0.3125q-0.265625 0.109375 -0.578125 0.109375q-0.296875 0 -0.5625 -0.109375q-0.265625 -0.125 -0.46875 -0.3125q-0.1875 -0.203125 -0.3125 -0.46875q-0.109375 -0.265625 -0.109375 -0.5625q0 -0.3125 0.109375 -0.578125q0.125 -0.265625 0.3125 -0.453125q0.203125 -0.203125 0.46875 -0.3125q0.265625 -0.125 0.5625 -0.125q0.3125 0 0.578125 0.125q0.28125 0.109375 0.46875 0.3125q0.203125 0.1875 0.328125 0.453125q0.125 0.265625 0.125 0.578125zm5.399597 12.515625q-1.234375 0 -1.90625 -0.703125q-0.671875 -0.71875 -0.671875 -1.953125l0 -5.34375l-0.96875 0q-0.1875 0 -0.328125 -0.125q-0.140625 -0.125 -0.140625 -0.359375l0 -0.921875l1.546875 -0.25l0.484375 -2.609375q0.03125 -0.1875 0.171875 -0.28125q0.140625 -0.109375 0.34375 -0.109375l1.1875 0l0 3.015625l2.515625 0l0 1.640625l-2.515625 0l0 5.1875q0 0.453125 0.21875 0.703125q0.234375 0.25 0.609375 0.25q0.203125 0 0.34375 -0.046875q0.15625 -0.0625 0.265625 -0.109375q0.109375 -0.0625 0.1875 -0.109375q0.078125 -0.0625 0.171875 -0.0625q0.09375 0 0.15625 0.0625q0.078125 0.046875 0.140625 0.15625l0.703125 1.109375q-0.515625 0.421875 -1.171875 0.640625q-0.640625 0.21875 -1.34375 0.21875z" fill-rule="nonzero"/><path fill="#000000" fill-opacity="0.0" d="m73.656166 114.52231l0 0c0 8.32341 -4.9248657 15.070862 -11.0 15.070862l0 0l0 0c-6.0751305 0 -11.0 6.747467 -11.0 15.070877l0 0c0 -8.32341 -4.9248657 -15.070877 -11.0 -15.070877l0 0c-6.0751305 0 -10.999998 -6.747452 -10.999998 -15.070862z" fill-rule="evenodd"/><path fill="#000000" fill-opacity="0.0" d="m73.656166 114.52231l0 0c0 8.32341 -4.9248657 15.070862 -11.0 15.070862l0 0l0 0c-6.0751305 0 -11.0 6.747467 -11.0 15.070877l0 0c0 -8.32341 -4.9248657 -15.070877 -11.0 -15.070877l0 0c-6.0751305 0 -10.999998 -6.747452 -10.999998 -15.070862" fill-rule="evenodd"/><path stroke="#000000" stroke-width="1.0" stroke-linejoin="round" stroke-linecap="butt" d="m73.656166 114.52231l0 0c0 8.32341 -4.9248657 15.070862 -11.0 15.070862l0 0l0 0c-6.0751305 0 -11.0 6.747467 -11.0 15.070877l0 0c0 -8.32341 -4.9248657 -15.070877 -11.0 -15.070877l0 0c-6.0751305 0 -10.999998 -6.747452 -10.999998 -15.070862" fill-rule="evenodd"/></g></svg>