<svg xmlns="http://www.w3.org/2000/svg" viewBox="0 0 64 64"><g id="NETWORK-2" data-name="NETWORK"><path d="M10.29,42a1,1,0,1,0,1.26-1.54A1,1,0,0,0,10.29,42Z"/><path d="M23.19,40.29H14a1,1,0,0,0,0,2h9.19a.87.87,0,0,1,.86.86V52.4H5V43.15c0-1.32,2.21-.73,3-.86a1,1,0,0,0,0-2c-2.3-.11-4.83-.09-5,2.86V54.48a2.86,2.86,0,0,0,2.85,2.85H10.6A3.33,3.33,0,0,0,10.31,59H9.64a1,1,0,0,0,0,2h9.77a1,1,0,0,0,0-2h-.67a3.44,3.44,0,0,0-.29-1.67h4.74a2.86,2.86,0,0,0,2.86-2.85V43.15A2.87,2.87,0,0,0,23.19,40.29ZM5,54.48V54.4h9a.69.69,0,0,0,0,.93H5.85A.85.85,0,0,1,5,54.48Zm10.51,2.86A1.42,1.42,0,0,1,16.74,59H12.3C12.1,57,14.2,57.32,15.51,57.34Zm7.68-2h-8.1a.69.69,0,0,0,0-.93h9A.86.86,0,0,1,23.19,55.33Z"/><path d="M58.15,40.29H40.81A2.87,2.87,0,0,0,38,43.15V54.48a2.86,2.86,0,0,0,2.86,2.85h4.74A3.44,3.44,0,0,0,45.26,59h-.67a1,1,0,0,0,0,2h9.77a1,1,0,0,0,0-2h-.67a3.33,3.33,0,0,0-.29-1.67h4.75A2.86,2.86,0,0,0,61,54.48V43.15A2.86,2.86,0,0,0,58.15,40.29Zm-17.34,2H58.15a.86.86,0,0,1,.85.86V52.4H40V43.15A.87.87,0,0,1,40.81,42.29ZM40,54.48V54.4h9a.69.69,0,0,0,0,.93h-8.1A.86.86,0,0,1,40,54.48Zm10.51,2.86A1.42,1.42,0,0,1,51.7,59H47.26C47.05,57,49.16,57.32,50.46,57.34Zm7.69-2H50a.69.69,0,0,0,0-.93h9A.86.86,0,0,1,58.15,55.33Z"/><path d="M35,48.19H29a1,1,0,0,0,0,2h6A1,1,0,0,0,35,48.19Z"/><path d="M31.25,29.85l-7,7.92a1,1,0,0,0,1.5,1.32L32,32l6.25,7.06a1,1,0,0,0,1.5-1.32l-7-7.92A1.05,1.05,0,0,0,31.25,29.85Z"/><path d="M19,16c1.09,20.21,31.09,14.89,25.22-4.41C39.42-2,18.93,1.73,19,16Zm9.18-8.53A11.74,11.74,0,0,1,32,5.05a11.76,11.76,0,0,1,6.38,6H25.63A11.55,11.55,0,0,1,28.18,7.47ZM39.1,13a11.52,11.52,0,0,1,0,6H24.9a11.73,11.73,0,0,1,0-6ZM43,16a11.2,11.2,0,0,1-.42,3H41.17a13.8,13.8,0,0,0,0-6h1.41A11.2,11.2,0,0,1,43,16Zm-7.17,8.53A11.89,11.89,0,0,1,32,27,11.74,11.74,0,0,1,25.63,21H38.38A11.85,11.85,0,0,1,35.83,24.53ZM22.84,19H21.42a10.92,10.92,0,0,1,0-6h1.42A13.8,13.8,0,0,0,22.84,19Zm.07,3.19a11.94,11.94,0,0,1-.7-1.19h1.24a13.38,13.38,0,0,0,2.72,4.32A10.81,10.81,0,0,1,22.91,22.19ZM39.56,24a10.55,10.55,0,0,1-1.73,1.34A13.41,13.41,0,0,0,40.56,21h1.23A10.67,10.67,0,0,1,39.56,24ZM41.09,9.81a11.94,11.94,0,0,1,.7,1.19H40.56a13.41,13.41,0,0,0-2.73-4.32A10.94,10.94,0,0,1,41.09,9.81Zm-18.18,0a10.81,10.81,0,0,1,3.26-3.13A13.38,13.38,0,0,0,23.45,11H22.21A10.91,10.91,0,0,1,22.91,9.81Z"/></g></svg>