<?xml version="1.0" encoding="utf-8"?>
<!-- Generator: Adobe Illustrator 16.0.0, SVG Export Plug-In . SVG Version: 6.00 Build 0)  -->
<!DOCTYPE svg PUBLIC "-//W3C//DTD SVG 1.1//EN" "http://www.w3.org/Graphics/SVG/1.1/DTD/svg11.dtd">
<svg version="1.1" id="Layer_1" xmlns="http://www.w3.org/2000/svg" xmlns:xlink="http://www.w3.org/1999/xlink" x="0px" y="0px"
	 width="293px" height="322px" viewBox="0 0 293 322" enable-background="new 0 0 293 322" xml:space="preserve">
<rect x="136" y="1" fill="#E4E897" stroke="#000000" stroke-width="2" stroke-miterlimit="10" width="155" height="40"/>
<rect x="16" y="71" fill="#F288B3" stroke="#000000" stroke-width="2" stroke-miterlimit="10" width="165" height="40"/>
<rect x="1" y="141" fill="#8ADAED" stroke="#000000" stroke-width="2" stroke-miterlimit="10" width="291" height="40"/>
<rect x="137" y="281" fill="#A7EF89" stroke="#000000" stroke-width="2" stroke-miterlimit="10" width="145" height="40"/>
<rect x="10" y="211" fill="#EFBB89" stroke="#000000" stroke-width="2" stroke-miterlimit="10" width="195" height="40"/>
<g>
	<line fill="#F288B3" x1="252" y1="41" x2="252" y2="141"/>
	<g>
		<line fill="none" stroke="#000000" stroke-width="2" stroke-miterlimit="10" x1="252" y1="50" x2="252" y2="132"/>
		<g>
			<polygon points="246.017,51 251.999,40.638 257.983,51 			"/>
		</g>
		<g>
			<polygon points="246.017,131 251.999,141.361 257.983,131 			"/>
		</g>
	</g>
</g>
<g>
	<line fill="#F288B3" x1="161" y1="42" x2="161" y2="70"/>
	<g>
		<line fill="none" stroke="#000000" stroke-width="2" stroke-miterlimit="10" x1="161" y1="51" x2="161" y2="61"/>
		<g>
			<polygon points="155.017,52 160.999,41.638 166.983,52 			"/>
		</g>
		<g>
			<polygon points="155.017,60 160.999,70.362 166.983,60 			"/>
		</g>
	</g>
</g>
<g>
	<line fill="#F288B3" x1="103" y1="112" x2="103" y2="140"/>
	<g>
		<line fill="none" stroke="#000000" stroke-width="2" stroke-miterlimit="10" x1="103" y1="121" x2="103" y2="131"/>
		<g>
			<polygon points="97.017,122 103,111.638 108.983,122 			"/>
		</g>
		<g>
			<polygon points="97.017,130 103,140.361 108.983,130 			"/>
		</g>
	</g>
</g>
<g>
	<line fill="#F288B3" x1="138" y1="182" x2="138" y2="210"/>
	<g>
		<line fill="none" stroke="#000000" stroke-width="2" stroke-miterlimit="10" x1="138" y1="191" x2="138" y2="201"/>
		<g>
			<polygon points="132.017,192 137.999,181.639 143.983,192 			"/>
		</g>
		<g>
			<polygon points="132.017,200 137.999,210.361 143.983,200 			"/>
		</g>
	</g>
</g>
<g>
	<line fill="#F288B3" x1="166" y1="252" x2="166" y2="280"/>
	<g>
		<line fill="none" stroke="#000000" stroke-width="2" stroke-miterlimit="10" x1="166" y1="261" x2="166" y2="271"/>
		<g>
			<polygon points="160.017,262 165.999,251.639 171.983,262 			"/>
		</g>
		<g>
			<polygon points="160.017,270 165.999,280.361 171.983,270 			"/>
		</g>
	</g>
</g>
<g>
	<line fill="#F288B3" x1="234" y1="181" x2="234" y2="281"/>
	<g>
		<line fill="none" stroke="#000000" stroke-width="2" stroke-miterlimit="10" x1="234" y1="190" x2="234" y2="272"/>
		<g>
			<polygon points="228.017,191 233.999,180.639 239.983,191 			"/>
		</g>
		<g>
			<polygon points="228.017,271 233.999,281.361 239.983,271 			"/>
		</g>
	</g>
</g>
<g>
	<path d="M171.393,16v4.514h5.217V16h1.41v10.789h-1.41V21.73h-5.217v5.058H170V16H171.393z"/>
	<path d="M186.865,24.676c0,0.8,0.016,1.504,0.064,2.113h-1.248l-0.08-1.265h-0.033c-0.367,0.625-1.184,1.441-2.561,1.441
		c-1.217,0-2.672-0.672-2.672-3.394v-4.53h1.408v4.29c0,1.473,0.447,2.465,1.729,2.465c0.943,0,1.6-0.656,1.855-1.281
		c0.08-0.208,0.129-0.464,0.129-0.72v-4.754h1.408V24.676z"/>
	<path d="M189.199,21.138c0-0.8-0.016-1.457-0.064-2.097h1.232l0.064,1.249h0.049c0.432-0.736,1.152-1.425,2.432-1.425
		c1.057,0,1.857,0.641,2.193,1.553h0.031c0.24-0.432,0.545-0.768,0.865-1.008c0.465-0.352,0.977-0.544,1.713-0.544
		c1.023,0,2.545,0.672,2.545,3.361v4.562h-1.377v-4.386c0-1.489-0.545-2.385-1.68-2.385c-0.801,0-1.426,0.592-1.666,1.28
		c-0.064,0.192-0.111,0.448-0.111,0.704v4.786h-1.377v-4.642c0-1.232-0.545-2.128-1.617-2.128c-0.879,0-1.52,0.704-1.744,1.408
		c-0.08,0.208-0.111,0.448-0.111,0.688v4.674h-1.377V21.138z"/>
	<path d="M206.832,26.789l-0.111-0.977h-0.047c-0.434,0.608-1.266,1.153-2.369,1.153c-1.57,0-2.369-1.104-2.369-2.225
		c0-1.873,1.664-2.897,4.658-2.881v-0.16c0-0.641-0.178-1.793-1.762-1.793c-0.721,0-1.473,0.224-2.018,0.576l-0.318-0.928
		c0.639-0.416,1.568-0.688,2.545-0.688c2.369,0,2.945,1.617,2.945,3.169v2.897c0,0.672,0.031,1.329,0.127,1.857H206.832z
		 M206.625,22.835c-1.537-0.032-3.281,0.24-3.281,1.745c0,0.913,0.607,1.345,1.328,1.345c1.008,0,1.648-0.64,1.873-1.296
		c0.049-0.145,0.08-0.304,0.08-0.448V22.835z"/>
	<path d="M210.256,21.138c0-0.8-0.018-1.457-0.064-2.097h1.248l0.08,1.28h0.031c0.385-0.736,1.281-1.457,2.563-1.457
		c1.072,0,2.736,0.641,2.736,3.297v4.626h-1.408v-4.466c0-1.249-0.465-2.289-1.793-2.289c-0.928,0-1.648,0.656-1.889,1.441
		c-0.064,0.176-0.096,0.416-0.096,0.656v4.658h-1.408V21.138z"/>
	<path d="M223.967,16v6.387c0,2.417,1.072,3.441,2.514,3.441c1.6,0,2.625-1.056,2.625-3.441V16h1.408v6.291
		c0,3.313-1.744,4.674-4.082,4.674c-2.209,0-3.873-1.265-3.873-4.61V16H223.967z"/>
	<path d="M232.59,25.348c0.416,0.272,1.152,0.56,1.857,0.56c1.023,0,1.504-0.512,1.504-1.152c0-0.672-0.4-1.041-1.439-1.425
		c-1.393-0.496-2.049-1.264-2.049-2.193c0-1.249,1.008-2.273,2.672-2.273c0.785,0,1.473,0.224,1.906,0.48l-0.354,1.024
		c-0.303-0.192-0.863-0.448-1.584-0.448c-0.832,0-1.297,0.48-1.297,1.056c0,0.641,0.465,0.929,1.473,1.313
		c1.346,0.512,2.033,1.185,2.033,2.337c0,1.36-1.057,2.321-2.896,2.321c-0.85,0-1.633-0.208-2.178-0.528L232.59,25.348z"/>
	<path d="M239.902,23.171c0.033,1.905,1.248,2.689,2.658,2.689c1.008,0,1.615-0.176,2.145-0.4l0.24,1.008
		c-0.496,0.224-1.346,0.48-2.578,0.48c-2.385,0-3.809-1.569-3.809-3.906s1.377-4.178,3.633-4.178c2.529,0,3.201,2.225,3.201,3.649
		c0,0.288-0.031,0.512-0.047,0.656H239.902z M244.033,22.163c0.016-0.896-0.369-2.289-1.953-2.289c-1.426,0-2.049,1.313-2.162,2.289
		H244.033z"/>
	<path d="M247.135,21.458c0-0.913-0.018-1.697-0.064-2.417h1.232l0.047,1.521h0.064c0.354-1.041,1.201-1.697,2.145-1.697
		c0.16,0,0.273,0.016,0.4,0.048v1.328c-0.143-0.032-0.287-0.048-0.48-0.048c-0.992,0-1.695,0.752-1.889,1.809
		c-0.031,0.192-0.063,0.417-0.063,0.656v4.13h-1.393V21.458z"/>
	<path d="M252.174,25.348c0.416,0.272,1.152,0.56,1.855,0.56c1.025,0,1.506-0.512,1.506-1.152c0-0.672-0.4-1.041-1.441-1.425
		c-1.393-0.496-2.049-1.264-2.049-2.193c0-1.249,1.01-2.273,2.674-2.273c0.783,0,1.473,0.224,1.904,0.48l-0.352,1.024
		c-0.305-0.192-0.865-0.448-1.586-0.448c-0.832,0-1.295,0.48-1.295,1.056c0,0.641,0.463,0.929,1.473,1.313
		c1.344,0.512,2.031,1.185,2.031,2.337c0,1.36-1.055,2.321-2.896,2.321c-0.848,0-1.633-0.208-2.178-0.528L252.174,25.348z"/>
</g>
<g>
	<path d="M179.393,295.576v4.515h5.217v-4.515h1.41v10.788h-1.41v-5.058h-5.217v5.058H178v-10.788H179.393z"/>
	<path d="M192.672,306.364l-0.111-0.977h-0.047c-0.434,0.609-1.266,1.153-2.369,1.153c-1.57,0-2.369-1.104-2.369-2.226
		c0-1.872,1.664-2.896,4.658-2.881v-0.16c0-0.641-0.178-1.793-1.762-1.793c-0.721,0-1.473,0.225-2.018,0.576l-0.318-0.928
		c0.639-0.416,1.568-0.688,2.545-0.688c2.369,0,2.945,1.616,2.945,3.169v2.897c0,0.673,0.031,1.329,0.127,1.856H192.672z
		 M192.465,302.411c-1.537-0.032-3.281,0.24-3.281,1.744c0,0.913,0.607,1.346,1.328,1.346c1.008,0,1.648-0.641,1.873-1.297
		c0.049-0.145,0.08-0.305,0.08-0.448V302.411z"/>
	<path d="M196.096,301.034c0-0.912-0.018-1.696-0.064-2.416h1.232l0.047,1.52h0.064c0.354-1.04,1.201-1.696,2.145-1.696
		c0.16,0,0.273,0.017,0.4,0.048v1.328c-0.143-0.031-0.287-0.047-0.48-0.047c-0.992,0-1.695,0.752-1.889,1.809
		c-0.031,0.191-0.063,0.416-0.063,0.656v4.129h-1.393V301.034z"/>
	<path d="M207.857,295v9.364c0,0.688,0.016,1.473,0.064,2h-1.264l-0.064-1.344h-0.033c-0.432,0.864-1.375,1.521-2.641,1.521
		c-1.873,0-3.313-1.585-3.313-3.938c-0.016-2.576,1.584-4.161,3.473-4.161c1.186,0,1.984,0.561,2.338,1.185h0.031V295H207.857z
		 M206.449,301.771c0-0.176-0.016-0.416-0.064-0.592c-0.207-0.896-0.977-1.633-2.033-1.633c-1.455,0-2.32,1.281-2.32,2.993
		c0,1.569,0.77,2.865,2.289,2.865c0.945,0,1.809-0.624,2.064-1.681c0.049-0.191,0.064-0.385,0.064-0.608V301.771z"/>
	<path d="M210.75,298.618l1.025,3.938c0.225,0.863,0.432,1.664,0.576,2.465h0.049c0.176-0.785,0.432-1.617,0.688-2.449l1.264-3.953
		h1.186l1.201,3.873c0.287,0.928,0.512,1.744,0.688,2.529h0.047c0.129-0.785,0.338-1.602,0.594-2.514l1.104-3.889h1.393
		l-2.496,7.746h-1.281l-1.184-3.697c-0.273-0.864-0.496-1.633-0.689-2.545h-0.031c-0.191,0.929-0.432,1.729-0.705,2.561
		l-1.248,3.682h-1.281l-2.336-7.746H210.75z"/>
	<path d="M226.191,306.364l-0.111-0.977h-0.047c-0.434,0.609-1.266,1.153-2.369,1.153c-1.57,0-2.369-1.104-2.369-2.226
		c0-1.872,1.664-2.896,4.658-2.881v-0.16c0-0.641-0.178-1.793-1.762-1.793c-0.721,0-1.473,0.225-2.018,0.576l-0.318-0.928
		c0.639-0.416,1.568-0.688,2.545-0.688c2.369,0,2.945,1.616,2.945,3.169v2.897c0,0.673,0.031,1.329,0.127,1.856H226.191z
		 M225.984,302.411c-1.537-0.032-3.281,0.24-3.281,1.744c0,0.913,0.607,1.346,1.328,1.346c1.008,0,1.648-0.641,1.873-1.297
		c0.049-0.145,0.08-0.305,0.08-0.448V302.411z"/>
	<path d="M229.615,301.034c0-0.912-0.018-1.696-0.064-2.416h1.232l0.047,1.52h0.064c0.354-1.04,1.201-1.696,2.145-1.696
		c0.16,0,0.273,0.017,0.4,0.048v1.328c-0.143-0.031-0.287-0.047-0.48-0.047c-0.992,0-1.695,0.752-1.889,1.809
		c-0.031,0.191-0.063,0.416-0.063,0.656v4.129h-1.393V301.034z"/>
	<path d="M235.471,302.747c0.033,1.904,1.248,2.689,2.658,2.689c1.008,0,1.615-0.176,2.145-0.4l0.24,1.008
		c-0.496,0.225-1.346,0.48-2.578,0.48c-2.385,0-3.809-1.568-3.809-3.905s1.377-4.178,3.633-4.178c2.529,0,3.201,2.226,3.201,3.649
		c0,0.288-0.031,0.512-0.047,0.656H235.471z M239.602,301.739c0.016-0.896-0.369-2.289-1.953-2.289
		c-1.426,0-2.049,1.313-2.162,2.289H239.602z"/>
</g>
<g>
	<path d="M31.561,93.147l-1.121,3.394H29l3.665-10.789h1.681l3.682,10.789h-1.488l-1.153-3.394H31.561z M35.098,92.059l-1.056-3.105
		c-0.24-0.705-0.4-1.345-0.561-1.969H33.45c-0.16,0.64-0.336,1.296-0.544,1.953l-1.056,3.121H35.098z"/>
	<path d="M39.512,91.322c0-0.992-0.032-1.792-0.064-2.529h1.265l0.064,1.329h0.032c0.576-0.944,1.489-1.505,2.753-1.505
		c1.873,0,3.281,1.585,3.281,3.938c0,2.785-1.697,4.162-3.521,4.162c-1.024,0-1.921-0.448-2.385-1.217h-0.032v4.21h-1.393V91.322z
		 M40.905,93.387c0,0.208,0.032,0.4,0.064,0.576c0.256,0.977,1.104,1.649,2.113,1.649c1.489,0,2.353-1.217,2.353-2.993
		c0-1.553-0.816-2.881-2.305-2.881c-0.96,0-1.857,0.688-2.129,1.745c-0.048,0.176-0.096,0.384-0.096,0.576V93.387z"/>
	<path d="M48.616,91.322c0-0.992-0.032-1.792-0.064-2.529h1.265l0.064,1.329h0.032c0.576-0.944,1.489-1.505,2.753-1.505
		c1.873,0,3.281,1.585,3.281,3.938c0,2.785-1.697,4.162-3.521,4.162c-1.024,0-1.921-0.448-2.385-1.217h-0.032v4.21h-1.393V91.322z
		 M50.008,93.387c0,0.208,0.032,0.4,0.064,0.576c0.256,0.977,1.104,1.649,2.113,1.649c1.489,0,2.353-1.217,2.353-2.993
		c0-1.553-0.816-2.881-2.305-2.881c-0.96,0-1.857,0.688-2.129,1.745c-0.048,0.176-0.096,0.384-0.096,0.576V93.387z"/>
	<path d="M57.719,85.176h1.409v11.365h-1.409V85.176z"/>
	<path d="M63.064,86.617c0.016,0.48-0.336,0.864-0.896,0.864c-0.496,0-0.849-0.384-0.849-0.864c0-0.497,0.368-0.88,0.88-0.88
		C62.728,85.736,63.064,86.12,63.064,86.617z M61.495,96.541v-7.747h1.409v7.747H61.495z"/>
	<path d="M70.761,96.252c-0.368,0.192-1.185,0.448-2.225,0.448c-2.337,0-3.857-1.585-3.857-3.954c0-2.385,1.632-4.114,4.162-4.114
		c0.832,0,1.568,0.208,1.953,0.4l-0.32,1.088c-0.336-0.192-0.864-0.368-1.632-0.368c-1.777,0-2.737,1.313-2.737,2.929
		c0,1.792,1.152,2.897,2.689,2.897c0.801,0,1.329-0.208,1.729-0.384L70.761,96.252z"/>
	<path d="M76.696,96.541l-0.112-0.977h-0.048c-0.432,0.608-1.265,1.153-2.369,1.153c-1.569,0-2.369-1.104-2.369-2.225
		c0-1.873,1.665-2.897,4.658-2.881v-0.16c0-0.641-0.176-1.793-1.761-1.793c-0.72,0-1.473,0.224-2.017,0.576l-0.32-0.928
		c0.64-0.416,1.568-0.688,2.545-0.688c2.369,0,2.945,1.617,2.945,3.169v2.897c0,0.672,0.032,1.329,0.128,1.857H76.696z
		 M76.488,92.587c-1.537-0.032-3.281,0.24-3.281,1.745c0,0.913,0.608,1.345,1.329,1.345c1.008,0,1.648-0.64,1.873-1.296
		c0.048-0.145,0.08-0.304,0.08-0.448V92.587z"/>
	<path d="M81.751,86.568v2.225h2.017v1.072h-2.017v4.178c0,0.96,0.272,1.505,1.056,1.505c0.368,0,0.641-0.048,0.816-0.096
		l0.064,1.056c-0.272,0.112-0.704,0.192-1.249,0.192c-0.656,0-1.184-0.208-1.521-0.592c-0.4-0.416-0.544-1.104-0.544-2.017v-4.226
		h-1.201v-1.072h1.201v-1.857L81.751,86.568z"/>
	<path d="M86.92,86.617c0.016,0.48-0.337,0.864-0.896,0.864c-0.496,0-0.85-0.384-0.85-0.864c0-0.497,0.369-0.88,0.881-0.88
		C86.583,85.736,86.92,86.12,86.92,86.617z M85.351,96.541v-7.747h1.409v7.747H85.351z"/>
	<path d="M96.105,92.603c0,2.865-1.984,4.114-3.857,4.114c-2.097,0-3.713-1.537-3.713-3.986c0-2.593,1.696-4.114,3.841-4.114
		C94.602,88.617,96.105,90.234,96.105,92.603z M89.959,92.683c0,1.697,0.977,2.977,2.354,2.977c1.344,0,2.353-1.265,2.353-3.009
		c0-1.313-0.656-2.977-2.321-2.977C90.68,89.674,89.959,91.21,89.959,92.683z"/>
	<path d="M97.879,90.89c0-0.8-0.016-1.457-0.064-2.097h1.249l0.08,1.28h0.032c0.384-0.736,1.28-1.457,2.561-1.457
		c1.072,0,2.737,0.641,2.737,3.297v4.626h-1.409v-4.466c0-1.249-0.464-2.289-1.792-2.289c-0.929,0-1.649,0.656-1.89,1.441
		c-0.063,0.176-0.096,0.416-0.096,0.656v4.658h-1.408V90.89z"/>
	<path d="M110.006,94.844c0.625,0.384,1.537,0.705,2.498,0.705c1.424,0,2.256-0.752,2.256-1.841c0-1.008-0.576-1.585-2.032-2.145
		c-1.761-0.624-2.849-1.537-2.849-3.057c0-1.681,1.393-2.929,3.488-2.929c1.105,0,1.905,0.256,2.385,0.528l-0.383,1.136
		c-0.353-0.192-1.073-0.512-2.049-0.512c-1.473,0-2.033,0.88-2.033,1.617c0,1.008,0.656,1.504,2.145,2.081
		c1.824,0.704,2.754,1.584,2.754,3.169c0,1.665-1.233,3.105-3.778,3.105c-1.04,0-2.177-0.304-2.753-0.688L110.006,94.844z"/>
	<path d="M125.145,92.603c0,2.865-1.984,4.114-3.857,4.114c-2.096,0-3.713-1.537-3.713-3.986c0-2.593,1.696-4.114,3.842-4.114
		C123.641,88.617,125.145,90.234,125.145,92.603z M118.998,92.683c0,1.697,0.977,2.977,2.354,2.977c1.345,0,2.354-1.265,2.354-3.009
		c0-1.313-0.656-2.977-2.321-2.977S118.998,91.21,118.998,92.683z"/>
	<path d="M127.063,96.541v-6.675h-1.088v-1.072h1.088v-0.368c0-1.088,0.24-2.081,0.896-2.705c0.528-0.512,1.232-0.72,1.889-0.72
		c0.496,0,0.928,0.112,1.201,0.224l-0.193,1.088c-0.207-0.096-0.496-0.176-0.896-0.176c-1.199,0-1.504,1.057-1.504,2.241v0.416
		h1.873v1.072h-1.873v6.675H127.063z"/>
	<path d="M133.463,86.568v2.225h2.017v1.072h-2.017v4.178c0,0.96,0.272,1.505,1.057,1.505c0.368,0,0.64-0.048,0.816-0.096
		l0.063,1.056c-0.271,0.112-0.704,0.192-1.248,0.192c-0.656,0-1.185-0.208-1.521-0.592c-0.4-0.416-0.545-1.104-0.545-2.017v-4.226
		h-1.2v-1.072h1.2v-1.857L133.463,86.568z"/>
	<path d="M137.766,88.793l1.024,3.938c0.225,0.864,0.433,1.665,0.576,2.465h0.048c0.177-0.784,0.433-1.617,0.688-2.449l1.265-3.954
		h1.185l1.2,3.874c0.288,0.928,0.513,1.745,0.688,2.529h0.048c0.128-0.784,0.336-1.601,0.593-2.513l1.104-3.89h1.393l-2.497,7.747
		H143.8l-1.184-3.697c-0.272-0.865-0.497-1.633-0.688-2.545h-0.032c-0.192,0.929-0.433,1.729-0.704,2.561l-1.249,3.682h-1.28
		l-2.337-7.747H137.766z"/>
	<path d="M153.208,96.541l-0.112-0.977h-0.048c-0.432,0.608-1.265,1.153-2.369,1.153c-1.568,0-2.368-1.104-2.368-2.225
		c0-1.873,1.664-2.897,4.657-2.881v-0.16c0-0.641-0.176-1.793-1.761-1.793c-0.72,0-1.473,0.224-2.017,0.576l-0.32-0.928
		c0.641-0.416,1.569-0.688,2.545-0.688c2.369,0,2.945,1.617,2.945,3.169v2.897c0,0.672,0.032,1.329,0.128,1.857H153.208z
		 M153,92.587c-1.536-0.032-3.281,0.24-3.281,1.745c0,0.913,0.608,1.345,1.328,1.345c1.009,0,1.649-0.64,1.873-1.296
		c0.048-0.145,0.08-0.304,0.08-0.448V92.587z"/>
	<path d="M156.63,91.21c0-0.913-0.017-1.697-0.064-2.417h1.232l0.048,1.521h0.064c0.352-1.041,1.2-1.697,2.145-1.697
		c0.16,0,0.272,0.016,0.4,0.048v1.328c-0.145-0.032-0.288-0.048-0.48-0.048c-0.992,0-1.696,0.752-1.889,1.809
		c-0.032,0.192-0.064,0.417-0.064,0.656v4.13h-1.392V91.21z"/>
	<path d="M162.486,92.923c0.031,1.905,1.248,2.689,2.656,2.689c1.009,0,1.617-0.176,2.146-0.4l0.24,1.008
		c-0.496,0.224-1.345,0.48-2.577,0.48c-2.385,0-3.81-1.569-3.81-3.906s1.376-4.178,3.634-4.178c2.528,0,3.201,2.225,3.201,3.649
		c0,0.288-0.032,0.512-0.049,0.656H162.486z M166.615,91.915c0.017-0.896-0.368-2.289-1.952-2.289c-1.425,0-2.049,1.313-2.161,2.289
		H166.615z"/>
</g>
<g>
	<path d="M97.86,160.458c0,3.714-2.257,5.683-5.01,5.683c-2.849,0-4.85-2.209-4.85-5.475c0-3.425,2.129-5.666,5.01-5.666
		C95.955,155,97.86,157.257,97.86,160.458z M89.489,160.634c0,2.305,1.249,4.37,3.441,4.37c2.209,0,3.458-2.032,3.458-4.481
		c0-2.145-1.121-4.387-3.441-4.387C90.641,156.136,89.489,158.265,89.489,160.634z"/>
	<path d="M99.616,160.746c0-0.992-0.032-1.792-0.064-2.528h1.265l0.064,1.328h0.032c0.576-0.944,1.489-1.505,2.753-1.505
		c1.873,0,3.281,1.585,3.281,3.938c0,2.785-1.697,4.162-3.521,4.162c-1.024,0-1.921-0.448-2.385-1.217h-0.032v4.21h-1.393V160.746z
		 M101.009,162.812c0,0.207,0.032,0.4,0.064,0.576c0.256,0.977,1.104,1.648,2.113,1.648c1.489,0,2.353-1.217,2.353-2.993
		c0-1.553-0.816-2.882-2.305-2.882c-0.96,0-1.857,0.689-2.129,1.745c-0.048,0.177-0.096,0.384-0.096,0.576V162.812z"/>
	<path d="M109.504,162.347c0.032,1.904,1.249,2.689,2.657,2.689c1.008,0,1.617-0.176,2.145-0.4l0.24,1.008
		c-0.496,0.225-1.345,0.48-2.577,0.48c-2.385,0-3.81-1.568-3.81-3.905s1.376-4.178,3.633-4.178c2.529,0,3.201,2.226,3.201,3.649
		c0,0.288-0.031,0.512-0.047,0.656H109.504z M113.635,161.339c0.016-0.896-0.369-2.289-1.953-2.289
		c-1.425,0-2.049,1.313-2.161,2.289H113.635z"/>
	<path d="M116.736,160.634c0-0.912-0.017-1.696-0.064-2.416h1.232l0.048,1.52h0.064c0.353-1.04,1.2-1.696,2.145-1.696
		c0.16,0,0.272,0.017,0.4,0.048v1.328c-0.144-0.031-0.288-0.047-0.48-0.047c-0.992,0-1.696,0.752-1.889,1.809
		c-0.032,0.191-0.063,0.416-0.063,0.656v4.129h-1.393V160.634z"/>
	<path d="M126.178,165.964l-0.111-0.977h-0.049c-0.432,0.609-1.264,1.153-2.369,1.153c-1.568,0-2.369-1.104-2.369-2.226
		c0-1.872,1.666-2.896,4.658-2.881v-0.16c0-0.641-0.176-1.793-1.76-1.793c-0.721,0-1.473,0.225-2.018,0.576l-0.32-0.928
		c0.641-0.416,1.568-0.688,2.545-0.688c2.369,0,2.945,1.616,2.945,3.169v2.897c0,0.673,0.032,1.329,0.129,1.856H126.178z
		 M125.97,162.011c-1.536-0.032-3.281,0.24-3.281,1.744c0,0.913,0.608,1.346,1.329,1.346c1.008,0,1.648-0.641,1.872-1.297
		c0.048-0.145,0.08-0.305,0.08-0.448V162.011z"/>
	<path d="M131.232,155.992v2.226h2.017v1.072h-2.017v4.178c0,0.96,0.271,1.504,1.057,1.504c0.367,0,0.641-0.048,0.816-0.096
		l0.063,1.057c-0.272,0.111-0.704,0.191-1.249,0.191c-0.656,0-1.184-0.207-1.52-0.592c-0.4-0.416-0.545-1.104-0.545-2.018v-4.225
		h-1.2v-1.072h1.2v-1.857L131.232,155.992z"/>
	<path d="M136.4,156.04c0.016,0.48-0.336,0.865-0.896,0.865c-0.496,0-0.849-0.385-0.849-0.865c0-0.496,0.368-0.88,0.88-0.88
		C136.064,155.16,136.4,155.544,136.4,156.04z M134.832,165.964v-7.746h1.408v7.746H134.832z"/>
	<path d="M138.576,160.313c0-0.8-0.017-1.456-0.064-2.096h1.248l0.08,1.279h0.032c0.384-0.736,1.28-1.456,2.562-1.456
		c1.072,0,2.736,0.641,2.736,3.298v4.625h-1.408v-4.465c0-1.249-0.464-2.289-1.793-2.289c-0.928,0-1.648,0.656-1.889,1.44
		c-0.064,0.176-0.096,0.416-0.096,0.656v4.657h-1.408V160.313z"/>
	<path d="M154.131,158.218c-0.033,0.56-0.064,1.184-0.064,2.129v4.497c0,1.776-0.353,2.865-1.104,3.538
		c-0.753,0.703-1.841,0.928-2.817,0.928c-0.928,0-1.953-0.225-2.577-0.641l0.353-1.072c0.512,0.32,1.313,0.608,2.273,0.608
		c1.439,0,2.496-0.752,2.496-2.705v-0.864h-0.031c-0.433,0.721-1.266,1.297-2.465,1.297c-1.922,0-3.298-1.633-3.298-3.777
		c0-2.625,1.712-4.114,3.489-4.114c1.345,0,2.081,0.704,2.417,1.345h0.032l0.064-1.168H154.131z M152.674,161.274
		c0-0.24-0.016-0.448-0.08-0.641c-0.256-0.816-0.944-1.488-1.969-1.488c-1.345,0-2.305,1.137-2.305,2.93
		c0,1.52,0.768,2.785,2.289,2.785c0.863,0,1.648-0.545,1.952-1.441c0.08-0.24,0.112-0.512,0.112-0.752V161.274z"/>
	<path d="M159.647,164.268c0.624,0.384,1.536,0.704,2.497,0.704c1.424,0,2.257-0.752,2.257-1.84c0-1.009-0.576-1.586-2.032-2.146
		c-1.762-0.624-2.85-1.536-2.85-3.058c0-1.68,1.393-2.929,3.489-2.929c1.104,0,1.905,0.256,2.385,0.528l-0.384,1.137
		c-0.352-0.192-1.072-0.513-2.049-0.513c-1.473,0-2.033,0.88-2.033,1.616c0,1.009,0.656,1.505,2.145,2.082
		c1.825,0.703,2.754,1.584,2.754,3.168c0,1.665-1.232,3.105-3.777,3.105c-1.041,0-2.178-0.304-2.754-0.688L159.647,164.268z"/>
	<path d="M168.063,158.218l1.696,4.577c0.176,0.513,0.369,1.12,0.496,1.585h0.033c0.144-0.465,0.303-1.057,0.496-1.617l1.536-4.545
		h1.488l-2.112,5.521c-1.009,2.657-1.697,4.018-2.657,4.85c-0.688,0.609-1.377,0.85-1.729,0.913l-0.352-1.185
		c0.352-0.112,0.816-0.336,1.232-0.688c0.385-0.304,0.864-0.849,1.185-1.568c0.063-0.144,0.112-0.257,0.112-0.337
		s-0.032-0.191-0.096-0.367l-2.865-7.139H168.063z"/>
	<path d="M174.799,164.524c0.416,0.271,1.152,0.56,1.857,0.56c1.023,0,1.504-0.513,1.504-1.152c0-0.673-0.4-1.04-1.44-1.425
		c-1.393-0.496-2.049-1.264-2.049-2.193c0-1.248,1.009-2.272,2.673-2.272c0.785,0,1.473,0.224,1.905,0.48l-0.353,1.024
		c-0.304-0.192-0.864-0.448-1.584-0.448c-0.832,0-1.297,0.479-1.297,1.056c0,0.641,0.465,0.93,1.473,1.313
		c1.345,0.513,2.033,1.186,2.033,2.338c0,1.36-1.057,2.32-2.897,2.32c-0.849,0-1.633-0.207-2.177-0.527L174.799,164.524z"/>
	<path d="M183.023,155.992v2.226h2.018v1.072h-2.018v4.178c0,0.96,0.272,1.504,1.057,1.504c0.368,0,0.641-0.048,0.816-0.096
		l0.064,1.057c-0.272,0.111-0.705,0.191-1.249,0.191c-0.656,0-1.185-0.207-1.521-0.592c-0.4-0.416-0.544-1.104-0.544-2.018v-4.225
		h-1.2v-1.072h1.2v-1.857L183.023,155.992z"/>
	<path d="M187.311,162.347c0.033,1.904,1.249,2.689,2.658,2.689c1.008,0,1.616-0.176,2.145-0.4l0.24,1.008
		c-0.496,0.225-1.345,0.48-2.577,0.48c-2.386,0-3.81-1.568-3.81-3.905s1.377-4.178,3.633-4.178c2.529,0,3.202,2.226,3.202,3.649
		c0,0.288-0.032,0.512-0.049,0.656H187.311z M191.44,161.339c0.017-0.896-0.368-2.289-1.952-2.289c-1.425,0-2.049,1.313-2.161,2.289
		H191.44z"/>
	<path d="M194.543,160.313c0-0.8-0.017-1.456-0.064-2.096h1.232l0.064,1.248h0.048c0.432-0.736,1.152-1.425,2.433-1.425
		c1.057,0,1.856,0.641,2.193,1.553h0.031c0.24-0.433,0.545-0.769,0.865-1.009c0.464-0.352,0.976-0.544,1.712-0.544
		c1.024,0,2.545,0.673,2.545,3.361v4.562h-1.376v-4.385c0-1.489-0.544-2.385-1.681-2.385c-0.801,0-1.425,0.592-1.665,1.279
		c-0.063,0.192-0.112,0.449-0.112,0.705v4.785h-1.376v-4.642c0-1.232-0.544-2.128-1.617-2.128c-0.88,0-1.521,0.703-1.744,1.408
		c-0.08,0.207-0.112,0.447-0.112,0.688v4.674h-1.376V160.313z"/>
</g>
<g>
	<path d="M41.86,231.034c0,3.714-2.257,5.683-5.01,5.683c-2.849,0-4.85-2.209-4.85-5.475c0-3.425,2.129-5.666,5.01-5.666
		C39.955,225.576,41.86,227.833,41.86,231.034z M33.489,231.21c0,2.305,1.249,4.37,3.441,4.37c2.209,0,3.458-2.032,3.458-4.481
		c0-2.145-1.121-4.387-3.441-4.387C34.641,226.712,33.489,228.841,33.489,231.21z"/>
	<path d="M45.585,226.568v2.226h2.017v1.072h-2.017v4.178c0,0.96,0.272,1.504,1.056,1.504c0.368,0,0.641-0.048,0.816-0.096
		l0.064,1.057c-0.272,0.111-0.704,0.191-1.249,0.191c-0.656,0-1.184-0.207-1.521-0.592c-0.4-0.416-0.544-1.104-0.544-2.018v-4.225
		h-1.201v-1.072h1.201v-1.857L45.585,226.568z"/>
	<path d="M49.184,225.176h1.409v4.834h0.032c0.224-0.399,0.576-0.752,1.009-0.992c0.416-0.24,0.912-0.4,1.44-0.4
		c1.041,0,2.705,0.641,2.705,3.313v4.609H54.37v-4.449c0-1.248-0.464-2.305-1.792-2.305c-0.913,0-1.633,0.641-1.889,1.408
		c-0.08,0.191-0.096,0.4-0.096,0.672v4.674h-1.409V225.176z"/>
	<path d="M58.848,232.923c0.032,1.904,1.249,2.689,2.657,2.689c1.008,0,1.617-0.176,2.145-0.4l0.24,1.008
		c-0.496,0.225-1.344,0.48-2.577,0.48c-2.385,0-3.81-1.568-3.81-3.905s1.376-4.178,3.633-4.178c2.529,0,3.201,2.226,3.201,3.649
		c0,0.288-0.032,0.512-0.048,0.656H58.848z M62.978,231.915c0.016-0.896-0.368-2.289-1.953-2.289c-1.425,0-2.049,1.313-2.161,2.289
		H62.978z"/>
	<path d="M66.08,231.21c0-0.912-0.016-1.696-0.064-2.416h1.232l0.048,1.52h0.064c0.352-1.04,1.2-1.696,2.145-1.696
		c0.16,0,0.272,0.017,0.4,0.048v1.328c-0.144-0.031-0.288-0.047-0.48-0.047c-0.992,0-1.697,0.752-1.889,1.809
		c-0.032,0.191-0.064,0.416-0.064,0.656v4.129H66.08V231.21z"/>
	<path d="M74.56,234.844c0.624,0.384,1.537,0.704,2.497,0.704c1.424,0,2.257-0.752,2.257-1.84c0-1.009-0.576-1.586-2.033-2.146
		c-1.761-0.624-2.849-1.536-2.849-3.058c0-1.68,1.393-2.929,3.489-2.929c1.104,0,1.905,0.256,2.385,0.528l-0.385,1.137
		c-0.352-0.192-1.072-0.513-2.048-0.513c-1.473,0-2.033,0.88-2.033,1.616c0,1.009,0.656,1.505,2.145,2.082
		c1.825,0.703,2.753,1.584,2.753,3.168c0,1.665-1.232,3.105-3.777,3.105c-1.041,0-2.177-0.304-2.753-0.688L74.56,234.844z"/>
	<path d="M82.977,228.794l1.696,4.577c0.176,0.513,0.368,1.12,0.496,1.585h0.032c0.145-0.465,0.304-1.057,0.496-1.617l1.537-4.545
		h1.488l-2.113,5.521c-1.008,2.657-1.696,4.018-2.656,4.85c-0.689,0.609-1.377,0.85-1.729,0.913l-0.353-1.185
		c0.353-0.112,0.816-0.336,1.232-0.688c0.385-0.304,0.865-0.849,1.186-1.568c0.063-0.144,0.111-0.257,0.111-0.337
		s-0.031-0.191-0.096-0.367l-2.865-7.139H82.977z"/>
	<path d="M89.712,235.101c0.416,0.271,1.152,0.56,1.856,0.56c1.024,0,1.505-0.513,1.505-1.152c0-0.673-0.4-1.04-1.44-1.425
		c-1.393-0.496-2.049-1.264-2.049-2.193c0-1.248,1.008-2.272,2.673-2.272c0.784,0,1.473,0.224,1.905,0.48l-0.353,1.024
		c-0.304-0.192-0.864-0.448-1.585-0.448c-0.832,0-1.297,0.479-1.297,1.056c0,0.641,0.465,0.93,1.473,1.313
		c1.346,0.513,2.033,1.186,2.033,2.338c0,1.36-1.057,2.32-2.896,2.32c-0.85,0-1.633-0.207-2.178-0.527L89.712,235.101z"/>
	<path d="M97.937,226.568v2.226h2.017v1.072h-2.017v4.178c0,0.96,0.272,1.504,1.056,1.504c0.369,0,0.641-0.048,0.816-0.096
		l0.064,1.057c-0.271,0.111-0.704,0.191-1.248,0.191c-0.656,0-1.185-0.207-1.521-0.592c-0.399-0.416-0.543-1.104-0.543-2.018v-4.225
		h-1.201v-1.072h1.201v-1.857L97.937,226.568z"/>
	<path d="M102.225,232.923c0.031,1.904,1.248,2.689,2.656,2.689c1.009,0,1.617-0.176,2.146-0.4l0.239,1.008
		c-0.496,0.225-1.344,0.48-2.576,0.48c-2.385,0-3.81-1.568-3.81-3.905s1.376-4.178,3.634-4.178c2.528,0,3.201,2.226,3.201,3.649
		c0,0.288-0.032,0.512-0.049,0.656H102.225z M106.354,231.915c0.017-0.896-0.367-2.289-1.952-2.289
		c-1.425,0-2.049,1.313-2.161,2.289H106.354z"/>
	<path d="M109.455,230.89c0-0.8-0.016-1.456-0.063-2.096h1.232l0.063,1.248h0.049c0.432-0.736,1.152-1.425,2.433-1.425
		c1.057,0,1.856,0.641,2.192,1.553h0.033c0.24-0.433,0.543-0.769,0.863-1.009c0.465-0.352,0.977-0.544,1.713-0.544
		c1.025,0,2.545,0.673,2.545,3.361v4.562h-1.376v-4.385c0-1.489-0.544-2.385-1.681-2.385c-0.801,0-1.425,0.592-1.665,1.279
		c-0.063,0.192-0.112,0.449-0.112,0.705v4.785h-1.376v-4.642c0-1.232-0.544-2.128-1.616-2.128c-0.881,0-1.521,0.703-1.745,1.408
		c-0.08,0.207-0.112,0.447-0.112,0.688v4.674h-1.377V230.89z"/>
	<path d="M126.047,234.844c0.624,0.384,1.537,0.704,2.497,0.704c1.425,0,2.257-0.752,2.257-1.84c0-1.009-0.576-1.586-2.033-2.146
		c-1.76-0.624-2.849-1.536-2.849-3.058c0-1.68,1.393-2.929,3.489-2.929c1.104,0,1.904,0.256,2.385,0.528l-0.384,1.137
		c-0.353-0.192-1.073-0.513-2.049-0.513c-1.473,0-2.033,0.88-2.033,1.616c0,1.009,0.657,1.505,2.146,2.082
		c1.824,0.703,2.753,1.584,2.753,3.168c0,1.665-1.233,3.105-3.778,3.105c-1.04,0-2.176-0.304-2.752-0.688L126.047,234.844z"/>
	<path d="M141.186,232.603c0,2.865-1.984,4.114-3.857,4.114c-2.098,0-3.713-1.536-3.713-3.985c0-2.594,1.695-4.114,3.842-4.114
		C139.682,228.617,141.186,230.233,141.186,232.603z M135.039,232.683c0,1.697,0.977,2.978,2.354,2.978
		c1.344,0,2.352-1.265,2.352-3.009c0-1.313-0.656-2.978-2.32-2.978S135.039,231.21,135.039,232.683z"/>
	<path d="M143.104,236.54v-6.674h-1.09v-1.072h1.09v-0.369c0-1.088,0.24-2.08,0.896-2.705c0.527-0.512,1.232-0.72,1.889-0.72
		c0.496,0,0.928,0.112,1.199,0.224l-0.191,1.089c-0.207-0.097-0.496-0.177-0.896-0.177c-1.201,0-1.504,1.057-1.504,2.242v0.416
		h1.873v1.072h-1.873v6.674H143.104z"/>
	<path d="M149.504,226.568v2.226h2.016v1.072h-2.016v4.178c0,0.96,0.271,1.504,1.057,1.504c0.367,0,0.639-0.048,0.816-0.096
		l0.063,1.057c-0.271,0.111-0.703,0.191-1.248,0.191c-0.656,0-1.184-0.207-1.52-0.592c-0.4-0.416-0.545-1.104-0.545-2.018v-4.225
		h-1.201v-1.072h1.201v-1.857L149.504,226.568z"/>
	<path d="M153.807,228.794l1.025,3.938c0.225,0.863,0.432,1.664,0.576,2.465h0.047c0.178-0.785,0.434-1.617,0.689-2.449l1.264-3.953
		h1.186l1.199,3.873c0.289,0.928,0.514,1.744,0.689,2.529h0.047c0.129-0.785,0.336-1.602,0.594-2.514l1.104-3.889h1.393
		l-2.496,7.746h-1.281l-1.184-3.697c-0.273-0.864-0.498-1.633-0.689-2.545h-0.031c-0.193,0.929-0.434,1.729-0.705,2.561
		l-1.248,3.682h-1.281l-2.336-7.746H153.807z"/>
	<path d="M169.248,236.54l-0.111-0.977h-0.049c-0.432,0.609-1.264,1.153-2.369,1.153c-1.568,0-2.367-1.104-2.367-2.226
		c0-1.872,1.664-2.896,4.656-2.881v-0.16c0-0.641-0.176-1.793-1.76-1.793c-0.721,0-1.473,0.225-2.018,0.576l-0.32-0.928
		c0.641-0.416,1.57-0.688,2.545-0.688c2.369,0,2.945,1.616,2.945,3.169v2.897c0,0.673,0.033,1.329,0.129,1.856H169.248z
		 M169.041,232.587c-1.537-0.032-3.281,0.24-3.281,1.744c0,0.913,0.607,1.346,1.328,1.346c1.008,0,1.648-0.641,1.873-1.297
		c0.047-0.145,0.08-0.305,0.08-0.448V232.587z"/>
	<path d="M172.672,231.21c0-0.912-0.018-1.696-0.064-2.416h1.232l0.047,1.52h0.064c0.352-1.04,1.201-1.696,2.145-1.696
		c0.16,0,0.273,0.017,0.4,0.048v1.328c-0.145-0.031-0.287-0.047-0.48-0.047c-0.992,0-1.695,0.752-1.889,1.809
		c-0.031,0.191-0.064,0.416-0.064,0.656v4.129h-1.391V231.21z"/>
	<path d="M178.527,232.923c0.031,1.904,1.248,2.689,2.656,2.689c1.008,0,1.617-0.176,2.145-0.4l0.24,1.008
		c-0.496,0.225-1.344,0.48-2.576,0.48c-2.385,0-3.811-1.568-3.811-3.905s1.377-4.178,3.635-4.178c2.527,0,3.201,2.226,3.201,3.649
		c0,0.288-0.033,0.512-0.049,0.656H178.527z M182.656,231.915c0.016-0.896-0.369-2.289-1.953-2.289c-1.424,0-2.049,1.313-2.16,2.289
		H182.656z"/>
</g>
</svg>
