<svg xmlns="http://www.w3.org/2000/svg" xmlns:xlink="http://www.w3.org/1999/xlink" xmlns:lucid="lucid" width="1422" height="840"><g transform="translate(-160 -100)" lucid:page-tab-id="0_0"><path d="M0 0h1870.87v1322.83H0z" fill="#fff"/><path d="M320 120v160h48V120zM512 120v160h48V120z" fill="none"/><path d="M392 200h-72zm120 0h48zm-120-80l96 80-96 80zm120 80c0 7.07-5.37 12.8-12 12.8s-12-5.73-12-12.8 5.37-12.8 12-12.8 12 5.73 12 12.8" stroke="#5e5e5e" stroke-width="3" fill="#fff"/><path d="M320 320v160h48V320zM512 320v160h48V320z" fill="none"/><path d="M392 400h-72zm120 0h48zm-120-80l96 80-96 80zm120 80c0 7.07-5.37 12.8-12 12.8s-12-5.73-12-12.8 5.37-12.8 12-12.8 12 5.73 12 12.8" stroke="#5e5e5e" stroke-width="3" fill="#fff"/><path d="M180 171c0-3.3 2.7-6 6-6h28c3.3 0 6 2.7 6 6v58c0 3.3-2.7 6-6 6h-28c-3.3 0-6-2.7-6-6z" stroke="#000" stroke-opacity="0" stroke-width="3" fill="#fff" fill-opacity="0"/><use xlink:href="#a" transform="matrix(1,0,0,1,185,170) translate(5.740740740740744 37.91666666666666)"/><path d="M320 200" stroke="#5e5e5e" stroke-width="2" fill="none"/><path fill="#5e5e5e"/><path fill="#5e5e5e"/><path d="M221 200h98" stroke="#5e5e5e" stroke-width="2" fill="none"/><path d="M221.03 201H220v-2h1.03zM320 201h-1.03v-2H320z" fill="#5e5e5e"/><path d="M180 371c0-3.3 2.7-6 6-6h28c3.3 0 6 2.7 6 6v58c0 3.3-2.7 6-6 6h-28c-3.3 0-6-2.7-6-6z" stroke="#000" stroke-opacity="0" stroke-width="3" fill="#fff" fill-opacity="0"/><use xlink:href="#b" transform="matrix(1,0,0,1,185,370) translate(4.861111111111114 37.91666666666666)"/><path d="M221 400h98" stroke="#5e5e5e" stroke-width="2" fill="none"/><path d="M221.03 401H220v-2h1.03zM320 401h-1.03v-2H320z" fill="#5e5e5e"/><path d="M180 526c0-3.3 2.7-6 6-6h28c3.3 0 6 2.7 6 6v58c0 3.3-2.7 6-6 6h-28c-3.3 0-6-2.7-6-6z" stroke="#000" stroke-opacity="0" stroke-width="3" fill="#fff" fill-opacity="0"/><use xlink:href="#c" transform="matrix(1,0,0,1,185,525) translate(5.740740740740744 37.91666666666666)"/><path d="M660 435v160h48V435zM852 435v160h48V435z" fill="none"/><path d="M726.72 475H660m66.72 80H660zm108.48-40H900zm-108.48-80V595H781.2c30 0 53.52-36 53.52-80s-23.52-80-53.52-80H726.72z" stroke="#5e5e5e" stroke-width="3" fill="#fff"/><path d="M561 400h43c3.3 0 6 2.7 6 6v63c0 3.3 2.7 6 6 6h43" stroke="#5e5e5e" stroke-width="2" fill="none"/><path d="M561.03 401H560v-2h1.03zM660 476h-1.03v-2H660z" fill="#5e5e5e"/><path d="M221 555h438" stroke="#5e5e5e" stroke-width="2" fill="none"/><path d="M221.03 556H220v-2h1.03zM660 556h-1.03v-2H660z" fill="#5e5e5e"/><path d="M980 205v160h48V205zM1172 205v160h48V205z" fill="none"/><path d="M1049.6 245H980m69.6 80H980zm104.64-40H1220zm-116.4-64l4.8 7.84s13.68 22.4 13.68 56.16-13.68 56.16-13.68 56.16l-4.8 7.84h41.28c5.76 0 18.24 0 32.64-7.68 14.16-7.84 30-23.52 42.48-54.08v-4.48c-24.72-61.12-63.84-61.76-75.12-61.76h-41.28z" stroke="#5e5e5e" stroke-width="3" fill="#fff"/><path d="M561 200h203c3.3 0 6 2.7 6 6v33c0 3.3 2.7 6 6 6h203" stroke="#5e5e5e" stroke-width="2" fill="none"/><path d="M561.03 201H560v-2h1.03zM980 246h-1.03v-2H980z" fill="#5e5e5e"/><path d="M901 515h33c3.3 0 6-2.7 6-6V331c0-3.3 2.7-6 6-6h33" stroke="#5e5e5e" stroke-width="2" fill="none"/><path d="M901.03 516H900v-2h1.03zM980 326h-1.03v-2H980z" fill="#5e5e5e"/><path d="M980 580v160h48V580zM1172 580v160h48V580z" fill="none"/><path d="M1046.72 620H980m66.72 80H980zm108.48-40h64.8zm-108.48-80V740H1101.2c30 0 53.52-36 53.52-80s-23.52-80-53.52-80H1046.72z" stroke="#5e5e5e" stroke-width="3" fill="#fff"/><path d="M901 515h36.25c3.3 0 6 2.7 6 6v94.5c0 3.3 2.7 6 6 6h36.25" stroke="#5e5e5e" stroke-width="2" fill="none"/><path d="M901.03 516H900v-2h1.03z" fill="#5e5e5e"/><path d="M985.47 621.5h4.03" stroke="#5e5e5e" stroke-width="2" fill="none"/><path d="M669 720v160h48V720zM861 720v160h48V720z" fill="none"/><path d="M735.72 760H669m66.72 80H669zm108.48-40H909zm-108.48-80V880H790.2c30 0 53.52-36 53.52-80s-23.52-80-53.52-80H735.72z" stroke="#5e5e5e" stroke-width="3" fill="#fff"/><path d="M910 800h28.5c3.3 0 6-2.7 6-6v-88c0-3.3 2.7-6 6-6H979" stroke="#5e5e5e" stroke-width="2" fill="none"/><path d="M910.03 801H909v-2h1.03zM980 701h-1.03v-2H980z" fill="#5e5e5e"/><path d="M1231 580v160h48V580zM1423 580v160h48V580z" fill="none"/><path d="M1303 660h-72zm120 0h48zm-120-80l96 80-96 80zm120 80c0 7.07-5.37 12.8-12 12.8s-12-5.73-12-12.8 5.37-12.8 12-12.8 12 5.73 12 12.8" stroke="#5e5e5e" stroke-width="3" fill="#fff"/><path d="M1230 660h-9" stroke="#5e5e5e" stroke-width="2" fill="none"/><path d="M1231 661h-1.03v-2h1.03zM1221.03 661H1220v-2h1.03z" fill="#5e5e5e"/><path d="M180 811c0-3.3 2.7-6 6-6h28c3.3 0 6 2.7 6 6v58c0 3.3-2.7 6-6 6h-28c-3.3 0-6-2.7-6-6z" stroke="#000" stroke-opacity="0" stroke-width="3" fill="#fff" fill-opacity="0"/><use xlink:href="#d" transform="matrix(1,0,0,1,185,810) translate(4.861111111111114 37.91666666666666)"/><path d="M324.5 760v160h48V760zM516.5 760v160h48V760z" fill="none"/><path d="M396.5 840h-72zm120 0h48zm-120-80l96 80-96 80zm120 80c0 7.07-5.37 12.8-12 12.8s-12-5.73-12-12.8 5.37-12.8 12-12.8 12 5.73 12 12.8" stroke="#5e5e5e" stroke-width="3" fill="#fff"/><path d="M221 840h102.5" stroke="#5e5e5e" stroke-width="2" fill="none"/><path d="M221.03 841H220v-2h1.03zM324.5 841h-1.03v-2h1.03z" fill="#5e5e5e"/><path d="M565.5 840H668" stroke="#5e5e5e" stroke-width="2" fill="none"/><path d="M565.53 841h-1.03v-2h1.03zM669 841h-1.03v-2H669z" fill="#5e5e5e"/><path d="M668 760H504.63c-3.3 0-6-2.7-6-6V556" stroke="#5e5e5e" stroke-width="2" fill="none"/><path d="M669 761h-1.03v-2H669z" fill="#5e5e5e"/><path d="M498.63 556.03V555" stroke="#5e5e5e" stroke-width="2" fill="none"/><path d="M1220 261c0-3.3 2.7-6 6-6h68c3.3 0 6 2.7 6 6v53c0 3.3-2.7 6-6 6h-68c-3.3 0-6-2.7-6-6z" stroke="#000" stroke-opacity="0" stroke-width="3" fill="#fff" fill-opacity="0"/><use xlink:href="#e" transform="matrix(1,0,0,1,1225,260) translate(14.629629629629637 33.54166666666666)"/><path d="M1482 633.5c0-3.3 2.7-6 6-6h68c3.3 0 6 2.7 6 6v53c0 3.3-2.7 6-6 6h-68c-3.3 0-6-2.7-6-6z" stroke="#000" stroke-opacity="0" stroke-width="3" fill="#fff" fill-opacity="0"/><use xlink:href="#f" transform="matrix(1,0,0,1,1487,632.5) translate(14.629629629629637 33.54166666666666)"/><defs><path fill="#333" d="M133-34C117-15 103 5 69 4 32 3 11-16 11-54c-1-60 55-63 116-61 1-26-3-47-28-47-18 1-26 9-28 27l-52-2c7-38 36-58 82-57s74 22 75 68l1 82c-1 14 12 18 25 15v27c-30 8-71 5-69-32zm-48 3c29 0 43-24 42-57-32 0-66-3-65 30 0 17 8 27 23 27" id="g"/><use transform="matrix(0.09259259259259256,0,0,0.09259259259259256,0,0)" xlink:href="#g" id="a"/><path fill="#333" d="M135-194c52 0 70 43 70 98 0 56-19 99-73 100-30 1-46-15-58-35L72 0H24l1-261h50v104c11-23 29-37 60-37zM114-30c31 0 40-27 40-66 0-37-7-63-39-63s-41 28-41 65c0 36 8 64 40 64" id="h"/><use transform="matrix(0.09259259259259256,0,0,0.09259259259259256,0,0)" xlink:href="#h" id="b"/><path fill="#333" d="M190-63c-7 42-38 67-86 67-59 0-84-38-90-98-12-110 154-137 174-36l-49 2c-2-19-15-32-35-32-30 0-35 28-38 64-6 74 65 87 74 30" id="i"/><use transform="matrix(0.09259259259259256,0,0,0.09259259259259256,0,0)" xlink:href="#i" id="c"/><path fill="#333" d="M88-194c31-1 46 15 58 34l-1-101h50l1 261h-48c-2-10 0-23-3-31C134-8 116 4 84 4 32 4 16-41 15-95c0-56 19-97 73-99zm17 164c33 0 40-30 41-66 1-37-9-64-41-64s-38 30-39 65c0 43 13 65 39 65" id="j"/><use transform="matrix(0.09259259259259256,0,0,0.09259259259259256,0,0)" xlink:href="#j" id="d"/><path fill="#333" d="M169-182c-1-43-94-46-97-3 18 66 151 10 154 114 3 95-165 93-204 36-6-8-10-19-12-30l50-8c3 46 112 56 116 5-17-69-150-10-154-114-4-87 153-88 188-35 5 8 8 18 10 28" id="k"/><path fill="#333" d="M128-127c34 4 56 21 59 58 7 91-148 94-172 28-4-9-6-17-7-26l51-5c1 24 16 35 40 36 23 0 39-12 38-36-1-31-31-36-65-34v-40c32 2 59-3 59-33 0-20-13-33-34-33s-33 13-35 32l-50-3c6-44 37-68 86-68 50 0 83 20 83 66 0 35-22 52-53 58" id="l"/><g id="e"><use transform="matrix(0.09259259259259256,0,0,0.09259259259259256,0,0)" xlink:href="#k"/><use transform="matrix(0.09259259259259256,0,0,0.09259259259259256,22.222222222222214,0)" xlink:href="#l"/></g><path fill="#333" d="M165-50V0h-47v-50H5v-38l105-160h55v161h33v37h-33zm-47-37l2-116L46-87h72" id="m"/><g id="f"><use transform="matrix(0.09259259259259256,0,0,0.09259259259259256,0,0)" xlink:href="#k"/><use transform="matrix(0.09259259259259256,0,0,0.09259259259259256,22.222222222222214,0)" xlink:href="#m"/></g></defs></g></svg>