<svg xmlns="http://www.w3.org/2000/svg" xmlns:xlink="http://www.w3.org/1999/xlink" xmlns:lucid="lucid" width="1280" height="515"><g transform="translate(-160 -100)" lucid:page-tab-id="0_0"><path d="M0 0h1870.87v1322.83H0z" fill="#fff"/><path d="M320 120v160h48V120zM512 120v160h48V120z" fill="none"/><path d="M392 200h-72zm120 0h48zm-120-80l96 80-96 80zm120 80c0 7.07-5.37 12.8-12 12.8s-12-5.73-12-12.8 5.37-12.8 12-12.8 12 5.73 12 12.8" stroke="#5e5e5e" stroke-width="3" fill="#fff"/><path d="M320 320v160h48V320zM512 320v160h48V320z" fill="none"/><path d="M392 400h-72zm120 0h48zm-120-80l96 80-96 80zm120 80c0 7.07-5.37 12.8-12 12.8s-12-5.73-12-12.8 5.37-12.8 12-12.8 12 5.73 12 12.8" stroke="#5e5e5e" stroke-width="3" fill="#fff"/><path d="M620 220v160h48V220zM812 220v160h48V220z" fill="none"/><path d="M689.6 260H620m69.6 80H620zm104.64-40H860zm-116.4-64l4.8 7.84s13.68 22.4 13.68 56.16-13.68 56.16-13.68 56.16l-4.8 7.84h41.28c5.76 0 18.24 0 32.64-7.68 14.16-7.84 30-23.52 42.48-54.08v-4.48C769.52 236.64 730.4 236 719.12 236h-41.28z" stroke="#5e5e5e" stroke-width="3" fill="#fff"/><path d="M561 200h23.75c3.3 0 6 2.7 6 6v49.5c0 3.3 2.7 6 6 6h23.75" stroke="#5e5e5e" stroke-width="2" fill="none"/><path d="M561.03 201H560v-2h1.03z" fill="#5e5e5e"/><path d="M620.47 261.5h4.03M561 400h23c3.3 0 6-2.7 6-6v-48c0-3.3 2.7-6 6-6h23" stroke="#5e5e5e" stroke-width="2" fill="none"/><path d="M561.03 401H560v-2h1.03zM620 341h-1.03v-2H620z" fill="#5e5e5e"/><path d="M860 220v160h48V220zM1052 220v160h48V220z" fill="none"/><path d="M932 300h-72zm120 0h48zm-120-80l96 80-96 80zm120 80c0 7.07-5.37 12.8-12 12.8s-12-5.73-12-12.8 5.37-12.8 12-12.8 12 5.73 12 12.8" stroke="#5e5e5e" stroke-width="3" fill="#fff"/><path d="M1140 435v160h48V435zM1332 435v160h48V435z" fill="none"/><path d="M1206.72 475H1140m66.72 80H1140zm108.48-40h64.8zm-108.48-80V595H1261.2c30 0 53.52-36 53.52-80s-23.52-80-53.52-80H1206.72z" stroke="#5e5e5e" stroke-width="3" fill="#fff"/><path d="M1101 300h13c3.3 0 6 2.7 6 6v163c0 3.3 2.7 6 6 6h13" stroke="#5e5e5e" stroke-width="2" fill="none"/><path d="M1101.03 301H1100v-2h1.03zM1140 476h-1.03v-2h1.03z" fill="#5e5e5e"/><path d="M180 171c0-3.3 2.7-6 6-6h28c3.3 0 6 2.7 6 6v58c0 3.3-2.7 6-6 6h-28c-3.3 0-6-2.7-6-6z" stroke="#000" stroke-opacity="0" stroke-width="3" fill="#fff" fill-opacity="0"/><use xlink:href="#a" transform="matrix(1,0,0,1,185,170) translate(5.740740740740744 37.91666666666666)"/><path d="M320 200" stroke="#5e5e5e" stroke-width="2" fill="none"/><path fill="#5e5e5e"/><path fill="#5e5e5e"/><path d="M221 200h98" stroke="#5e5e5e" stroke-width="2" fill="none"/><path d="M221.03 201H220v-2h1.03zM320 201h-1.03v-2H320z" fill="#5e5e5e"/><path d="M180 371c0-3.3 2.7-6 6-6h28c3.3 0 6 2.7 6 6v58c0 3.3-2.7 6-6 6h-28c-3.3 0-6-2.7-6-6z" stroke="#000" stroke-opacity="0" stroke-width="3" fill="#fff" fill-opacity="0"/><use xlink:href="#b" transform="matrix(1,0,0,1,185,370) translate(4.861111111111114 37.91666666666666)"/><path d="M221 400h98" stroke="#5e5e5e" stroke-width="2" fill="none"/><path d="M221.03 401H220v-2h1.03zM320 401h-1.03v-2H320z" fill="#5e5e5e"/><path d="M180 526c0-3.3 2.7-6 6-6h28c3.3 0 6 2.7 6 6v58c0 3.3-2.7 6-6 6h-28c-3.3 0-6-2.7-6-6z" stroke="#000" stroke-opacity="0" stroke-width="3" fill="#fff" fill-opacity="0"/><use xlink:href="#c" transform="matrix(1,0,0,1,185,525) translate(5.740740740740744 37.91666666666666)"/><path d="M221 555h918" stroke="#5e5e5e" stroke-width="2" fill="none"/><path d="M221.03 556H220v-2h1.03zM1140 556h-1.03v-2h1.03z" fill="#5e5e5e"/><path d="M1380 486c0-3.3 2.7-6 6-6h28c3.3 0 6 2.7 6 6v58c0 3.3-2.7 6-6 6h-28c-3.3 0-6-2.7-6-6z" stroke="#000" stroke-opacity="0" stroke-width="3" fill="#fff" fill-opacity="0"/><use xlink:href="#d" transform="matrix(1,0,0,1,1385,485) translate(3.888888888888893 37.91666666666666)"/><path d="M620 206c0-3.3 2.7-6 6-6h28c3.3 0 6 2.7 6 6v58c0 3.3-2.7 6-6 6h-28c-3.3 0-6-2.7-6-6z" stroke="#000" stroke-opacity="0" stroke-width="3" fill="#fff" fill-opacity="0"/><use xlink:href="#e" transform="matrix(1,0,0,1,625,205) translate(2.0370370370370416 37.91666666666666)"/><path d="M620 346c0-3.3 2.7-6 6-6h28c3.3 0 6 2.7 6 6v58c0 3.3-2.7 6-6 6h-28c-3.3 0-6-2.7-6-6z" stroke="#000" stroke-opacity="0" stroke-width="3" fill="#fff" fill-opacity="0"/><use xlink:href="#f" transform="matrix(1,0,0,1,625,345) translate(3.888888888888893 37.91666666666666)"/><path d="M840 246c0-3.3 2.7-6 6-6h28c3.3 0 6 2.7 6 6v58c0 3.3-2.7 6-6 6h-28c-3.3 0-6-2.7-6-6z" stroke="#000" stroke-opacity="0" stroke-width="3" fill="#fff" fill-opacity="0"/><use xlink:href="#g" transform="matrix(1,0,0,1,845,245) translate(2.0370370370370416 37.91666666666666)"/><path d="M1060 246c0-3.3 2.7-6 6-6h28c3.3 0 6 2.7 6 6v58c0 3.3-2.7 6-6 6h-28c-3.3 0-6-2.7-6-6z" stroke="#000" stroke-opacity="0" stroke-width="3" fill="#fff" fill-opacity="0"/><use xlink:href="#h" transform="matrix(1,0,0,1,1065,245) translate(3.009259259259263 37.91666666666666)"/><defs><path fill="#333" d="M133-34C117-15 103 5 69 4 32 3 11-16 11-54c-1-60 55-63 116-61 1-26-3-47-28-47-18 1-26 9-28 27l-52-2c7-38 36-58 82-57s74 22 75 68l1 82c-1 14 12 18 25 15v27c-30 8-71 5-69-32zm-48 3c29 0 43-24 42-57-32 0-66-3-65 30 0 17 8 27 23 27" id="i"/><use transform="matrix(0.09259259259259256,0,0,0.09259259259259256,0,0)" xlink:href="#i" id="a"/><path fill="#333" d="M135-194c52 0 70 43 70 98 0 56-19 99-73 100-30 1-46-15-58-35L72 0H24l1-261h50v104c11-23 29-37 60-37zM114-30c31 0 40-27 40-66 0-37-7-63-39-63s-41 28-41 65c0 36 8 64 40 64" id="j"/><use transform="matrix(0.09259259259259256,0,0,0.09259259259259256,0,0)" xlink:href="#j" id="b"/><path fill="#333" d="M190-63c-7 42-38 67-86 67-59 0-84-38-90-98-12-110 154-137 174-36l-49 2c-2-19-15-32-35-32-30 0-35 28-38 64-6 74 65 87 74 30" id="k"/><use transform="matrix(0.09259259259259256,0,0,0.09259259259259256,0,0)" xlink:href="#k" id="c"/><path fill="#333" d="M169-182c-1-43-94-46-97-3 18 66 151 10 154 114 3 95-165 93-204 36-6-8-10-19-12-30l50-8c3 46 112 56 116 5-17-69-150-10-154-114-4-87 153-88 188-35 5 8 8 18 10 28" id="l"/><use transform="matrix(0.09259259259259256,0,0,0.09259259259259256,0,0)" xlink:href="#l" id="d"/><path fill="#333" d="M140-251c80 0 125 45 125 126S219 4 139 4C58 4 15-44 15-125s44-126 125-126zm-1 214c52 0 73-35 73-88 0-50-21-86-72-86-52 0-73 35-73 86s22 88 72 88" id="m"/><use transform="matrix(0.09259259259259256,0,0,0.09259259259259256,0,0)" xlink:href="#m" id="e"/><path fill="#333" d="M24-248c93 1 206-16 204 79-1 75-69 88-152 82V0H24v-248zm52 121c47 0 100 7 100-41 0-47-54-39-100-39v80" id="n"/><use transform="matrix(0.09259259259259256,0,0,0.09259259259259256,0,0)" xlink:href="#n" id="f"/><path fill="#333" d="M140-251c80 0 125 45 125 126 0 70-33 111-92 124 6 28 34 38 68 31l-1 36C177 83 129 55 120 2 51-6 15-50 15-125c0-81 44-126 125-126zm-1 214c52 0 73-35 73-88 0-50-21-86-72-86-52 0-73 35-73 86s22 88 72 88" id="o"/><use transform="matrix(0.09259259259259256,0,0,0.09259259259259256,0,0)" xlink:href="#o" id="g"/><path fill="#333" d="M240-174c0 40-23 61-54 70L253 0h-59l-57-94H76V0H24v-248c93 4 217-23 216 74zM76-134c48-2 112 12 112-38 0-48-66-32-112-35v73" id="p"/><use transform="matrix(0.09259259259259256,0,0,0.09259259259259256,0,0)" xlink:href="#p" id="h"/></defs></g></svg>